<?xml version="1.0"?>
<svg xmlns="http://www.w3.org/2000/svg" xmlns:xlink="http://www.w3.org/1999/xlink" xmlns:svgjs="http://svgjs.com/svgjs" version="1.1" width="512" height="512" x="0" y="0" viewBox="0 0 512 512" style="enable-background:new 0 0 512 512" xml:space="preserve" class=""><g>
<g xmlns="http://www.w3.org/2000/svg">
	<g>
		<g>
			<path d="M477.116,0H34.888C15.652,0,0.001,15.65,0.001,34.886v261.281c0,19.237,15.651,34.886,34.887,34.886h174.21     c2.876,8.186,10.661,14.081,19.817,14.081h13.406h21.072v144.901c0,3.196-2.6,5.796-5.796,5.796h-1.396     c-3.196,0-5.796-2.6-5.796-5.796v-127.81c0-4.466-3.619-8.084-8.084-8.084s-8.084,3.619-8.084,8.084v127.811     c0,12.111,9.853,21.964,21.964,21.964h1.396c12.111,0,21.964-9.853,21.964-21.964V345.134h4.328     c9.156,0,16.942-5.895,19.817-14.081h173.408c19.236,0,34.885-15.65,34.885-34.886V34.886C512,15.65,496.352,0,477.116,0z      M346.724,16.168h38.923v42.486c-11.773-6.127-25.366-8.759-38.923-7.144V16.168z M291.63,16.168h38.924v39.386h0.001     c-14.979,5.823-27.163,16.772-34.562,31.192c-1.789,3.488-3.232,7.088-4.363,10.757V16.168z M236.539,16.168h38.924v144.021     c-2.09-1.486-4.255-2.855-6.462-4.079c-0.264-0.148-0.531-0.286-0.799-0.421c-17.005-12.843-23.884-30.222-26.116-37.391     c-1.351-5.565-3.233-10.944-5.547-16.104V16.168z M181.446,16.168h38.924v61.34c-6.744-7.412-14.676-13.774-23.579-18.721     c-4.913-2.73-10.056-4.994-15.345-6.79V16.168z M126.355,16.168h38.923v31.899c-4.53-0.68-9.109-1.036-13.7-1.036     c-8.647,0-17.12,1.204-25.223,3.478V16.168z M71.262,16.168h38.924v40.55c-15.959,7.895-29.585,20.306-38.924,36.086V16.168z      M55.093,314.885H34.888c-10.322,0-18.719-8.397-18.719-18.718V34.886c0-10.321,8.397-18.718,18.719-18.718h20.205V314.885z      M110.184,314.885H71.261V189.231c5.672,9.608,13.116,18.27,22.241,25.398c0.084,0.066,0.169,0.129,0.257,0.192     c2.895,2.214,6.018,3.748,8.781,5.104c1.296,0.637,2.52,1.237,3.671,1.878c1.152,0.64,2.314,1.365,3.544,2.132     c0.139,0.086,0.289,0.178,0.429,0.265V314.885z M124.557,213.612c-1.95-0.716-4.036-2.017-6.243-3.394     c-1.348-0.841-2.742-1.711-4.252-2.548c-1.506-0.837-2.975-1.558-4.393-2.256c-2.341-1.149-4.553-2.236-6.195-3.517     c-0.068-0.055-0.14-0.108-0.211-0.159c-29.404-23.13-37.638-65.59-19.137-98.882C97.717,78.395,123.564,63.2,151.577,63.2     c12.999,0,25.918,3.361,37.36,9.719c18.804,10.448,32.468,28.456,37.487,49.406c0.04,0.164,0.084,0.328,0.134,0.489     c2.646,8.621,11.115,30.386,32.545,46.26c0.326,0.241,0.667,0.458,1.025,0.648c0.214,0.113,0.431,0.223,0.648,0.332     c0.12,0.06,0.241,0.116,0.373,0.191c2.299,1.275,4.536,2.75,6.65,4.384c0.174,0.139,0.352,0.271,0.536,0.395     c1.969,1.401,5.671,5.282,7.744,7.671c13.672,16.642,15.751,39.542,5.291,58.364c-9.183,16.526-26.647,26.793-45.577,26.793     c-8.782,0-17.51-2.27-25.24-6.567c-1.328-0.739-2.6-1.35-3.83-1.939c-1.907-0.915-3.553-1.705-4.663-2.625     c-0.383-0.317-0.793-0.597-1.228-0.838l-75.136-41.751C125.331,213.931,124.95,213.755,124.557,213.612z M275.462,271.316v29.487     h-38.924v-16.795C250.736,283.853,264.269,279.293,275.462,271.316z M165.277,314.885h-38.923v-81.889l38.923,21.628V314.885z      M220.369,302.635c-0.43,0.192-0.854,0.395-1.268,0.614c-0.177,0.094-0.349,0.195-0.525,0.294     c-0.374,0.212-0.741,0.434-1.099,0.669c-0.174,0.113-0.347,0.226-0.517,0.345c-0.385,0.267-0.758,0.549-1.123,0.841     c-0.117,0.094-0.239,0.181-0.355,0.277c-0.471,0.392-0.924,0.804-1.359,1.235c-0.098,0.097-0.188,0.202-0.284,0.3     c-0.333,0.344-0.656,0.697-0.966,1.063c-0.132,0.156-0.259,0.316-0.386,0.475c-0.267,0.335-0.524,0.678-0.771,1.03     c-0.115,0.164-0.232,0.327-0.343,0.494c-0.281,0.426-0.545,0.863-0.797,1.31c-0.053,0.094-0.112,0.183-0.163,0.278     c-0.294,0.544-0.563,1.105-0.81,1.677c-0.065,0.15-0.119,0.304-0.18,0.455c-0.12,0.296-0.246,0.59-0.352,0.892h-27.628v-51.276     l10.95,6.085c2.449,1.887,5.031,3.126,7.331,4.231c1.061,0.509,2.063,0.99,2.97,1.494c5.562,3.091,11.523,5.377,17.673,6.813     V302.635z M288.739,322.97v1.146c0,2.674-2.176,4.851-4.851,4.851h-12.412h-29.155h-13.406c-2.674,0-4.851-2.176-4.851-4.851     v-1.146v-1.147c0-2.674,2.176-4.851,4.851-4.851h54.973c2.674,0,4.851,2.176,4.851,4.851V322.97z M330.555,314.885h-26.823     c-0.106-0.304-0.233-0.597-0.352-0.895c-0.06-0.15-0.114-0.303-0.179-0.452c-0.247-0.572-0.514-1.133-0.81-1.678     c-0.052-0.095-0.11-0.184-0.163-0.278c-0.25-0.446-0.515-0.884-0.797-1.31c-0.111-0.168-0.227-0.33-0.343-0.494     c-0.247-0.351-0.503-0.695-0.771-1.03c-0.127-0.16-0.254-0.32-0.386-0.475c-0.309-0.365-0.632-0.718-0.965-1.062     c-0.096-0.099-0.186-0.204-0.285-0.302c-0.434-0.431-0.887-0.842-1.358-1.235c-0.115-0.097-0.238-0.184-0.357-0.278     c-0.365-0.291-0.737-0.572-1.121-0.84c-0.17-0.119-0.345-0.232-0.518-0.346c-0.359-0.234-0.725-0.456-1.098-0.668     c-0.176-0.099-0.348-0.201-0.527-0.295c-0.465-0.247-0.939-0.474-1.424-0.687c-0.087-0.038-0.17-0.083-0.258-0.12     c-0.128-0.054-0.261-0.098-0.391-0.15V256c0-0.292-0.017-0.581-0.047-0.864c1.407-1.991,2.719-4.065,3.918-6.224     c12.885-23.187,11.251-51.09-3.871-72.467v-40.559c0.097,0.318,0.18,0.638,0.282,0.956c5.589,17.364,18.273,31.714,34.828,39.408     c0.998,0.544,2.316,1.326,3.815,2.344V314.885z M385.646,314.885h-38.923V196.889h0c0.033,0.068,0.071,0.131,0.106,0.201     c0.043,0.149,0.087,0.295,0.133,0.437c0.746,2.322,1.68,4.62,2.778,6.831c1.599,3.526,5.079,8.063,5.773,8.953     c0.038,0.05,0.077,0.098,0.115,0.146c7.783,9.517,18.495,15.495,30.018,17.328V314.885z M368.204,203.293     c-1.439-1.858-3.268-4.53-3.742-5.618c-0.058-0.134-0.121-0.267-0.186-0.397c-0.762-1.522-1.409-3.1-1.915-4.679l-0.045-0.166     c-0.053-0.189-0.106-0.378-0.163-0.567c-0.114-0.379-0.258-0.749-0.427-1.108c-8.04-17.003-21.93-25.845-27.527-28.856     c-0.15-0.08-0.3-0.156-0.454-0.226c-12.57-5.779-22.208-16.635-26.439-29.787c-4.052-12.587-2.96-25.996,3.075-37.76     c6.035-11.764,16.29-20.475,28.877-24.526c23.277-7.487,48.982,2.963,59.896,24.329c0.035,0.073,0.071,0.149,0.108,0.222     c0.512,1.012,0.888,2.425,1.325,4.063c0.285,1.065,0.579,2.168,0.955,3.336c0.379,1.179,0.785,2.25,1.176,3.285     c0.599,1.582,1.117,2.948,1.293,4.069c0.696,4.411,4.841,7.419,9.246,6.724c4.411-0.696,7.421-4.836,6.724-9.246     c-0.437-2.766-1.343-5.16-2.142-7.271c-0.335-0.885-0.651-1.721-0.907-2.512c-0.251-0.784-0.481-1.643-0.724-2.554     c-0.563-2.109-1.198-4.489-2.377-6.905c-0.044-0.098-0.091-0.194-0.139-0.289c-3.129-6.201-7.192-11.716-11.948-16.45     c0.042-0.332,0.07-0.668,0.07-1.012V16.168h38.924v154.825c-0.276-1.12-0.578-2.238-0.935-3.346     c-0.191-0.592-0.369-1.282-0.556-2.014c-0.428-1.662-0.949-3.686-1.943-5.747l-10.367-32.211     c-1.369-4.25-5.926-6.585-10.173-5.219c-4.25,1.369-6.586,5.922-5.219,10.173l10.563,32.819c0.153,0.473,0.348,0.931,0.585,1.369     c0.31,0.576,0.595,1.678,0.895,2.846c0.229,0.886,0.486,1.891,0.825,2.942c2.669,8.288,1.949,17.12-2.025,24.867     c-3.973,7.748-10.727,13.482-19.015,16.149C390.553,217.744,376.759,213.692,368.204,203.293z M440.74,314.885h-38.924v-84.261     h-0.001c2.18-0.388,4.355-0.918,6.51-1.613c12.399-3.99,22.502-12.571,28.448-24.162c1.749-3.41,3.066-6.963,3.967-10.592     V314.885z M495.832,296.168c0,10.321-8.396,18.718-18.717,18.718h-20.207V16.168h20.207c10.321,0,18.717,8.397,18.717,18.718     V296.168z" fill="#f7f1e8" data-original="#000000" style="" class=""/>
			<path d="M151.56,116.034c-13.87,0-25.155,11.284-25.155,25.154s11.284,25.154,25.155,25.154     c13.869,0,25.154-11.284,25.154-25.154S165.43,116.034,151.56,116.034z M151.56,150.173c-4.955,0-8.986-4.03-8.986-8.985     s4.031-8.985,8.986-8.985s8.985,4.03,8.985,8.985S156.515,150.173,151.56,150.173z" fill="#f7f1e8" data-original="#000000" style="" class=""/>
		</g>
	</g>
</g>
<g xmlns="http://www.w3.org/2000/svg">
</g>
<g xmlns="http://www.w3.org/2000/svg">
</g>
<g xmlns="http://www.w3.org/2000/svg">
</g>
<g xmlns="http://www.w3.org/2000/svg">
</g>
<g xmlns="http://www.w3.org/2000/svg">
</g>
<g xmlns="http://www.w3.org/2000/svg">
</g>
<g xmlns="http://www.w3.org/2000/svg">
</g>
<g xmlns="http://www.w3.org/2000/svg">
</g>
<g xmlns="http://www.w3.org/2000/svg">
</g>
<g xmlns="http://www.w3.org/2000/svg">
</g>
<g xmlns="http://www.w3.org/2000/svg">
</g>
<g xmlns="http://www.w3.org/2000/svg">
</g>
<g xmlns="http://www.w3.org/2000/svg">
</g>
<g xmlns="http://www.w3.org/2000/svg">
</g>
<g xmlns="http://www.w3.org/2000/svg">
</g>
</g></svg>
