<?xml version="1.0"?>
<svg xmlns="http://www.w3.org/2000/svg" xmlns:xlink="http://www.w3.org/1999/xlink" xmlns:svgjs="http://svgjs.com/svgjs" version="1.1" width="512" height="512" x="0" y="0" viewBox="0 0 64 64" style="enable-background:new 0 0 512 512" xml:space="preserve"><g><g xmlns="http://www.w3.org/2000/svg" id="_05-cook" data-name="05-cook"><path d="m15.006 22a6.972 6.972 0 0 1 -4.945-2.045c-2.661-2.664-5.682-9.864-2.826-12.72s10.057.166 12.716 2.826a6.991 6.991 0 0 1 -4.945 11.939zm-3.531-3.459a4.994 4.994 0 0 0 7.062-7.063c-2.224-2.223-8.17-4.541-9.888-2.826s.6 7.665 2.826 9.889z" fill="#f7f1e8" data-original="#000000" style=""/><path d="m6.529 10.769-2.239-2.24a3 3 0 1 1 -1.458-5.7 2.985 2.985 0 0 1 .868-1.951 3.071 3.071 0 0 1 4.239 0 3.005 3.005 0 0 1 .59 3.412l2.24 2.239-1.415 1.414-2.825-2.825a1 1 0 0 1 0-1.414 1 1 0 0 0 0-1.412 1.023 1.023 0 0 0 -1.411 0 1 1 0 0 0 0 1.412 1 1 0 1 1 -1.418 1.414 1 1 0 1 0 0 1.411 1 1 0 0 1 1.414 0l2.829 2.825z" fill="#f7f1e8" data-original="#000000" style=""/><path d="m37 21a1 1 0 0 1 -1-1c0-5.537 4.579-7 7-7a1 1 0 0 1 1 1c0 5.537-4.579 7-7 7zm4.909-5.877a4.508 4.508 0 0 0 -3.818 3.754 4.509 4.509 0 0 0 3.818-3.754z" fill="#f7f1e8" data-original="#000000" style=""/><path d="m35 8c-2.421 0-7-1.463-7-7a1 1 0 0 1 1-1c2.421 0 7 1.463 7 7a1 1 0 0 1 -1 1zm-4.907-5.871a4.545 4.545 0 0 0 3.814 3.742 4.545 4.545 0 0 0 -3.814-3.742z" fill="#f7f1e8" data-original="#000000" style=""/><path d="m32 25h-8a1 1 0 0 1 -1-1v-1a5 5 0 0 1 10 0v1a1 1 0 0 1 -1 1zm-7-2h6a3 3 0 0 0 -6 0z" fill="#f7f1e8" data-original="#000000" style=""/><path d="m47.006 11a1 1 0 0 1 -.707-.293l-6.006-6.007a1 1 0 0 1 0-1.414l.751-.751a5.246 5.246 0 1 1 7.419 7.42l-.75.75a1 1 0 0 1 -.707.295zm-4.592-7 4.592 4.59.043-.043a3.246 3.246 0 0 0 0-4.591 3.325 3.325 0 0 0 -4.591 0z" fill="#f7f1e8" data-original="#000000" style=""/><path d="m24 9h2v2h-2z" fill="#f7f1e8" data-original="#000000" style=""/><path d="m27 9h2v2h-2z" fill="#f7f1e8" data-original="#000000" style=""/><path d="m30 9h2v2h-2z" fill="#f7f1e8" data-original="#000000" style=""/><path d="m24 13h2v2h-2z" fill="#f7f1e8" data-original="#000000" style=""/><path d="m27 13h2v2h-2z" fill="#f7f1e8" data-original="#000000" style=""/><path d="m30 13h2v2h-2z" fill="#f7f1e8" data-original="#000000" style=""/><path d="m54 28h-13a1 1 0 0 1 -.986-1.165c.874-5.24 5.7-6.46 7.835-6.743l10.819-18.668a2.862 2.862 0 0 1 4.058-.946 2.848 2.848 0 0 1 .884 3.809l-10.163 17.339c.782.71 1.553 2.212 1.553 5.374a1 1 0 0 1 -1 1zm-11.7-2h10.668c-.153-2.252-.81-2.945-1.059-3.006a1.071 1.071 0 0 1 -.724-.589 1.012 1.012 0 0 1 .018-.9l10.682-18.23a.847.847 0 0 0 -.265-1.131.863.863 0 0 0 -1.222.283l-11.073 19.105a1 1 0 0 1 -.781.5c-1.564.128-5.054.785-6.244 3.968z" fill="#f7f1e8" data-original="#000000" style=""/><path d="m63 64h-62a1 1 0 0 1 -1-1v-3a1 1 0 0 1 1-1h3v2h-2v1h60v-1h-2v-2h3a1 1 0 0 1 1 1v3a1 1 0 0 1 -1 1z" fill="#f7f1e8" data-original="#000000" style=""/><path d="m6 59h52v2h-52z" fill="#f7f1e8" data-original="#000000" style=""/><path d="m32 60a5.006 5.006 0 0 1 -5-5c0-2.486 3.225-7 5-7s5 4.514 5 7a5.006 5.006 0 0 1 -5 5zm0-9.948c-.849.537-3 3.339-3 4.948a3 3 0 0 0 6 0c0-1.609-2.151-4.411-3-4.948z" fill="#f7f1e8" data-original="#000000" style=""/><path d="m48 60c-3.131 0-5-1.495-5-4 0-2.71 5.347-8 7-8 2.44 0 3 6.082 3 7a5.006 5.006 0 0 1 -5 5zm1.869-9.886c-1.34.796-4.869 4.486-4.869 5.886 0 .495 0 2 3 2a3 3 0 0 0 3-3 12.1 12.1 0 0 0 -1.131-4.886zm.27-.131" fill="#f7f1e8" data-original="#000000" style=""/><path d="m16 60a5.006 5.006 0 0 1 -5-5c0-.918.56-7 3-7 1.653 0 7 5.29 7 8 0 2.505-1.869 4-5 4zm-1.869-9.886a12.1 12.1 0 0 0 -1.131 4.886 3 3 0 0 0 3 3c3 0 3-1.505 3-2 0-1.4-3.529-5.09-4.869-5.886z" fill="#f7f1e8" data-original="#000000" style=""/><path d="m51 58v-2a3 3 0 0 0 3-3v-25h-44v25a3 3 0 0 0 3 3v2a5.006 5.006 0 0 1 -5-5v-26a1 1 0 0 1 1-1h46a1 1 0 0 1 1 1v26a5.006 5.006 0 0 1 -5 5z" fill="#f7f1e8" data-original="#000000" style=""/><path d="m35 56h9v2h-9z" fill="#f7f1e8" data-original="#000000" style=""/><path d="m20 56h9v2h-9z" fill="#f7f1e8" data-original="#000000" style=""/><path d="m62 36h-7a1 1 0 0 1 -1-1v-4h2v3h6v-2h-4v-2h4a2 2 0 0 1 2 2v2a2 2 0 0 1 -2 2z" fill="#f7f1e8" data-original="#000000" style=""/><path d="m56.764 40h-1.764v-2h1.764a1 1 0 0 0 .894-.553l1.447-2.894 1.79.894-1.448 2.895a2.983 2.983 0 0 1 -2.683 1.658z" fill="#f7f1e8" data-original="#000000" style=""/><path d="m9 36h-7a2 2 0 0 1 -2-2v-2a2 2 0 0 1 2-2h4v2h-4v2h6v-3h2v4a1 1 0 0 1 -1 1z" fill="#f7f1e8" data-original="#000000" style=""/><path d="m9 40h-1.764a2.983 2.983 0 0 1 -2.683-1.658l-1.448-2.895 1.79-.894 1.447 2.894a1 1 0 0 0 .894.553h1.764z" fill="#f7f1e8" data-original="#000000" style=""/><path d="m9 30h3v2h-3z" fill="#f7f1e8" data-original="#000000" style=""/><path d="m14 30h2v2h-2z" fill="#f7f1e8" data-original="#000000" style=""/><path d="m18 30h37v2h-37z" fill="#f7f1e8" data-original="#000000" style=""/></g></g></svg>
