<?xml version="1.0"?>
<svg xmlns="http://www.w3.org/2000/svg" xmlns:xlink="http://www.w3.org/1999/xlink" xmlns:svgjs="http://svgjs.com/svgjs" version="1.1" width="512" height="512" x="0" y="0" viewBox="0 0 512 512" style="enable-background:new 0 0 512 512" xml:space="preserve" class=""><g><path xmlns="http://www.w3.org/2000/svg" d="M168,160h8a24.0275,24.0275,0,0,0,24-24v-8H184v8a8.00917,8.00917,0,0,1-8,8h-8Z" fill="#303030" data-original="#000000" style="" class=""/><circle xmlns="http://www.w3.org/2000/svg" cx="160" cy="112" r="8" fill="#303030" data-original="#000000" style="" class=""/><circle xmlns="http://www.w3.org/2000/svg" cx="208" cy="112" r="8" fill="#303030" data-original="#000000" style="" class=""/><path xmlns="http://www.w3.org/2000/svg" d="M428,360h-1.167a106.20638,106.20638,0,0,1-47.25537-11.15527,122.32637,122.32637,0,0,0-41.497-12.1377l6.80267-.75586a7.99983,7.99983,0,0,0,6.835-10.05615l-17.7251-64.99219a64.31772,64.31772,0,0,0-31.09863-39.3457L238.0332,186.17822l-4.71667-9.43335A63.7058,63.7058,0,0,0,248,136V48a32.036,32.036,0,0,0-32-32H144a24.0275,24.0275,0,0,0-24,24v96a63.7058,63.7058,0,0,0,14.68347,40.74487l-4.71667,9.43335L65.105,221.55713a64.31865,64.31865,0,0,0-31.09814,39.3457L16.28174,325.895a8.00059,8.00059,0,0,0,6.835,10.05615l.8833.09815V376a7.99948,7.99948,0,0,0,1.6001,4.7998l24,32a8.00024,8.00024,0,0,0,4.66455,3.00977L88,423.30627V488a7.99977,7.99977,0,0,0,8,8H428a68,68,0,0,0,0-136ZM200,448V424H328.04834a74.82494,74.82494,0,0,1-54.6958,24Zm4.89893-40H200v-8a7.99924,7.99924,0,0,0-4.42236-7.15527L104,347.05566V280h21.63037a102.91526,102.91526,0,0,0,55.21387,16h6.31152a102.91526,102.91526,0,0,0,55.21387-16H264v58.74622a48.10775,48.10775,0,0,0-31.87842,41.81823l-24.52344,24.52393Q206.1974,406.48877,204.89893,408ZM136,80h80a31.79288,31.79288,0,0,0,16-4.305V136a48,48,0,0,1-96,0Zm48,120a63.62885,63.62885,0,0,0,37.10431-11.90314l1.52917,3.05835L216,200a39.99963,39.99963,0,0,1-64-.00049l-6.63348-8.84442,1.52917-3.05823A63.62885,63.62885,0,0,0,184,200Zm80,64H248V209.8396l16,8.72729ZM139.2002,209.59961a55.99938,55.99938,0,0,0,89.5996.00049L232,205.33325v62.24988A86.94976,86.94976,0,0,1,187.15576,280h-6.31152A86.94976,86.94976,0,0,1,136,267.58313V205.333ZM120,264H104V218.56714L120,209.84Zm198.55664,1.11279,15.26416,55.96875L280,327.06177V227.29419l15.23291,8.30884A48.239,48.239,0,0,1,318.55664,265.11279ZM136,40a8.00917,8.00917,0,0,1,8-8h72a16,16,0,0,1,0,32H136ZM49.44336,265.11279A48.239,48.239,0,0,1,72.76709,235.603L88,227.29425V327.062l-53.8208-5.98047ZM40,373.3335V337.82715l48,5.33325V352a7.99924,7.99924,0,0,0,4.42236,7.15527L184,404.94434V448h-6.45947l-35.74561-14.29834-6.63965-13.2793a7.99931,7.99931,0,0,0-5.41992-4.23193L60.62451,400.83252Zm64,53.52832,18.54736,4.12158,6.29737,12.59424a7.99754,7.99754,0,0,0,4.18408,3.85009l40,16A8.00164,8.00164,0,0,0,176,464h20.41016a53.076,53.076,0,0,0,10.693,16H104ZM245.25488,480a37.04847,37.04847,0,0,1-30.63873-16h58.73639a90.845,90.845,0,0,0,77.50732-43.88379A8.00028,8.00028,0,0,0,344,408H227.31348l18.34326-18.34326A7.99877,7.99877,0,0,0,248,384a32.036,32.036,0,0,1,32-32h11.39111a31.84421,31.84421,0,0,1,18.35059,5.78467l44.98682,31.49072A49.86966,49.86966,0,0,1,326.13037,480ZM428,480H369.09015a65.80536,65.80536,0,0,0-5.18585-103.832l-34.37946-24.06568a106.26462,106.26462,0,0,1,42.89752,11.053A122.281,122.281,0,0,0,426.833,376H428a52,52,0,0,1,0,104Z" fill="#303030" data-original="#000000" style="" class=""/></g></svg>
