<svg xmlns="http://www.w3.org/2000/svg" width="661.056" height="498.268" viewBox="0 0 661.056 498.268">
  <path d="M14.39,112.808s6.955,14.358,31.527,8.773c7.307-1.66,22.09.782,31.2,2.61-.02.273-.034.548-.034.827a11.229,11.229,0,0,0,10.932,11.223,11.232,11.232,0,0,0,8.816,10.266,11.226,11.226,0,0,0-.727,14.4,11.182,11.182,0,0,0,.877,5.786,11.223,11.223,0,0,0,1.923,11.4,11.223,11.223,0,0,0,.718,12.1,11.315,11.315,0,0,0-.1,1.482A11.191,11.191,0,0,0,102.7,199.5a11.232,11.232,0,0,0,2.534,17.754c-.014.226-.023.453-.023.683a11.183,11.183,0,0,0,2.052,6.469,11.227,11.227,0,0,0,.809,12.911c-.011.205-.018.41-.018.618a11.219,11.219,0,0,0,4.978,9.329,11.23,11.23,0,0,0,6.589,12.945,11.234,11.234,0,0,0,8.338,14.953,11.231,11.231,0,0,0,11.23,11.175c.277,0,.551-.013.823-.033a11.233,11.233,0,0,0,10.624,9.581,11.222,11.222,0,0,0,2.527,14.747c-.029.328-.047.659-.047.994a11.187,11.187,0,0,0,3.013,7.65,11.228,11.228,0,0,0,2.086,12.864,11.233,11.233,0,0,0,4.048,11.2,11.225,11.225,0,0,0,1.428,16.329c-.029.326-.046.656-.046.989a11.185,11.185,0,0,0,2.457,7.008,11.233,11.233,0,0,0-1.364,11.845,11.23,11.23,0,0,0,8.943,14.19c1.5,13.183,2.226,24.541,1.461,29.168-1.348,8.149-4.826,24.772-11.161,36.528-12.521,23.237-7.551,29.446-7.551,29.446s-1.678,4.729,28.661,1.145c2.062-.243,5.468-10.579,2.516-20.175-1.806-5.867.144-16.665,1.862-21.725,5.949-17.515,8.553-31.364,12.836-49.39a28.107,28.107,0,0,1,2.719-5.984,11.216,11.216,0,0,0,6.829-.887,11.278,11.278,0,0,0,4.917,5.328q.049.876.13,1.752c.763,8.2,1.512,16.422,1.847,24.654.741,18.17,2.264,25.11-.323,37.985l-11.289,13.786c-9.993,22.44-2.683,18.312-2.35,19.409.535,1.766,8.5,1.847,14.314,1.613,2.344-.094,13.356-.656,15.323-.981,0,0,5.357-14.634,1.111-23.89-3.176-6.922,10.268-46.608,12.654-73.442.011-.122.025-.248.041-.377a11.254,11.254,0,0,0,7.637-6.562,11.24,11.24,0,0,0,4.728-12.1,11.273,11.273,0,0,0,4.431-4.3A11.227,11.227,0,0,0,272.9,361.5a11.227,11.227,0,0,0-.943-11.678,11.223,11.223,0,0,0,12.484-2.158,11.222,11.222,0,0,0,13.032,1.889,11.222,11.222,0,0,0,13.41-2.274,11.227,11.227,0,0,0,17.848-.789,11.228,11.228,0,0,0,17.475,1.912,11.231,11.231,0,0,0,17.3-1.635,11.229,11.229,0,0,0,17.8,1.09,11.223,11.223,0,0,0,16.669.324,11.228,11.228,0,0,0,16.658-2.623,11.23,11.23,0,0,0,18.669-1.6,11.23,11.23,0,0,0,14.082-3.411,11.224,11.224,0,0,0,14.7,2.36,11.231,11.231,0,0,0,14.4-2.337,11.232,11.232,0,0,0,13.775-5.5,11.256,11.256,0,0,0,7.66-.419,11.241,11.241,0,0,0,9.06,7.419,11.235,11.235,0,0,0,9.317,12.836c-.007.171-.013.342-.013.514a11.232,11.232,0,0,0,11.232,11.232c.358,0,.713-.019,1.063-.052A11.23,11.23,0,0,0,539.8,377.735c.084,0,.167,0,.251-.006a11.232,11.232,0,0,0,5.219,17.817c-.211,20.658-3.583,46.09-3.705,52.122-.195,9.69-9.768,13.884-12.757,22.07-2.045,5.6-4.53,12.481-5.368,18.727-.179,1.331,1.353,4.486,6.486,4.915,4.133.433,6.517-.007,9.674.1,5.064.167,13.067.1,12.965-3.029,2.528-6.4,4.194-10.784,1.942-19.335-2.427-9.216,3.982-18.741,6.662-27.814,4.479-15.163,8.123-31.007,12.992-46.071a11.231,11.231,0,0,0,10.647-9.255,11.229,11.229,0,0,0,11.227,11.05h.063q.628,4.08.886,8.2c.571,9.352,1.078,18.707,1.645,28.06.51,8.406,1.1,17.407-1.289,25.6-2.508,8.6-7.928,8.845-9.913,17.305-1.913,8.153-6.927,8.813-7.077,18.982-.02,1.343,2.611,2.261,7.744,2.69,4.132.433,4.7-.279,7.853-.175,5.065.166,12.971.836,12.869-2.3,2.528-6.4,5.112-9.122,2.849-18.7-.79-3.34,12.528-36.874,9.347-52.467-1.407-6.893,4.809-24.646,10.044-41.022a11.232,11.232,0,0,0,6.433-10.012,11.223,11.223,0,0,0,2.154-14.487,11.228,11.228,0,0,0-2.965-16.142q-.186-1.136-.4-2.29a11.232,11.232,0,0,0-4.2-17.6c-.047-.169-.092-.338-.139-.507a11.232,11.232,0,0,0,.117-20.553,11.23,11.23,0,0,0-1.367-18.212,11.221,11.221,0,0,0-.437-14.945,11.226,11.226,0,0,0,2.712-13.141,11.232,11.232,0,0,0,5.15-14.154,11.22,11.22,0,0,0,1.333-14.6,11.175,11.175,0,0,0,1.375-5.386c0-.087,0-.172-.007-.259a11.263,11.263,0,0,0,1.707-2.171,11.228,11.228,0,0,0,16.876-4.595,11.226,11.226,0,0,0,4.031-18.156,11.189,11.189,0,0,0,.859-4.312,11.446,11.446,0,0,0-.1-1.466,11.23,11.23,0,0,0-5.692-17.291,11.228,11.228,0,0,0,1.844-10.7,11.233,11.233,0,0,0-6.393-15.946,11.225,11.225,0,0,0-.707-12.743,11.233,11.233,0,0,0-9.021-14.284,11.21,11.21,0,0,0-11.141-12.628c-.078,0-.154,0-.231.006a11.229,11.229,0,0,0-11.227-11.1,11.406,11.406,0,0,0-1.392.089,11.23,11.23,0,0,0-13.888-10.859,11.236,11.236,0,0,0-15.629-7,11.226,11.226,0,0,0-17.1-2.166,11.233,11.233,0,0,0-16.737-4.927,11.221,11.221,0,0,0-15.434-.684,11.225,11.225,0,0,0-14.332,1.326,11.236,11.236,0,0,0-12.749-3.8A11.232,11.232,0,0,0,502.2,72.6a11.226,11.226,0,0,0-15.644,2.023,11.224,11.224,0,0,0-16.249-1.527,11.224,11.224,0,0,0-14.194-.5,11.426,11.426,0,0,0-1.512-.1,11.184,11.184,0,0,0-7.244,2.651,11.221,11.221,0,0,0-15.08.539,11.227,11.227,0,0,0-15.522-1.721,11.22,11.22,0,0,0-13.321-.309,11.221,11.221,0,0,0-13.832.729,11.224,11.224,0,0,0-14.937.856,11.229,11.229,0,0,0-15.041-.775,11.224,11.224,0,0,0-13.869.493,11.224,11.224,0,0,0-13.41.538,11.229,11.229,0,0,0-12.885,4.048A11.223,11.223,0,0,0,304.735,82.8a11.225,11.225,0,0,0-16.381-2.106,11.228,11.228,0,0,0-14.1-1.449,11.23,11.23,0,0,0-12.874.384,11.177,11.177,0,0,0-6.09-2.208,11.231,11.231,0,0,0-17.877-2.732A11.23,11.23,0,0,0,218.5,68.839a11.234,11.234,0,0,0-10.622-7.583c-.365,0-.726.019-1.082.053a11.235,11.235,0,0,0-10.9-8.516c-.182,0-.363.005-.543.014a11.233,11.233,0,0,0-10.514-7.279h-.032a11.357,11.357,0,0,0,.119-1.629c0-6.2-5.058-10.619-11.231-11.231-3.855-.383-3.9,2.194-4.5,2.294,0-.052-.624.052-.624,0,0-6.2-2.081-8.72-7.957-10.707-3.5-1.185-7.573-1.167-10.119.511,1.81-2.054,1.773-3.134,3.917-7.055,1.144-2.092,2.729-7.151,1.234-9.343-3.188-4.678-17.046,4.092-21.459,4.724-4.285.613-7.279,3.828-9.224,7.654a10.466,10.466,0,0,0-18.155-.814,10.464,10.464,0,0,0-12.949,2.293,10.454,10.454,0,0,0-9.112,1.64A10.468,10.468,0,0,0,71.2,28.617c-.241-.017-.484-.028-.729-.028a10.47,10.47,0,0,0-9.486,6.038c-.324-.03-.651-.047-.983-.047A10.469,10.469,0,0,0,49.535,45.049c0,.316.017.629.044.939q-.824.936-1.669,1.978c-20.19,24.913-25.6,21.992-33.859,39.3C7.224,101.57,12.692,108.926,14.39,112.808Zm567.722,265.7a11.3,11.3,0,0,0,1.875-1.033,11.185,11.185,0,0,0,2.342,4.673,11.191,11.191,0,0,0-1.348,3.68A11.177,11.177,0,0,0,582.112,378.506ZM148.71,26.663h0c.153.044.275.079,0,0C148.287,26.543,148.521,26.609,148.71,26.663Z" transform="translate(-8.075 -4.366)" fill="none" stroke="#d94a4a" stroke-miterlimit="10" stroke-width="5.268"/>
  <path d="M582.112,378.506a11.177,11.177,0,0,1,2.869,7.32,11.191,11.191,0,0,1,1.348-3.68,11.185,11.185,0,0,1-2.342-4.673A11.3,11.3,0,0,1,582.112,378.506Z" transform="translate(-8.075 -4.366)" fill="#f1f1f1"/>
  <path d="M163.6,78.306a259.8,259.8,0,0,0,19.577-40.258,11.67,11.67,0,0,0-4.17-3.767,255.4,255.4,0,0,1-19.868,41.348c-10.894,18.156-23.538,33.688-37.579,46.165a151.015,151.015,0,0,1-30.69,21.246,11.235,11.235,0,0,0,5.026,3.222,156.964,156.964,0,0,0,29.119-20.579C139.456,112.856,152.438,96.916,163.6,78.306Z" transform="translate(-8.075 -4.366)" fill="#d94a4a"/>
  <path d="M166.17,188.365a373.762,373.762,0,0,0,57.945-71.116,321.043,321.043,0,0,0,23.589-45.6,11.3,11.3,0,0,0-5.772.279,316.24,316.24,0,0,1-22.182,42.483,368.44,368.44,0,0,1-57.076,70.094A405.9,405.9,0,0,1,105.6,230.476a11.162,11.162,0,0,0,1.431,5.311q3.306-2.165,7.189-4.833A416.027,416.027,0,0,0,166.17,188.365Z" transform="translate(-8.075 -4.366)" fill="#d94a4a"/>
  <path d="M274.549,289.451c0,.211,0,.425.007.634l-5.2.077q-.066-4.47.078-9.348a100.869,100.869,0,0,0-6.567-8.959c-11.465-13.915-25.641-22.887-42.132-26.665-13.486-3.09-27.506-1.928-41.672,3.454-11.216,4.261-22.538,11.165-33.652,20.52A175.9,175.9,0,0,0,131,282.8a11.242,11.242,0,0,0,4.439,2.9,168.75,168.75,0,0,1,13.315-12.555c10.666-8.977,21.483-15.584,32.15-19.637,13.188-5.01,26.2-6.1,38.662-3.246,15.327,3.511,28.529,11.874,39.239,24.855,8.664,10.5,15.745,24.033,21.046,40.224a206.568,206.568,0,0,1,7.9,34.557,11.181,11.181,0,0,0,4.5.943c.306,0,.608-.017.908-.041a212.73,212.73,0,0,0-8.328-36.961A149.791,149.791,0,0,0,274.549,289.451Z" transform="translate(-8.075 -4.366)" fill="#d94a4a"/>
  <path d="M276.927,217.669c-4.471,24.59-6.984,45.772-7.5,63.145q2.684,4.107,5.118,8.637a267.037,267.037,0,0,1,1.451-29c-1.609-.118-2.486-.187-2.537-.191l.408-5.186c.052,0,.977.076,2.676.2q1.88-16.745,5.5-36.658c4.209-23.148,10.17-49.4,17.718-78.038,6.37-24.168,12.82-46,17.723-61.933a11.128,11.128,0,0,0-5.3-.452c-4.876,15.883-11.2,37.338-17.442,61.026C287.154,167.99,281.162,194.384,276.927,217.669Z" transform="translate(-8.075 -4.366)" fill="#d94a4a"/>
  <path d="M269.353,290.162l5.2-.077c0-.209,0-.423-.007-.634q-2.433-4.529-5.118-8.637Q269.287,285.689,269.353,290.162Z" transform="translate(-8.075 -4.366)" fill="#f1f1f1"/>
  <path d="M496.426,219.518c1.6-33.483,5.971-64.388,13-91.856,6.246-24.424,13.476-41.552,18.441-51.619q1.368-2.772,2.6-5.052a11.259,11.259,0,0,0-3.353,2.32,11.287,11.287,0,0,0-2.485-2.4c-.414.8-.837,1.637-1.271,2.513-5.08,10.251-12.476,27.681-18.857,52.5-7.153,27.822-11.611,59.108-13.249,92.988q-.945,19.515-.636,40.188l2.48-.145.312,5.193c-.895.054-1.8.1-2.7.155.507,22.778,2.137,46.515,4.879,71.043a11.155,11.155,0,0,0,2.33-.7,11.25,11.25,0,0,0,3.387,4.9C496.3,296.862,494.657,256.557,496.426,219.518Z" transform="translate(-8.075 -4.366)" fill="#d94a4a"/>
  <path d="M379.377,260.214q-.022,1.287-.037,2.568l-5.2-.056q.014-1.319.038-2.647c-9.56-.26-18.562-.57-26.769-.895-35.171-1.392-62.476-3.294-70.86-3.909q-.294,2.626-.547,5.176c8.226.606,35.716,2.527,71.177,3.931,4.251.169,8.717.333,13.361.488.25-1.858.412-2.879.418-2.916l5.137.827c0,.032-.13.818-.328,2.258,17.711.55,37.734.952,58.426.952,22.084,0,44.923-.46,66.515-1.686q-.059-2.61-.1-5.2C453.88,261.2,413.47,261.054,379.377,260.214Z" transform="translate(-8.075 -4.366)" fill="#d94a4a"/>
  <path d="M273.871,255.074l-.408,5.186c.051,0,.928.073,2.537.191q.25-2.547.547-5.176C274.848,255.15,273.923,255.078,273.871,255.074Z" transform="translate(-8.075 -4.366)" fill="#f1f1f1"/>
  <path d="M493.4,264.15l-.312-5.193-2.48.145q.039,2.594.1,5.2C491.606,264.254,492.507,264.2,493.4,264.15Z" transform="translate(-8.075 -4.366)" fill="#f1f1f1"/>
  <path d="M381.138,185.505a534.033,534.033,0,0,0-6.962,74.574q2.574.069,5.2.135a528.8,528.8,0,0,1,6.892-73.845c3.477-21.758,8.245-44.49,14.17-67.566,4.84-18.847,9.678-34.867,13.415-46.471a11.165,11.165,0,0,0-3.968-.725,11.379,11.379,0,0,0-1.287.073c-3.718,11.6-8.45,27.342-13.181,45.759C389.448,140.679,384.644,163.579,381.138,185.505Z" transform="translate(-8.075 -4.366)" fill="#d94a4a"/>
  <path d="M379.34,262.782q.014-1.28.037-2.568-2.628-.065-5.2-.135-.024,1.327-.038,2.647Z" transform="translate(-8.075 -4.366)" fill="#f1f1f1"/>
  <path d="M363.112,296.75c.579-15.287,2.006-27,2.653-31.711q-2.649-.082-5.227-.169c-.692,5.147-2.055,16.716-2.622,31.6A316.242,316.242,0,0,0,360.169,350a11.3,11.3,0,0,0,3.332-3.232,11.312,11.312,0,0,0,1.749,2.026A317.819,317.819,0,0,1,363.112,296.75Z" transform="translate(-8.075 -4.366)" fill="#d94a4a"/>
  <path d="M360.956,261.954c-.006.037-.168,1.058-.418,2.916q2.577.087,5.227.169c.2-1.44.323-2.226.328-2.258Z" transform="translate(-8.075 -4.366)" fill="#f1f1f1"/>
  <g>
    <path d="M50.376,74.622l5.936-2.337.125,2.091,3.705,9.414.791.345L64.6,82.691l.343-.791-3.705-9.414-1.3-1.63,6.012-2.366.125,2.091,9.866,25.068,1.32,1.578-6.013,2.366-.147-2.038L67.28,87.837l-.79-.344-3.667,1.444-.344.79L66.3,99.444l1.32,1.577-5.936,2.337-.11-2.053L51.71,76.236Z" transform="translate(-8.075 -4.366)" fill="#d94a4a"/>
    <path d="M80.217,96.064l-.124-2.091L70.226,68.905l-1.319-1.577,14.368-5.655,2.953,4.951-2.19.207-7.373,2.9-.344.791,2.337,5.937.79.344,2.42-.952,1.614-1.335,2.367,6.011-2.091.125-2.42.952-.359.753,2.441,6.2.79.343L91.583,86l1.744-1.341,1.258,5.75Z" transform="translate(-8.075 -4.366)" fill="#d94a4a"/>
    <path d="M115.459,82.194l-6.012,2.366-.03-1.3-2.785-3.97-.79-.344-4.727,1.861-.344.79.667,4.8.863.972-6.012,2.366.187-2.3-4-27.465-1.185-1.455,6.542-2.575.125,1.872,15.8,22.822Zm-15.266-6.612,2.8-1.1.29-.594-5.469-8.459,1.764,9.917Z" transform="translate(-8.075 -4.366)" fill="#d94a4a"/>
    <path d="M105.93,52.757l12.552-4.941,3.343,1.392,9.45,24.01-1.482,3.335-12.554,4.94-.2-2.062-9.867-25.068Zm14.512,21.231.791.344,3.667-1.444.345-.79-7.1-18.036-.791-.345-3.667,1.444-.344.791Z" transform="translate(-8.075 -4.366)" fill="#d94a4a"/>
  </g>
  <g>
    <path d="M152.477,165.062l-5.173,4.694L146.4,167.7,126.57,145.852l-1.993-1.136,4.646-4.216,19.908,9.753-12.38-13.641-1.993-1.136L140,130.722l.939,2.092,19.825,21.845,1.963,1.1-4.712,4.276-19.878-9.72,12.38,13.641Z" transform="translate(-8.075 -4.366)" fill="#d94a4a"/>
    <path d="M165.291,153.432l-.938-2.093L144.527,129.5l-1.963-1.1,12.52-11.364,4.945,3.925-2.162,1.061-6.425,5.831-.046.943,4.7,5.173.942.045,2.109-1.914,1.136-1.991,4.754,5.238-2.093.938-2.108,1.913-.076.91,4.905,5.4.942.046,6.425-5.831,1.265-2.049,3.518,5.4Z" transform="translate(-8.075 -4.366)" fill="#d94a4a"/>
    <path d="M178.692,137.483,159.7,116.562l.254-3.958,8.336-7.565,3.93.159,3.828,4.217,1.962,1.1-5.239,4.754-.875-2.089-1.5-1.648-.909-.075-3.262,2.96-.046.943,14.264,15.717.943.045,3.261-2.96.013-.913-1.465-1.615-2-1.073,5.239-4.754.908,2.059,3.858,4.251-.192,3.959-8.336,7.566Z" transform="translate(-8.075 -4.366)" fill="#d94a4a"/>
    <path d="M206.24,116.266l-.624-1.416-12.1-5.72,1.211,5.571,4.515,4.974,1.992,1.136-5.172,4.695-.938-2.093-19.8-21.811-1.993-1.136,5.172-4.695.939,2.093,8.134,8.962L184.171,91.95l-.987-.425,5.865-5.323.243,3.445,2.7,12.51,16.934,8.066,3.31.6Z" transform="translate(-8.075 -4.366)" fill="#d94a4a"/>
  </g>
  <g>
    <path d="M178.355,287.969l-4.275-1.732.927-1.128.544-1.343-.252-.54-2.607-1.056-.557.213-1.741,4.3.241.566,4.732,1.916,1.008,2.379-3.451,8.523-2.379,1.009-6.8-2.754-1.09-2.413,1.393-3.441.147-1.443,4.248,1.72-.954,1.116-.544,1.345.252.539L169.8,296.8l.556-.212,1.742-4.3-.242-.566-4.677-1.894L166.1,287.39l3.461-8.551,2.451-.948,6.8,2.754L179.836,283l-1.415,3.5Z" transform="translate(-8.075 -4.366)" fill="#d94a4a"/>
    <path d="M182.954,282.319l4.222,1.709-.963,1.144-2.711,6.694.24.567,2.608,1.055.567-.24,2.71-6.694.13-1.482,4.275,1.732-.964,1.143-7.216,17.826-.092,1.465-4.275-1.73.926-1.128,2.8-6.91-.24-.567-2.609-1.055-.565.24L179,303l-.093,1.465-4.222-1.709.953-1.117,7.217-17.826Z" transform="translate(-8.075 -4.366)" fill="#d94a4a"/>
    <path d="M205.883,293.541l-6.912,17.073-2.38,1.009-6.8-2.754-1.037-2.39,6.912-17.075,2.4-.969,6.8,2.753Zm-4.563.218-2.582-1.045-.555.214-5.192,12.825.25.539,2.582,1.045.555-.213L201.57,294.3Z" transform="translate(-8.075 -4.366)" fill="#d94a4a"/>
    <path d="M218.981,298.437l-7.053,17.422-2.406,1-6.83-2.765-.981-2.369,7.054-17.422.1-1.492,4.222,1.709-.963,1.143-6.2,15.326.251.539,2.635,1.067.555-.212,6.2-15.326.1-1.493,4.275,1.731Z" transform="translate(-8.075 -4.366)" fill="#d94a4a"/>
    <path d="M223.93,322.689l-10.219-4.136.955-1.116,7.216-17.827.1-1.491,4.223,1.709-.937,1.153-6.205,15.327.252.54,5.216,2.111,1.551.189Z" transform="translate(-8.075 -4.366)" fill="#d94a4a"/>
    <path d="M234.241,303.08l8.927,3.614,1.047,2.364L237.3,326.131l-2.407,1-8.927-3.613.91-1.166,7.217-17.827Zm-2.924,18.125.24.566,2.608,1.056.566-.239,5.192-12.826-.239-.567-2.609-1.055-.566.24Z" transform="translate(-8.075 -4.366)" fill="#d94a4a"/>
    <path d="M238.925,328.76l.964-1.143,7.216-17.827.092-1.465,10.218,4.137-.906,4.015-1.235-.97-5.242-2.122-.567.24-1.708,4.221.24.566,1.72.7,1.492.1-1.73,4.274-1.144-.964-1.721-.7-.555.214-1.786,4.409.241.567,5.242,2.122,1.561.163-2.174,3.594Z" transform="translate(-8.075 -4.366)" fill="#d94a4a"/>
    <path d="M251.183,333.722l.953-1.117,7.217-17.826.1-1.492,8.927,3.614,1.046,2.364-3.766,9.3-2.418,1.024-1.1,6.97-.019,1.59-4.221-1.709.807-1.144,1.04-6.744-.138-.432-1.1-.447-.566.24-2.448,6.05-.093,1.465Zm11.335-8.367.557-.212,2.068-5.11-.252-.54-2.635-1.066-.554.214-2.068,5.108.249.54Z" transform="translate(-8.075 -4.366)" fill="#d94a4a"/>
  </g>
  <g>
    <path d="M212.468,231.536l-28.995-19.722-.844-4.848,7.858-11.552,4.787-.951,5.844,3.975,2.69.761-4.938,7.26-1.665-2.267-2.282-1.553-1.119.173-3.075,4.521.219,1.151,21.78,14.814,1.15-.219,3.075-4.521-.25-1.1-2.237-1.522-2.72-.714,4.938-7.26,1.695,2.221,5.891,4.007.919,4.833-7.857,11.551Z" transform="translate(-8.075 -4.366)" fill="#d94a4a"/>
    <path d="M195.24,188.427l4.876-7.169,1.74,2.252,11.369,7.733,1.151-.219,3.013-4.428-.22-1.152L205.8,177.711l-2.7-.837,4.938-7.26,1.74,2.253,30.274,20.591,2.688.759-4.938,7.261-1.725-2.176-11.736-7.982-1.15.219-3.013,4.429.219,1.151,11.735,7.982,2.689.76-4.876,7.168-1.695-2.22-30.273-20.591Z" transform="translate(-8.075 -4.366)" fill="#d94a4a"/>
    <path d="M224.994,149.492l29.589,20.125.889,4.878-7.889,11.6-4.8.875-29.589-20.125-2.734-.791,4.876-7.169,1.741,2.252,26.026,17.7,1.106-.25,3.043-4.474-.174-1.12-26.026-17.7-2.734-.792,4.938-7.26Z" transform="translate(-8.075 -4.366)" fill="#d94a4a"/>
    <path d="M257.689,165.049l-29-19.721-.843-4.848,7.857-11.552,4.788-.951,5.844,3.975,2.689.76-4.938,7.261-1.664-2.267-2.282-1.553-1.12.173-3.075,4.521.219,1.151,21.78,14.814,1.151-.22,3.074-4.52-.249-1.1-2.237-1.522-2.721-.714,4.938-7.26,1.7,2.22,5.89,4.007.92,4.833-7.858,11.552Z" transform="translate(-8.075 -4.366)" fill="#d94a4a"/>
    <path d="M284.76,131.434l-1.165-1.527-16.265-3.383,3.081,6.37,6.894,4.689,2.734.792-4.876,7.168-1.74-2.251L243.2,122.732l-2.734-.792,4.876-7.169,1.741,2.253,12.42,8.447-8.436-16.957-1.315-.226,5.528-8.128,1.295,4.086,6.9,14.309,22.776,4.806,4.169-.237Z" transform="translate(-8.075 -4.366)" fill="#d94a4a"/>
  </g>
  <g>
    <path d="M350.955,231.119l-2.964-1.857-44.535-10.809-3.553.276,5.413-22.3,5.208-3.288,23.242,5.641,3.256,5.342,16.816.17,3.753-.512-2.56,10.546-2.979-1.506-16.262-.1-.969.475-.668,2.754.763,1.253,15.113,3.668,3.486-.292Zm-23.668-23.811-.7-1.236-12.763-3.1-1.185.779-1.6,6.583.7,1.236,12.763,3.1,1.185-.779Z" transform="translate(-8.075 -4.366)" fill="#d94a4a"/>
    <path d="M361.374,188.192l-2.56,10.546-2.963-1.857-44.536-10.809-3.553.276,2.56-10.546,3.031,1.874,44.535,10.808Z" transform="translate(-8.075 -4.366)" fill="#d94a4a"/>
    <path d="M311.594,170.562l5.412-22.3,5.209-3.288,16.658,4.043,3.173,5.393,5.359-3.323,17.464,4.239,3.189,5.326-5.412,22.3-3.032-1.874-44.535-10.808Zm22.2-4.712,1.185-.78,1.581-6.516-.7-1.236-10.478-2.543-1.252.763-1.581,6.516.763,1.252Zm11.3-5.225-1.581,6.516.762,1.252,11.083,2.69,1.252-.763,1.582-6.516-.764-1.252-11.083-2.69Z" transform="translate(-8.075 -4.366)" fill="#d94a4a"/>
    <path d="M342.243,114.622,339.65,125.3l-2.98-1.791-3.358-.815-1.185.78-1.582,6.515.7,1.236,10.747,2.608,1.252-.762,2.869-11.823,5.259-3.2,21.294,5.168,3.2,5.259-4.125,16.994-5.308,3.406-8.6-2.086-3.452.157,2.575-10.613,2.964,1.857,3.359.816,1.184-.779,1.582-6.516-.7-1.236-10.747-2.609-1.252.763-2.837,11.688-5.376,3.39-21.36-5.184-3.09-5.444,4.125-17,5.192-3.22,8.733,2.119Z" transform="translate(-8.075 -4.366)" fill="#d94a4a"/>
  </g>
  <g>
    <path d="M285.483,274.375l7.222,1.752,1.066,1.687-1.31,5.395-1.747,1.027,1.077,1.735-1.373,5.656-1.725,1.033-7.222-1.754.607-.98,3.5-14.423Zm3.219,10.847-2.111-.513-.405.247-.871,3.59.247.405,2.11.513.406-.247.871-3.59Zm-1.692-3.66.252.385,2.11.512.4-.226.824-3.393-.247-.4-2.11-.513-.406.248Z" transform="translate(-8.075 -4.366)" fill="#d94a4a"/>
    <path d="M291.954,293.451l.6-.959,3.5-14.423-.09-1.15,7.222,1.753,1.065,1.686-1.827,7.527-1.729,1.054-.055,5.446.165,1.215-3.415-.829.487-.964.035-5.267-.154-.313-.892-.217-.406.247-1.188,4.894.1,1.129Zm7.711-7.664.4-.225,1-4.134-.253-.384-2.131-.518-.4.226-1,4.134.253.384Z" transform="translate(-8.075 -4.366)" fill="#d94a4a"/>
    <path d="M302.437,296l.606-.981,3.5-14.422-.095-1.129,8.266,2.006-.239,3.167-1.051-.6-4.242-1.029-.407.247-.828,3.415.248.4,1.391.338,1.151-.089-.84,3.459-.981-.607-1.392-.338-.4.226-.866,3.567.248.406,4.243,1.029,1.209-.052L310.7,298Z" transform="translate(-8.075 -4.366)" fill="#d94a4a"/>
    <path d="M322.709,300.916l-3.459-.84.4-.6,0-2.67-.248-.407-2.719-.66-.405.248-1.222,2.376.081.71-3.459-.84.813-.976,6.9-13.643-.072-1.031,3.764.914-.537.883-.117,15.289Zm-4.783-7.818,1.611.39.318-.176.218-5.544-2.35,5.027Z" transform="translate(-8.075 -4.366)" fill="#d94a4a"/>
    <path d="M334.872,291.89l-3.459-.84.579-.964.264-1.088-.252-.385L329.9,288.1l-.4.225-.845,3.481.248.405,3.828.93,1.038,1.7-1.674,6.895-1.7,1.038-5.5-1.336-1.1-1.718.676-2.786-.051-1.118,3.437.835-.6.959-.264,1.088.254.384,2.109.512.4-.226.845-3.48-.247-.406-3.785-.918-1.1-1.741,1.679-6.917,1.763-1,5.5,1.335,1.043,1.682-.686,2.828Z" transform="translate(-8.075 -4.366)" fill="#d94a4a"/>
    <path d="M346.286,292.4l-1.1-.59-2.068-.5-.378.231-3.01,12.4.1,1.128-3.458-.839.6-.959,3.009-12.4-.253-.384-2.11-.511-1.2.03,1.249-2.968,8.854,2.149Z" transform="translate(-8.075 -4.366)" fill="#d94a4a"/>
  </g>
  <g>
    <path d="M467.08,206.749l-7.059,29.081-3.375-2.115L405.908,221.4l-4.049.314,2.917-12.015,3.472,2.058,43.621,10.587,1.35-.888,3.6-14.847-.105-4.238Z" transform="translate(-8.075 -4.366)" fill="#d94a4a"/>
    <path d="M422.281,158.274l48.6,11.794,3.65,5.993-4.7,19.361-6.009,3.727-48.6-11.794-3.557-6.05,4.7-19.361Zm2.395,12.169-1.782,7.347.792,1.408,36.5,8.86,1.351-.888,1.783-7.347-.793-1.407-36.5-8.86Z" transform="translate(-8.075 -4.366)" fill="#d94a4a"/>
    <path d="M480.213,152.64,477.3,164.655l-3.376-2.116-50.738-12.314-4.048.314,2.916-12.016,3.453,2.135,50.738,12.315Z" transform="translate(-8.075 -4.366)" fill="#d94a4a"/>
    <path d="M484.577,134.655l-2.916,12.016-3.376-2.116L427.547,132.24l-4.048.314,2.619-10.79,38.852-5.482-31.683-7.689-4.049.314,2.954-12.168,3.454,2.135,50.738,12.314,3.97-.333L487.7,121.8l-38.774,5.5,31.683,7.689Z" transform="translate(-8.075 -4.366)" fill="#d94a4a"/>
  </g>
  <g>
    <path d="M375.742,283.263H391.96l.982,5.974-2.22-.639H382.4l-.64.639v6.871l.64.641h2.731l2.049-.683v6.786l-2.049-.683H382.4l-.64.6v10.84l.683,2.091h-6.7l.683-2.091v-28.3Z" transform="translate(-8.075 -4.366)" fill="#d94a4a"/>
    <path d="M411.425,315.7H395.207l.682-2.049v-28.3l-.682-2.091h6.7l-.64,2.091v24.327l.64.6h8.28l2.219-.6Z" transform="translate(-8.075 -4.366)" fill="#d94a4a"/>
    <path d="M434.985,315.7H428.2l.47-1.28-1.195-4.951-.64-.64H421.5l-.641.64-1.194,4.951.469,1.28h-6.785l1.066-2.177,6.658-28.38-.6-1.878h7.383l-.6,1.878,6.658,28.38Zm-12.377-12.334h3.159l.512-.469-2.091-10.372L422.1,302.9Z" transform="translate(-8.075 -4.366)" fill="#d94a4a"/>
    <path d="M443.7,315.7h-6.7l.684-2.049v-28.3l-.684-2.091h6.019l7.852,19.759V285.354l-.682-2.091h6.785l-.683,2.091v28.3l.683,2.049h-6.1l-7.852-19.718v17.669Z" transform="translate(-8.075 -4.366)" fill="#d94a4a"/>
    <path d="M473.489,315.7l.469-1.408-4.907-11.865-2.732,4.737v6.445L467,315.7h-6.7l.683-2.091V285.354l-.683-2.091H467l-.683,2.091v11.608l7.17-12.761-.427-.938h7.6l-2.049,2.6-6.145,10.627,6.828,16.645,1.964,2.56Z" transform="translate(-8.075 -4.366)" fill="#d94a4a"/>
  </g>
  <g>
    <path d="M603.578,244.389,594.547,281.6l-4.32-2.707L525.3,263.135l-5.18.4,3.731-15.375L528.3,250.8l55.817,13.548,1.727-1.137,4.61-19-.134-5.425Z" transform="translate(-8.075 -4.366)" fill="#d94a4a"/>
    <path d="M605.385,236.948l-4.419-2.731-64.925-15.759-5.08.427,9.031-37.212,14.256,1.075-2.705,4.736-4.635,19.1,1.113,1.825,15.375,3.732,1.825-1.113,1.521-6.266-.4-5.179,15.57,3.778-2.731,4.419-1.522,6.267,1.015,1.8,16.059,3.9,1.826-1.112,4.634-19.095-.232-5.449,13.457,5.651Z" transform="translate(-8.075 -4.366)" fill="#d94a4a"/>
    <path d="M610.242,190.016l-62.183-15.092-4.55-7.741,6.012-24.776,7.57-4.7,12.534,3.042,5.08-.426L570.926,155.9l-4.3-2.8-4.9-1.189-1.8,1.015-2.329,9.6,1.137,1.727,46.71,11.337,1.8-1.015,2.329-9.6-1.136-1.728-13.415-3.256-.855,3.526-13.2-.3,4.895-20.172,4.516,2.755,28.887,7.011,4.672,7.667-6.012,24.775Z" transform="translate(-8.075 -4.366)" fill="#d94a4a"/>
  </g>
</svg>
