<svg xmlns="http://www.w3.org/2000/svg" width="506.722" height="486" viewBox="0 0 506.722 486">
  <g>
    <path d="M79.577,34.167l.01-.014C79.785,34.263,79.968,34.372,79.577,34.167Z" transform="translate(-4.665 -7)" fill="#f1f1f1"/>
    <path d="M4.665,63.842A45.819,45.819,0,0,1,22.85,50.434c.842-3.417-6.806-14.212-3.789-18,1.5-1.886,4.338-4.689,14.578-.185,0,0-11.9-14.02,5.829-12.863a13.2,13.2,0,0,1,3.6.339,27.014,27.014,0,0,1,5.371,1.149h0S38.588,2.708,59.7,12.211a6.926,6.926,0,0,1,.978.449q.54.254,1.047.5c.154-4.916,1.919-9.071,8.954-3.5a16.473,16.473,0,0,1,4.089,4.546c1.368-2.374,3.65-5.259,7.758-2.675,1.794,1.129,6.109,8.619-2.937,22.623-.212-.118-.44-.238-.01.014,22.558,13.226,35.506,22.814,46.23,44.414,6.187,12.462,20.476,39.676,30.513,53.467,13.638,18.74,38.893,33.521,62.144,37.027,28.783,4.34,28.478-2.191,120.244.9,8.286.279,20.624,1.552,28.43-.9,9.623-3.023,19.042-19.858,28.124-24.236,5.4-2.6,5.866-2.454,10.631-6.1,3.382-2.59,5.567-2.638,8.2-5.881,2.9-3.571,6.539-5.517,10.438-7.764,3.367-1.94,5.888-4.777,8.831-7.269,5.876-4.977,12.317-8.688,19.058-12.286,6.134-3.275,12.06-7,18.5-9.675,4.157-1.73,8.98-3.93,13.825-5.457,9.866-3.109,19.825-3.427,24.451,8.7,5.494,14.4-10.914,10.462-5.2,12.033,0,0,2.83,1.061,5.306,6.367s5.064,20.419-6.962,25.724,6.854,7.11,8.268,17.014-6.013,22.637-13.44,26.882c0,0,6.487-.311,10.754,2.089s1.867,2.4-.267,4.8-8.8,6.667-8.8,11.468-11.093,11.792-12.96,19.259-2.667,6.4-3.467,8.534-.8,4.266-1.6,8-3.588,3.7-4,5.067.274,3.431,0,5.078a101.53,101.53,0,0,1-4.8,13.318c-1.629,3.491-6.664,4.389-6.9,7.648s-12.817,12.755-13.908,18.572-3.1,7.583-5,16.8c-1.832,8.9-12.177,16.846-16.8,30.239-2.962,8.592-15.579,8.715-40.135,34.5a110.8,110.8,0,0,1-27.446,21.137h0s-25.209,16.186-43.06,19.731l-4.086,14.958-6.259,18.96s-5.661,10.557-6.543,17.027c2.062,1.3,5.169,3.224,6.232,3.754a43.77,43.77,0,0,0,9.131,2.817c1.643.089,5.293-.372,6.481.722a2.923,2.923,0,0,1,.7.919c1.678.955,4.248,2.6,5.009,4.083a27.465,27.465,0,0,0-5.658-.85,4.052,4.052,0,0,1-3.421,2.15c-2.373,0-8.214.01-9.858-.626s-5.042-1.57-6.849-3.46-3.463-.853-4.5-.88c-1.876-.048-1.573.25-3.437.787-1.154.332-3.53,3.411-7.181,3.689s-5.324.972-7.433,1.22c-2.868.336-9.057,1.462-9.6,1.645s-9.848-1.089-11.307-.083-2.45,1.926-4.185,1.381c-1.565-.492-2.607-.689-2.864-1.393-2.074.293-5.963,2.484-5.963,2.484.884-2.177,5.306-4.978,5.979-5.4a1.637,1.637,0,0,1,1.016-1.077c1.551-.55,3.831-1.831,4.287-1.831s6.631-1,7.362-1.006,5.3.168,6.3.166,3.194-.186,3.376-.825,1.275-2.284-1.829-2.462-6.275.032-7.136,0c-1.426-.047-4.251-.993-5.255-.992s-3.925-.36-4.564-.085-2.269,1.534-4.119.45a21.043,21.043,0,0,1-2.844-1.592c-2.09.331-5.892,2.473-5.892,2.473.708-1.743,3.685-3.887,5.189-4.887.34-.927,1.507-.846,2.914-1.367a17,17,0,0,1,6.926-.71c2.788.165,10.028.688,12.218.685s3.924-.1,5.2-.1,9.571-2.979,10.3-3.984a14.432,14.432,0,0,1,4.659-8.474c3.595-3.177,5.125-12.494,5.752-16.806s3.462-7.484,4.352-12.424a52.434,52.434,0,0,1,3.221-9.224c-8.779-1.7-18.1-5.709-24.864-9.306-11.086,5.517-23.611,10.145-34.437,10.145q-1.9,0-3.791-.087l-6.789,19.6-8.4,19.3s-6.463,14.346-6.894,21.645c1.683,2.5,4.084,5.883,5.182,6.525,1.783,1.043,8.2,3.623,10.034,3.846s5.967-.02,7.218,1.3a3.28,3.28,0,0,1,.718,1.085c1.811,1.2,4.572,3.233,5.315,4.957a30.826,30.826,0,0,0-6.285-1.378,4.558,4.558,0,0,1-4,2.155c-2.663-.175-9.218-.6-11.015-1.442s-5.54-2.139-7.426-4.395a11.546,11.546,0,0,0-3.231-2.92c-1.748-1.349-1.748-1.349-3.88-.887-1.319.287-4.217,3.563-8.334,3.6s-6.048.691-8.432.81c-3.243.163-10.273.962-10.9,1.127s-8.533,1.5-10.246,2.517a5.965,5.965,0,0,1-5.462.156c-1.719-.669-2.873-.969-3.109-1.778-2.349.173-6.878,2.34-6.878,2.34,1.154-2.373,6.315-5.181,7.115-5.606a1.839,1.839,0,0,1,1.22-1.133c1.782-.5,4.436-1.766,4.948-1.733s4.723-1.439,5.542-1.385,5.83-1.057,6.956-.984,4.725.1,4.977-.6,1.6-2.466-1.867-2.9-7.7-.2-8.555.262-2.375.153-3.5.079-4.377-.7-5.114-.438-2.461,2.616-4.3,1.055a30.218,30.218,0,0,1-3.487-2.853c-2.384.244-6.738,2.327-6.738,2.327.925-1.9,4.426-4.084,6.189-5.094.451-1.015,1.754-.836,3.372-1.315,1.993-.589,5.187-2.232,8.219-1.416s9.033.284,11.491.445,4.411.186,5.845.28,10.963-2.625,11.856-3.7a16.234,16.234,0,0,1,5.864-9.16c4.272-3.3,6.688-13.634,7.715-18.426s4.445-8.138,5.814-13.614c.962-3.849,4.122-9.572,6.179-13.941-20.051-4.331-37.258-16.632-44.5-37.068q-.639-1.8-1.226-3.477c-21.606-7.536-51.758-31.309-56.71-35.363-5.943-4.866-23.654-21.243-39.622-53.177S56.666,213.208,55.169,176.783s-3.124-60.589-3.124-60.589-.317-4.209-.433-7.7c-.038-1.155-.5-4.126-1.147-7.7a3.7,3.7,0,0,1-2.367,1.676c-4.4.638-7.049-.7-9.477-1.939-2.9-1.478-3.474-2.087-6.632-5.57-3.253-3.588-3.881-6.37-5.6-12.4-1.5-5.242-.009-13.126.55-15.778C17.793,66.964,4.665,63.842,4.665,63.842Z" transform="translate(-4.665 -7)" fill="#d94a4a"/>
    <path d="M250.637,334.706c-26.263,0-48.982-6.6-65.7-19.089a70.015,70.015,0,0,1-18.319-20.106c-4.183-7.268-8.167-18.629-7.638-27.625a38.7,38.7,0,0,1,.791-5.828c2.168-10.095,7.794-19.592,16.271-27.464a72.946,72.946,0,0,1,27.65-15.82c10.748-3.312,23.415-4.923,38.725-4.923,5.631,0,11.7.206,19.088.647,9.2.55,19.157,1.47,31.336,2.9,7.777.912,15.674,1.9,23.31,2.852l1.955.245c7.272.908,14.791,1.847,22.276,2.614s14.938,1.373,22.115,1.794c7.955.466,16.106.693,24.92.693,4.647,0,9.551-.066,14.576-.2.847-.022,1.694-.04,2.542-.059,2.37-.051,4.82-.1,7.2-.241.8-.046,1.609-.14,2.462-.238a30.735,30.735,0,0,1,4.475-.29,4.043,4.043,0,0,1,3.773,2.03c1.3,2.451-.585,5.416-2.1,7.8-.285.448-.554.872-.683,1.118-6,11.427-14.584,22.835-26.257,34.879a192.322,192.322,0,0,1-21.2,18.773c-4.053,3.1-8.474,6.188-13.139,9.177C332.81,315.169,310.64,325.3,289.3,330.215A174.979,174.979,0,0,1,250.637,334.706Zm-8.221-116.145c-14.833,0-27.046,1.543-37.337,4.715a68.146,68.146,0,0,0-25.833,14.769c-7.764,7.211-12.906,15.857-14.87,25a33.947,33.947,0,0,0-.695,5.115c-.472,8.026,3.185,18.339,7.018,25a66.1,66.1,0,0,0,17.056,18.681C203.654,323.719,225.4,330,250.637,330a170.148,170.148,0,0,0,37.605-4.372c20.8-4.793,42.5-14.722,68.289-31.247,4.555-2.919,8.868-5.931,12.818-8.953a187.544,187.544,0,0,0,20.676-18.309c11.355-11.715,19.685-22.768,25.467-33.789.22-.419.525-.9.879-1.456a27.006,27.006,0,0,0,1.5-2.6c-1.012.019-2.046.138-3.135.264-.882.1-1.794.207-2.733.262-2.464.141-4.958.2-7.369.248q-1.262.027-2.521.058c-5.066.132-10.012.2-14.7.2-8.907,0-17.148-.23-25.2-.7-7.245-.425-14.755-1.034-22.32-1.81-7.536-.773-15.082-1.715-22.378-2.626l-1.956-.245c-7.628-.952-15.515-1.938-23.274-2.847-12.088-1.416-21.96-2.33-31.069-2.874C253.928,218.764,247.951,218.561,242.416,218.561Z" transform="translate(-4.665 -7)" fill="#f7f1e8"/>
    <path d="M176.636,238.811c-17.94-5.914-32.389-15.628-41.351-22.736a121.748,121.748,0,0,1-15.375-14.221l3.566-3.078a119.762,119.762,0,0,0,14.832,13.684c8.644,6.844,22.567,16.195,39.8,21.878Z" transform="translate(-4.665 -7)" fill="#f7f1e8"/>
    <path d="M79.577,34.167l.01-.014C79.375,34.035,79.147,33.915,79.577,34.167Z" transform="translate(-4.665 -7)" fill="none"/>
    <path d="M79.587,34.153l-.01.014C79.968,34.372,79.785,34.263,79.587,34.153Z" transform="translate(-4.665 -7)" fill="#f1f1f1"/>
    <path d="M116.047,121.3a176.651,176.651,0,0,0,23.639-16.362q-1.177-2.121-2.324-4.223A171.6,171.6,0,0,1,113.549,117.3a152.5,152.5,0,0,1-40.761,16.413,135.753,135.753,0,0,1-19.518,3.175q.123,2.247.252,4.706a140.5,140.5,0,0,0,20.458-3.322A157.35,157.35,0,0,0,116.047,121.3Z" transform="translate(-4.665 -7)" fill="#f7f1e8"/>
    <path d="M136,190.776a304.7,304.7,0,0,0,36.88-41.924q-1.869-1.455-3.647-2.983a299.663,299.663,0,0,1-36.463,41.479,244.361,244.361,0,0,1-54.685,39.4q-6.165,3.2-12.423,5.918.713,2.257,1.46,4.5,6.613-2.861,13.132-6.239A249,249,0,0,0,136,190.776Z" transform="translate(-4.665 -7)" fill="#f7f1e8"/>
    <path d="M382.41,226.677c-8.614-14.228-18.108-36.244-25.946-56.155-1.666.044-3.363.037-5.055,0,8.046,20.557,17.965,43.719,26.971,58.6Z" transform="translate(-4.665 -7)" fill="#f7f1e8"/>
    <path d="M399.848,261.055l-4.1,2.325c.235.415,5.933,10.333,21.225,25.57a282.863,282.863,0,0,0,27.4,23.789,19.971,19.971,0,0,0,1.765-4.586A276.794,276.794,0,0,1,420.5,285.812C408.559,273.943,401.769,264.428,399.848,261.055Z" transform="translate(-4.665 -7)" fill="#f7f1e8"/>
    <path d="M200.267,321.058l-4.7-.267c-.015.257-1.544,24.077-17.235,49.24,1.493.629,2.959,1.2,4.387,1.7l.037.105a127.378,127.378,0,0,0,14.123-32.593A95.98,95.98,0,0,0,200.267,321.058Z" transform="translate(-4.665 -7)" fill="#f7f1e8"/>
    <path d="M323.269,351.32c-5.02-18.765-5.755-31.957-5.765-32.135l-2.352.119-2.352.12c.028.551.746,13.731,5.882,32.978a214.767,214.767,0,0,0,11.639,32.768A199.383,199.383,0,0,0,340.8,405.3c1.446-.7,2.861-1.4,4.23-2.1a194.656,194.656,0,0,1-10.379-19.882A209.982,209.982,0,0,1,323.269,351.32Z" transform="translate(-4.665 -7)" fill="#f7f1e8"/>
    <polygon points="312.84 312.184 310.487 312.304 312.84 312.185 312.84 312.184" fill="#f1f1f1"/>
    <g>
      <path d="M62.583,32.8l4.725,4.738-1.961.992-7.513,7.494v.9l2.919,2.927h.9l7.513-7.494L70.2,40.433l4.785,4.8-1.96.992-20,19.955-.967,1.927-4.786-4.8,1.9-.992L56.92,54.58v-.9L54,50.75l-.9,0-7.755,7.735-.966,1.928-4.725-4.738,1.93-.962,20-19.954Z" transform="translate(-4.665 -7)" fill="#f7f1e8"/>
      <path d="M54.4,70.456l1.959-.993L76.36,49.509l.968-1.927L88.764,59.047l-3.532,4.908-1.112-2.02-5.87-5.884h-.9l-4.737,4.725v.9l1.927,1.931,1.957,1-4.8,4.785L70.7,67.433,68.776,65.5,67.9,65.47l-4.948,4.936v.9l5.869,5.884,2.017,1.118-5.006,3.609Z" transform="translate(-4.665 -7)" fill="#f7f1e8"/>
      <path d="M82.444,98.575l-4.785-4.8,1.236-.571,2.657-4.336,0-.9-3.763-3.772h-.9L72.544,86.84l-.573,1.235-4.786-4.8,2.291-.78L94.237,67.188l.906-1.746,5.207,5.22-1.749.9L83.23,96.286Zm-.008-17.448,2.228,2.233.692.03L91.214,74.6l-8.808,5.835Z" transform="translate(-4.665 -7)" fill="#f7f1e8"/>
      <path d="M106.789,77.117l9.992,10.018.055,3.8L97.677,110.043l-3.827-.034L83.857,99.991l1.9-1.053,20-19.954ZM92.415,99.941v.9l2.919,2.927.905,0L110.63,89.417v-.9l-2.919-2.927h-.9Z" transform="translate(-4.665 -7)" fill="#f7f1e8"/>
    </g>
    <g>
      <path d="M86.231,193.9l-5.677,3.359-.449-2.078L65.918,171.2l-1.628-1.43,5.1-3.017,16.562,12.809-8.859-14.974-1.627-1.43,5.75-3.4.471,2.115,14.187,23.978,1.605,1.394-5.171,3.06L75.767,177.531,84.626,192.5Z" transform="translate(-4.665 -7)" fill="#f7f1e8"/>
      <path d="M100.3,185.575l-.47-2.115L85.641,159.482l-1.606-1.394,13.743-8.131,3.827,4.572-2.2.57-7.052,4.172-.222.865,3.36,5.677.864.221,2.314-1.369,1.43-1.628,3.4,5.751-2.115.47-2.315,1.37-.242.827,3.51,5.932.862.22,7.053-4.172,1.56-1.655,2.228,5.664Z" transform="translate(-4.665 -7)" fill="#f7f1e8"/>
      <path d="M115.729,173.369,102.141,150.4l.987-3.612,9.15-5.414,3.606.894,2.739,4.63,1.606,1.394-5.75,3.4-.413-2.1L113,147.79l-.827-.244-3.581,2.119-.221.864,10.207,17.251.863.221,3.581-2.119.186-.841-1.049-1.773-1.642-1.372,5.751-3.4.448,2.078,2.76,4.665-.93,3.627-9.15,5.414Z" transform="translate(-4.665 -7)" fill="#f7f1e8"/>
      <path d="M145.249,158.979l-.309-1.428-10.108-7.594.061,5.384,3.231,5.461,1.627,1.43-5.678,3.36-.47-2.115-14.165-23.942L117.81,138.1l5.678-3.359.47,2.115,5.82,9.837-.321-14.409-.833-.581,6.437-3.81-.43,3.234.12,12.087,14.132,10.68,2.948,1.187Z" transform="translate(-4.665 -7)" fill="#f7f1e8"/>
    </g>
    <g>
      <path d="M102.747,229.762l7.7,10.108-.4,3.386-7.551,5.75-3.426-.52-.441,3.464-7.916,6.029-3.4-.49-7.7-10.108,1.863-.65,20.187-15.371Zm-7.416,17.864-2.249-2.953-.8-.109-5.023,3.825-.109.8,2.248,2.952.8.11,5.024-3.825Zm1.7-6.679-.078.782,2.248,2.953.775.132,4.749-3.616.109-.805-2.248-2.954-.8-.108Z" transform="translate(-4.665 -7)" fill="#f7f1e8"/>
      <path d="M90.781,262.055l1.833-.625L112.8,246.059l1.121-1.623,7.7,10.109-.4,3.386-10.534,8.021-3.433-.465-5.941,7.169-1.089,1.791-3.64-4.78,1.686-.755,5.721-6.953.133-.583-.95-1.247-.805-.109-6.85,5.216-1.091,1.6Zm18.494-1.864.774.133,5.785-4.405.078-.782-2.271-2.983-.775-.133-5.784,4.405-.079.782Z" transform="translate(-4.665 -7)" fill="#f7f1e8"/>
      <path d="M101.956,276.73l1.862-.648,20.187-15.371,1.09-1.6,8.81,11.571-3.729,3.945-.749-1.932-4.52-5.936-.8-.11-4.781,3.641-.108.805,1.484,1.949,1.623,1.12-4.841,3.687-.649-1.863-1.484-1.949-.774-.133-4.993,3.8-.109.806,4.52,5.935,1.663,1.237-4.887,2.615Z" transform="translate(-4.665 -7)" fill="#f7f1e8"/>
      <path d="M123.562,305.106l-3.686-4.84,1.168-.361,2.883-3.542.109-.8-2.9-3.807-.8-.108-4.182,1.836-.658,1.031-3.686-4.842,2.132-.421L137.8,278.58l1.015-1.445,4.011,5.267-1.664.594-16.631,20.166Zm2.076-15.53,1.716,2.253.613.11,6.262-7.125-8.535,4.142Z" transform="translate(-4.665 -7)" fill="#f7f1e8"/>
      <path d="M149.433,306.233l-3.686-4.84,1.809-.656,1.522-1.159.078-.781-2.249-2.953-.773-.133-4.872,3.709-.109.805,4.08,5.358-.457,3.379-9.652,7.35-3.378-.458-5.866-7.7.388-3.469,3.9-2.968,1.137-1.539,3.663,4.81-1.832.626-1.523,1.16-.078.781,2.249,2.953.774.133,4.871-3.709.109-.806-4.034-5.3.418-3.493,9.683-7.372,3.418.572,5.865,7.7-.427,3.356L150.5,304.6Z" transform="translate(-4.665 -7)" fill="#f7f1e8"/>
      <path d="M164.031,319.216l-.826-1.97-2.2-2.892-.751-.1L142.9,327.468l-1.09,1.6-3.686-4.841,1.832-.625,17.355-13.215.078-.782-2.248-2.954-1.632-1.257,4.857-2.591,9.435,12.391Z" transform="translate(-4.665 -7)" fill="#f7f1e8"/>
    </g>
    <g>
      <path d="M225.856,176.416h14.059l2.71,2.625v10.5l-2.753,2.667,2.753,2.71v11.01l-2.71,2.667H225.856l.678-2.075V178.448Zm6.013,12.533.635.593h4.108l.635-.593v-6.606l-.635-.635H232.5l-.635.635Zm4.743,5.97H232.5l-.635.636v6.986l.635.635h4.108l.635-.635v-6.986Z" transform="translate(-4.665 -7)" fill="#f7f1e8"/>
      <path d="M266.423,208.6h-6.732l.466-1.27-1.186-4.912-.635-.635h-5.293l-.635.635-1.186,4.912.466,1.27h-6.732l1.058-2.159,6.606-28.159-.593-1.862h7.325l-.593,1.862,6.606,28.159Zm-12.279-12.237h3.133l.509-.466L255.71,185.6l-2.074,10.289Z" transform="translate(-4.665 -7)" fill="#f7f1e8"/>
      <path d="M268.12,205.929V179.041l2.71-2.625h10.713l2.667,2.625v5.419l.678,2.033h-6.733l.72-2.033v-2.117l-.593-.635H274.09l-.635.635v20.2l.635.635h4.192l.593-.635v-2.075l-.72-2.032h6.733l-.678,2.032v5.463l-2.667,2.667H270.83Z" transform="translate(-4.665 -7)" fill="#f7f1e8"/>
      <path d="M301.107,208.6l.466-1.4L296.7,195.427l-2.71,4.7v6.394l.677,2.075h-6.648l.678-2.075V178.49l-.678-2.074h6.648l-.677,2.074v11.517l7.113-12.66-.423-.931h7.537L306.188,179l-6.1,10.543,6.775,16.514,1.947,2.54Z" transform="translate(-4.665 -7)" fill="#f7f1e8"/>
    </g>
    <g>
      <path d="M247.01,293.022l.825,3.166h-11.9l.825-3.166-5.986-30.134-5.779,30.134.826,3.166H213.847l.826-3.166-9.357-44.033-2-5.091h10.8l-.62,2,6.261,31.648,6.261-30.754-.757-2.89h10.94l-.757,2.89,6.33,30.754,6.261-31.648-.757-2h10.939l-2.064,5.022Z" transform="translate(-4.665 -7)" fill="#f7f1e8"/>
      <path d="M272.263,296.188h-10.8l1.1-3.3V247.27l-1.1-3.372h10.8l-1.1,3.372v45.615Z" transform="translate(-4.665 -7)" fill="#f7f1e8"/>
      <path d="M288.431,296.188h-10.8l1.1-3.3V247.27l-1.1-3.372h9.7l12.659,31.855V247.27l-1.1-3.372h10.939l-1.1,3.372v45.615l1.1,3.3h-9.839L287.33,264.4v28.484Z" transform="translate(-4.665 -7)" fill="#f7f1e8"/>
      <path d="M315.746,291.853V248.164l4.4-4.266h17.408l4.334,4.266v8.807l1.1,3.3H332.053l1.169-3.3V253.53l-.963-1.032h-6.742l-.964,1.032v32.819l.964,1.032h6.742l.963-1.032v-9.426h-2.477l-1.927-8.807h14.174l-1.1,3.441v20.3l-4.334,4.335H320.149Z" transform="translate(-4.665 -7)" fill="#f7f1e8"/>
    </g>
    <g>
      <path d="M240.745,388.365h-20.9l.88-2.64v-36.47l-.88-2.695h8.637l-.826,2.695v31.354l.826.77H239.15l2.86-.77Z" transform="translate(-4.665 -7)" fill="#f7f1e8"/>
      <path d="M244.925,388.365l.88-2.695V349.2l-.88-2.639h20.9l1.265,7.7-2.861-.825H253.506l-.825.825V362.9l.825.826h3.52l2.7-.88v8.746l-2.7-.88h-3.52l-.825.77V380.5l.825.825h10.726l2.861-.825-1.265,7.866Z" transform="translate(-4.665 -7)" fill="#f7f1e8"/>
      <path d="M270.447,384.9V349.97l3.521-3.41h13.917l3.466,3.41v7.041l.879,2.64h-8.746l.935-2.64v-2.75l-.77-.825h-5.391l-.77.825V380.5l.77.825h5.391l.77-.825v-7.536h-1.98l-1.54-7.041H292.23l-.879,2.751V384.9l-3.466,3.466H273.968Z" transform="translate(-4.665 -7)" fill="#f7f1e8"/>
    </g>
    <g>
      <path d="M347.67,340.915l-2.336.98-3.433,2.613-.12.89,15.681,20.594,1.9,1.294-5.745,4.374-.742-2.174-15.68-20.593-.927-.093-3.5,2.668-1.493,1.936-3.077-5.762,14.705-11.2Z" transform="translate(-4.665 -7)" fill="#f7f1e8"/>
      <path d="M345.605,334.382l5.673-4.32.77,2.21,6.85,9,.955.129,3.5-2.669.13-.954-6.85-9-1.89-1.357,5.745-4.374.77,2.21L379.5,349.212l1.9,1.293-5.744,4.374-.778-2.146-7.07-9.285-.955-.13-3.5,2.669-.129.954,7.069,9.286,1.9,1.293-5.672,4.319-.743-2.174-18.24-23.954Z" transform="translate(-4.665 -7)" fill="#f7f1e8"/>
      <path d="M389.889,344.04l-5.673,4.319-.742-2.173-18.24-23.955-1.925-1.329,5.671-4.319.77,2.21,18.24,23.954Z" transform="translate(-4.665 -7)" fill="#f7f1e8"/>
      <path d="M391.262,339.4l-17.469-22.941.606-4,9.141-6.96,3.981.507,3.522,4.625,1.9,1.294L387.2,316.3l-.706-2.2-1.376-1.807-.919-.157-3.54,2.7-.093.927,13.123,17.233.918.158,3.541-2.7.092-.927-3.768-4.949-1.3.99-4.533-3.854,7.443-5.667.8,2.247,8.115,10.657-.543,4.009-9.14,6.96Z" transform="translate(-4.665 -7)" fill="#f7f1e8"/>
      <path d="M389.212,301.179l5.673-4.32.769,2.21,6.85,9,.955.129,3.5-2.668.13-.955-6.851-9-1.889-1.356,5.744-4.374.77,2.209,18.239,23.954,1.9,1.294-5.744,4.374-.779-2.147-7.07-9.285-.955-.129-3.5,2.668-.129.955,7.07,9.285,1.9,1.293-5.672,4.32-.742-2.174-18.24-23.954Z" transform="translate(-4.665 -7)" fill="#f7f1e8"/>
    </g>
    <g>
      <path d="M441.025,158.682l-1.91-3.257-4.54-4.55-1.34,0-27.309,27.241-1.535,3.06-7.6-7.618,3.064-1.527,27.31-27.241-.046-1.388-4.636-4.648-3.156-1.822,7.9-5.685,19.452,19.5Z" transform="translate(-4.665 -7)" fill="#f7f1e8"/>
      <path d="M432.732,209.587l-7.6-7.618,1.962-.906,4.22-6.886,0-1.435-5.973-5.99h-1.436l-6.9,4.2-.91,1.961-7.6-7.62,3.639-1.239,39.316-24.306,1.439-2.774,8.268,8.288-2.777,1.433L433.98,205.952Zm-.013-27.706,3.537,3.546,1.1.049,9.3-13.96-13.984,9.264Z" transform="translate(-4.665 -7)" fill="#f7f1e8"/>
      <path d="M442.483,219.363l-7.5-7.523,3.064-1.527,31.766-31.686,1.584-3.108,7.5,7.522-3.112,1.575L444.019,216.3Z" transform="translate(-4.665 -7)" fill="#f7f1e8"/>
      <path d="M464.372,241.306,446.212,223.1l3.063-1.527,31.766-31.686,1.584-3.109,7.5,7.522-3.065,1.624-27.31,27.241.046,1.387,9.271,9.3,3.156,1.822Z" transform="translate(-4.665 -7)" fill="#f7f1e8"/>
    </g>
  </g>
</svg>
