<svg xmlns="http://www.w3.org/2000/svg" width="932.586" height="493.37" viewBox="0 0 932.586 493.37">
  <g>
    <path d="M934.654,54.6s-5.75,14.358-12.008,19.6c-4.263,3.573-7.725,6.266-11.587,6.91a58.016,58.016,0,0,0,2.408-6.347s6.61-19.164,2.424-25.123-12.652-12.773-22.539-6.927-17.479,24.919-10.437,34.161a53.054,53.054,0,0,0,7.819,8.248c-1.3,1.46-2.662,2.884-4.067,4.245-14.677-26.67-35.28-33.042-65.685-45.923-47.026-19.922-80.15-27.394-119.917-33.708C666.6,4.265,598.582,4.371,563.436,3.831c-35.96-.552-71.218.917-108.157,1.171-21.541.147-42.183-1.464-63.706-.679C353.309,5.72,314.788,18.08,279.1,31.605c-36.643,13.885-35.939,10.609-67.928,32.143-6.685,4.5-25.123,8.479-36.99,17.534-42.187-24.048-71.836-8.14-71.836-8.14a215.781,215.781,0,0,0,11.449,24.55c-46.8-18.313-78.156-1.49-78.156-1.49s22.043,56.6,52.636,77.948a130.436,130.436,0,0,1-15.817,20.834c-16.344,17.431-32.259,16.511-52.9,24.582-.742-1.879-2.533-3.682-6.251-3.927-6.827-.448-7.447,2.173-7.447,2.173S-1.2,257.18,4.718,266.623c2.559,4.084,7.757,3.654,11.048,3.438,2.855,3.019,15.543,17.305,35.8,24.635,28.1,10.167,24.1,7.221,43.18,15.441,19.016,8.191,106.29,20.983,137.432,27.65,2.4.515,5.425,1.148,7.862,1.593a165.116,165.116,0,0,1,2.985,25.019c.5,17.422,5.334,43.168,5.372,49.685.057,9.642-.911,29.635-3.513,35.616-1.4,3.208-4.389,9.277-5.647,12.2-1.093,2.537-6.588,9.781-7.4,12.42-.558,1.809-1.35,5.608,1.595,5.873,2.5.224,19.557,1.6,21.212.876,4.963-2.174,4.913-13.13,9.528-15.353,3.034-1.462-2.89,9.125.874,9.2,7.3.155,9.449-13.251,10.313-16.97.391-1.688,2.771-10.554,3.2-12.611s2.25-28.981,5-34.716c1.379-2.876,2.8-8.732,4.126-15.263,2.66,5.231,5.638,10.235,5.526,16.607-.24,13.76,6.93,34.859,2.013,48.026-5.066,13.569-9.431,17.53-13.166,34.818-.852,3.945,19.233,1.926,22.912.093,3.56-1.773,2.085-7.948,7.373-12.685,3.775-3.379-1.428,9.541,3.288,9.334,10.468-.46,12.385-36.28,12.958-39.174.456-2.313,4.7-52.487,7.363-60.279,2.618-7.669,8.354-26.7,15.864-41.977,34.362,6.041,169.293,19.051,200.8,16.04,79.971-7.643,74.76-8.616,127.961-29.326,10.4,14.219,30.826,43.051,35.311,55.976,7.772,22.4,9.793,43.825,5.895,57.6s-17.311,30.707-9.451,30.819c14.929.214,20.822,2.257,24.239-2.58,4.121-5.835,2.021-7.827,4.395-12.771s-.73,8.5,3.5,7.908c9.065-1.266,6.855-19.813,8.026-26.281,0,0,7.531-17.514,10.228-34.157,0,0,9.335-28.851,7.287-37.252-.7-2.87-1.651-5.888-2.738-9,13.053,11.749,25.382,24.714,32,40.918,4.224,10.346,6.007,21.415,7.433,32.4,1.082,8.33,3.132,17.95,1.492,26.327-1.4,7.134-11.228,28.142-9.247,29.788,1.832,1.523,16.394-.5,24.869-1.027.686-.042,3.481-9.816,4.095-9.857,1.455-.1,1.156,7.258,2.63,7.09,7.436-.849,8.824-7.969,8.824-13.614,0-6.86-1.415-14.269,0-22.776,1.808-10.871,4.007-21.68,5.829-32.549,2.6-15.52,8.716-20.707,11.187-36.137,2.26-14.116-7.8-37.54-4.766-51.514,5.166-23.812,19.121-31.57,27-57.361,16.276-31.717,21.545-82.432,25.1-101.965,3.517-19.332-2.275-49.7-10.009-71.323a95.646,95.646,0,0,0,10.923-13.035,16.739,16.739,0,0,0,9.311-.673c11.392-4.314,18.8-15.267,20.227-21.88S934.587,55.29,934.654,54.6ZM904.647,68.034c-2.056,2.76-7.277,8.072-9.106,2.264-1.249-3.964.68-8.838,3.823-11.5,2.284-1.933,6.542-2.535,7.349,1.194A10.585,10.585,0,0,1,904.647,68.034Z" transform="translate(-2.354 -3.708)" fill="#d94a4a"/>
    <path d="M899.364,58.8c-3.143,2.66-5.072,7.534-3.823,11.5,1.829,5.808,7.05.5,9.106-2.264a10.585,10.585,0,0,0,2.066-8.04C905.906,56.265,901.648,56.867,899.364,58.8Z" transform="translate(-2.354 -3.708)" fill="none"/>
    <path d="M362.673,361.023q1.356-4.415,2.659-8.85c-3.385-.463-6.443-.907-9.121-1.326A84.237,84.237,0,0,1,362.673,361.023Z" transform="translate(-2.354 -3.708)" fill="none"/>
    <path d="M160.648,269.506c27.868-4.6,52.514-10.6,73.327-17.859q.626-3.091,1.195-6.2l.124-.681c-21.088,7.615-46.72,14.072-75.584,18.836-23.143,3.82-48.589,6.679-75.632,8.5-26.523,1.784-49.434,2.2-64.177,2.239,1.753,1.717,3.974,3.767,6.64,5.943,14.665-.139,34.928-.667,57.874-2.209C111.658,276.238,137.307,273.357,160.648,269.506Z" transform="translate(-2.354 -3.708)" fill="#f7f1e8"/>
    <path d="M245.266,145.494a430.353,430.353,0,0,0-12.155-70.351c-2.51-9.577-4.808-16.884-6.368-21.517-1.627,1-3.359,2.088-5.225,3.288a408.893,408.893,0,0,1,17.805,89.291,374.727,374.727,0,0,1-3.467,95.36q-.33,1.943-.686,3.877-.569,3.114-1.195,6.2a307.665,307.665,0,0,1-28.434,81.1q3.168.563,6.167,1.1a316.111,316.111,0,0,0,30.066-91.395A380.832,380.832,0,0,0,245.266,145.494Z" transform="translate(-2.354 -3.708)" fill="#f7f1e8"/>
    <path d="M287.37,159.5a791.382,791.382,0,0,1-4.258,88.47,76.113,76.113,0,0,1,6.5-4.759,797.3,797.3,0,0,0,3.744-83.857c-.2-24.133-1.5-48.136-3.872-71.344-2.811-27.5-6.491-47.438-8.493-57.12q-.946.356-1.891.714c-1.307.5-2.562.966-3.777,1.42,2.007,9.834,5.519,29.216,8.224,55.736C285.888,111.771,287.176,135.572,287.37,159.5Z" transform="translate(-2.354 -3.708)" fill="#f7f1e8"/>
    <path d="M234.539,340.726l.237.421c.046-.207.092-.416.14-.629C234.709,340.63,234.581,340.7,234.539,340.726Z" transform="translate(-2.354 -3.708)" fill="#f1f1f1"/>
    <path d="M240.187,344.521l.687-.342q-.133-.8-.27-1.591Q240.379,343.61,240.187,344.521Z" transform="translate(-2.354 -3.708)" fill="#f1f1f1"/>
    <path d="M356.211,350.847a65.389,65.389,0,0,0-34.247-24.342,84.713,84.713,0,0,0-30.95-2.921,132.092,132.092,0,0,0-28.051,5.474,167.273,167.273,0,0,0-21.071,8c-.5,2.029-.925,3.883-1.288,5.529q.136.792.27,1.591a160.077,160.077,0,0,1,23.827-9.4c14.538-4.413,35.975-8.437,55.538-2.55a59.363,59.363,0,0,1,30.154,20.861q.7-1.506,1.419-2.974C353.133,350.353,354.6,350.6,356.211,350.847Z" transform="translate(-2.354 -3.708)" fill="#f7f1e8"/>
    <path d="M366.8,239.822a78.96,78.96,0,0,0-26.367-7.2,96.7,96.7,0,0,0-29.6,1.46,65.283,65.283,0,0,0-21.227,9.134,76.113,76.113,0,0,0-6.5,4.759,90.49,90.49,0,0,0-10.847,10.534c-8.948,10.213-16.907,23.384-23.656,39.149a248.846,248.846,0,0,0-13.226,40.809c.838.173,1.688.345,2.514.508.742.146,1.465.285,2.143.409q.285,1.591.564,3.208c.363-1.646.79-3.5,1.288-5.529A242.449,242.449,0,0,1,254.155,299.9c6.5-15.16,14.122-27.775,22.65-37.5,10.492-11.959,22.395-19.528,35.378-22.495l.03-.007a92.319,92.319,0,0,1,27.8-1.312,72.877,72.877,0,0,1,24.288,6.669,58.907,58.907,0,0,1,21.544,17.723q.662-3.926,1.283-7.86A64.727,64.727,0,0,0,366.8,239.822Z" transform="translate(-2.354 -3.708)" fill="#f7f1e8"/>
    <path d="M362.673,361.023q-.43,1.4-.868,2.8l1.848-.948Q363.172,361.94,362.673,361.023Z" transform="translate(-2.354 -3.708)" fill="#f1f1f1"/>
    <path d="M656.613,88.7c-47.245-6.546-114.746-7.712-163.2-7.532-44.819.166-81.989,1.481-92.419,1.884-1.848.071-2.858.114-2.921.117l.257,5.977c.064,0,1.116-.048,3.038-.122,10.572-.407,47.525-1.709,92.067-1.874,48.237-.179,115.407.977,162.3,7.468l.888.122.833-5.924Z" transform="translate(-2.354 -3.708)" fill="#f7f1e8"/>
    <path d="M650.345,181.75a639.3,639.3,0,0,0-91.168,1.2c-26.489,2.115-54.267,5.682-82.563,10.6-38.287,6.656-67.279,14.043-77.739,16.844-2.7.724-4.17,1.143-4.238,1.162l1.649,5.751c.045-.013.709-.2,1.936-.538,7.745-2.122,38.1-10.142,79.417-17.325,28.115-4.887,55.708-8.43,82.015-10.53a632.286,632.286,0,0,1,90.836-1.162Q650.4,184.755,650.345,181.75Z" transform="translate(-2.354 -3.708)" fill="#f7f1e8"/>
    <path d="M650.671,192.985c-11.44,27.929-32.581,51.645-62.856,70.5-24.712,15.393-55.52,27.606-91.568,36.3-52.484,12.658-101.053,14.083-114.622,14.221-2.356.024-8.542.009-8.625.008L372.914,320c.026,0,5.414.007,6.354.007l.912,0c4.937-.02,17.23-.215,33.885-1.5a536.256,536.256,0,0,0,83.465-12.877c36.7-8.839,68.119-21.3,93.394-37.033,27.523-17.133,47.792-38.209,60.412-62.776Q650.927,199.418,650.671,192.985Z" transform="translate(-2.354 -3.708)" fill="#f7f1e8"/>
    <path d="M736.247,300.48a212.923,212.923,0,0,0-45.985,26.093c-3.053,2.274-5.727,4.39-8,6.264q1.028,3.042,2.1,6.067a207.53,207.53,0,0,1,54.335-32.96c21.652-8.777,43.467-12.821,64.831-12.018a147.265,147.265,0,0,1,59.8,15.5c1.053-1.684,2.124-3.37,3.2-5.1a153.285,153.285,0,0,0-62.9-16.392C781.377,287.126,758.71,291.345,736.247,300.48Z" transform="translate(-2.354 -3.708)" fill="#f7f1e8"/>
    <path d="M682.262,332.837A495.664,495.664,0,0,1,658.305,218.48a535.154,535.154,0,0,1,2.132-113.866,528.008,528.008,0,0,1,15.878-78.666c2.143-7.493,4.132-13.7,5.745-18.447q-3.006-.266-6.15-.5c-1.527,4.562-3.341,10.3-5.3,17.125a527.765,527.765,0,0,0-14,64.57l.846.116-.833,5.924-.888-.122q-.633,4.446-1.212,9.053a547.447,547.447,0,0,0-4.181,78.084q.055,3,.145,6,.078,2.618.181,5.23.255,6.433.665,12.839.42,6.544,1,13.057A501.379,501.379,0,0,0,677.37,337.02q.16.47.322.938c.942-.369,1.9-.743,2.881-1.124.744,1.018,1.541,2.113,2.379,3.27q.666-.575,1.407-1.2Q683.293,335.877,682.262,332.837Z" transform="translate(-2.354 -3.708)" fill="#f7f1e8"/>
    <path d="M899.364,58.8c-3.143,2.66-5.072,7.534-3.823,11.5,1.829,5.808,7.05.5,9.106-2.264a10.585,10.585,0,0,0,2.066-8.04C905.906,56.265,901.648,56.867,899.364,58.8Z" transform="translate(-2.354 -3.708)" fill="none"/>
    <path d="M403.679,128.92A973.573,973.573,0,0,0,395.57,4.2q-1.993.047-4,.119-.756.028-1.511.062A966.868,966.868,0,0,1,398.2,129c-.052,43.059-3.291,82.537-9.628,117.336-7.572,41.582-19.608,76.524-35.79,103.952,1.722.293,3.668.6,5.815.924,15.969-27.707,27.861-62.634,35.378-103.939C400.364,212.14,403.631,172.321,403.679,128.92Z" transform="translate(-2.354 -3.708)" fill="#f7f1e8"/>
    <g>
      <path d="M91.542,189.317l9.3-3.426.122,3.253L106.4,203.9l1.217.561,5.748-2.117.562-1.216L108.5,186.372l-1.959-2.577,9.423-3.471.122,3.254,14.472,39.292,2,2.5-9.423,3.471-.158-3.172-5.611-15.231-1.216-.562-5.748,2.118-.562,1.216,5.609,15.231,2,2.5-9.3,3.426-.1-3.193L93.561,191.873Z" transform="translate(-2.354 -3.708)" fill="#f7f1e8"/>
      <path d="M137.17,223.663l-.121-3.253-14.472-39.291-2-2.5,22.52-8.294,4.42,7.795-3.41.246-11.556,4.256-.562,1.216,3.427,9.3,1.217.562,3.793-1.4,2.554-2.019,3.471,9.423-3.253.122-3.793,1.4-.584,1.157,3.58,9.72,1.217.561,11.556-4.256,2.755-2.024,1.757,8.977Z" transform="translate(-2.354 -3.708)" fill="#f7f1e8"/>
      <path d="M192.4,203.32l-9.423,3.471,0-2.019-4.192-6.263-1.216-.561-7.408,2.729-.561,1.216.873,7.485,1.305,1.538-9.423,3.471.369-3.569L157.455,168l-1.791-2.3,10.253-3.776.131,2.914,23.761,36Zm-23.494-10.8,4.385-1.615.471-.914-8.208-13.332,2.4,15.471Z" transform="translate(-2.354 -3.708)" fill="#f7f1e8"/>
      <path d="M178.6,157.253l19.676-7.247,5.147,2.278,13.861,37.633-2.418,5.13-19.676,7.247-.24-3.21-14.471-39.291Zm21.825,33.489,1.216.561,5.749-2.117.561-1.216L197.537,159.7l-1.216-.561-5.749,2.117-.561,1.216Z" transform="translate(-2.354 -3.708)" fill="#f7f1e8"/>
    </g>
    <g>
      <path d="M144.234,279.282l-.875,1.619-4.133,22.766-2.615,1.812-8.959-1.627-1.776-2.609,1.3-7.167-.243-1.858,5.551,1.008-.881,1.654-.8,4.427.438.587,3.408.619.616-.4,3.636-20.024-.25-1.823Z" transform="translate(-2.354 -3.708)" fill="#f7f1e8"/>
      <path d="M160.211,284.434l-4.05,22.307-2.615,1.812-8.888-1.614-1.847-2.622,4.051-22.307,2.644-1.771,8.888,1.615Zm-5.444,1.406-3.373-.612-.616.4-3.043,16.757.438.588,3.372.612.617-.4,3.043-16.757Z" transform="translate(-2.354 -3.708)" fill="#f7f1e8"/>
      <path d="M180.3,311.74l.128,1.694-6.077-1.1.715-1.54-.263-15.942L169.053,309.7l.129,1.694-6.114-1.111.716-1.54-.7-23.35-.546-2.786,5.516,1-.5.961.263,16.742,6.048-15.123-.118-1.546,5.585,1.013-.654,1.406.381,16.291,6.13-15.581-.2-1.088,5.586,1.014-1.519,2.373Z" transform="translate(-2.354 -3.708)" fill="#f7f1e8"/>
      <path d="M200.733,317.121l-13.35-2.424.868-1.585,4.23-23.292-.25-1.823,5.516,1-.839,1.625-3.637,20.025.437.587,6.817,1.239,1.915-.161Z" transform="translate(-2.354 -3.708)" fill="#f7f1e8"/>
    </g>
    <g>
      <path d="M279.729,174.788l.282,5.066-1.578-.43-21.394,1.191-1.552.6-.254-4.55,14.61-6.769-13.359.744-1.552.6-.286-5.131,1.61.429,21.393-1.192,1.521-.6.257,4.614-14.578,6.767,13.359-.743Z" transform="translate(-2.354 -3.708)" fill="#f7f1e8"/>
      <path d="M279.029,162.234l-1.609-.427-21.4,1.19-1.519.6-.683-12.263,4.477-.993-.391,1.705.35,6.292.512.457,5.065-.281.457-.512-.114-2.065-.6-1.552,5.13-.285-.428,1.609.116,2.064.478.46,5.292-.295.457-.511-.35-6.291-.578-1.652,4.656.486Z" transform="translate(-2.354 -3.708)" fill="#f7f1e8"/>
      <path d="M276.163,147.373l-20.49,1.141-2.115-1.954L253.1,138.4l1.886-2.144,4.131-.23,1.52-.6.286,5.131-1.579-.463-1.614.09-.46.478.178,3.2.512.457,15.391-.857.457-.512-.177-3.194-.509-.425-1.581.088-1.519.635-.286-5.131,1.578.431,4.162-.233,2.147,1.92.454,8.164Z" transform="translate(-2.354 -3.708)" fill="#f7f1e8"/>
      <path d="M276.8,122.123l-1.085-.3-8.764,4.21,3.7,1.865,4.873-.271,1.551-.6.283,5.067-1.61-.429-21.361,1.189-1.553.6-.282-5.066,1.61.428,8.777-.488-9.95-4.884-.692.363-.319-5.745,2.054,1.44,8.293,4.2,12.3-5.863,1.854-1.592Z" transform="translate(-2.354 -3.708)" fill="#f7f1e8"/>
    </g>
    <g>
      <path d="M329.644,192.351,328.7,198.9l-2.056-.928-2.234-.323-.715.529-.577,4,.537.708,7.15,1.032.759-.522,1.047-7.254,3.19-2.19L349.966,196l2.441,3-1.5,10.428-3.208,2.314-5.72-.825-2.228.267.94-6.512,2.049.969,2.235.322.714-.527.577-4-.536-.709-7.15-1.032-.759.523-1.035,7.171-3.253,2.307-14.211-2.051-2.378-3.119,1.5-10.427,3.145-2.2,5.809.838Z" transform="translate(-2.354 -3.708)" fill="#f7f1e8"/>
      <path d="M319.359,187.755l.934-6.471,2.094.976,11.128,1.605.759-.521.577-4-.58-.715-11.128-1.606-2.279.3.945-6.554,2.094.976,29.629,4.275,2.24-.35-.945,6.553-2.056-.928-11.485-1.656-.759.521-.577,4,.581.715,11.485,1.657,2.24-.349-.934,6.47-2.049-.968-29.629-4.275Z" transform="translate(-2.354 -3.708)" fill="#f7f1e8"/>
      <path d="M327.351,151.97l28.377,4.094,2.44,3-1.5,10.427-3.2,2.232-28.377-4.095-2.39-3.037,1.5-10.427Zm2.1,6.319-.571,3.957.538.708,21.316,3.075.714-.528.571-3.956-.536-.709-21.316-3.075Z" transform="translate(-2.354 -3.708)" fill="#f7f1e8"/>
      <path d="M329.636,132.021l28.958,4.179,2.434,3.044-1.51,10.468-3.184,2.149-28.958-4.178-2.285.343.934-6.47,2.094.975,25.473,3.675.714-.528.583-4.039-.536-.708-25.473-3.675-2.284.344.945-6.554Z" transform="translate(-2.354 -3.708)" fill="#f7f1e8"/>
      <path d="M364.215,117.153l-2.259,15.662-2.05-.969-29.629-4.275-2.284.344.934-6.471,2.1.934,25.473,3.675.714-.528,1.153-8-.316-2.234Z" transform="translate(-2.354 -3.708)" fill="#f7f1e8"/>
      <path d="M330.7,109.122l1.975-13.683L335.83,93.2,364.207,97.3l2.435,3.044-1.975,13.683-2.106-.893-29.629-4.275Zm28.411-1.833.76-.521.577-4-.582-.715-21.315-3.076-.76.522-.577,4,.582.714Z" transform="translate(-2.354 -3.708)" fill="#f7f1e8"/>
      <path d="M367.533,94.158l-2.094-.975L335.81,88.908l-2.24.35L335.83,73.6l6.394-.046-.98,2.047-1.16,8.036.582.715,7.014,1.012.76-.521.381-2.638L348.4,80.08l7.106,1.025L354.5,83.021l-.381,2.638.536.708,7.329,1.058.76-.522,1.16-8.036-.362-2.24,6.254,1.87Z" transform="translate(-2.354 -3.708)" fill="#f7f1e8"/>
      <path d="M370.245,75.365,368.2,74.4l-29.629-4.274-2.284.343,1.974-13.683,3.151-2.238,15.463,2.231,2.478,3.051,10.919-.739,2.4-.5-.934,6.471-2.035-.756-10.554.749-.6.335-.244,1.689.582.715,10.055,1.451,2.24-.35ZM353.254,62.228l-.536-.708-8.491-1.226-.715.528-.583,4.039.537.708,8.491,1.226.714-.528Z" transform="translate(-2.354 -3.708)" fill="#f7f1e8"/>
      <path d="M352.305,35.291l-.946,6.554-2.055-.928-2.235-.322-.715.528-.577,4,.537.707,7.15,1.032.76-.521,1.046-7.254,3.19-2.19,14.166,2.043,2.441,3-1.5,10.428-3.208,2.314-5.72-.826-2.228.268.94-6.512,2.049.969,2.235.322.715-.528.576-4-.535-.708-7.151-1.032-.759.522-1.035,7.171-3.253,2.308-14.21-2.051L339.6,47.469l1.5-10.428,3.145-2.2,5.81.839Z" transform="translate(-2.354 -3.708)" fill="#f7f1e8"/>
    </g>
    <g>
      <path d="M424.671,18.624H444.8l3.88,3.758V37.417l-3.941,3.819,3.941,3.88V60.878L444.8,64.7H424.671l.97-2.97V21.534Zm8.608,17.944.91.849h5.88l.91-.849V27.111l-.91-.909h-5.88l-.91.909Zm6.79,8.548h-5.88l-.91.909v10l.91.91h5.88l.91-.91v-10Z" transform="translate(-2.354 -3.708)" fill="#f7f1e8"/>
      <path d="M482.75,64.7h-9.639l.667-1.819-1.7-7.032-.909-.909h-7.578l-.909.909-1.7,7.032.667,1.819h-9.639l1.516-3.092,9.457-40.314-.849-2.667h10.488l-.849,2.667,9.457,40.314Zm-17.581-17.52h4.486l.728-.667-2.97-14.731L464.442,46.51Z" transform="translate(-2.354 -3.708)" fill="#f7f1e8"/>
      <path d="M485.178,60.878v-38.5l3.88-3.758H504.4l3.819,3.758v7.76l.971,2.91h-9.64l1.031-2.91V27.111l-.849-.909h-6l-.91.909V56.028l.91.91h6l.849-.91v-2.97l-1.031-2.911h9.64l-.971,2.911v7.82L504.4,64.7H489.058Z" transform="translate(-2.354 -3.708)" fill="#f7f1e8"/>
      <path d="M532.405,64.7l.667-2L526.1,45.843l-3.88,6.73v9.154l.969,2.97h-9.517l.97-2.97V21.594l-.97-2.97h9.517l-.969,2.97V38.083l10.184-18.125-.606-1.334H542.59l-2.909,3.7-8.731,15.1,9.7,23.643,2.788,3.637Z" transform="translate(-2.354 -3.708)" fill="#f7f1e8"/>
      <path d="M560.84,18.624h23.037l1.394,8.487-3.153-.909H570.3l-.909.909v9.76l.909.91h3.88l2.91-.97V46.45l-2.91-.971H570.3l-.909.85v15.4l.969,2.97H560.84l.97-2.97V21.534Z" transform="translate(-2.354 -3.708)" fill="#f7f1e8"/>
      <path d="M612.8,64.7h-9.639l.667-1.819-1.7-7.032-.909-.909H593.64l-.911.909-1.7,7.032L591.7,64.7h-9.638l1.515-3.092,9.457-40.314-.848-2.667h10.487l-.849,2.667,9.457,40.314Zm-17.58-17.52H599.7l.728-.667-2.971-14.731-2.97,14.731Z" transform="translate(-2.354 -3.708)" fill="#f7f1e8"/>
      <path d="M636.623,27.232l-3.273-.849h-5.759l-.849.849V61.787l.97,2.91h-9.64l.971-2.91V27.232l-.909-.849h-5.881l-3.152.849,1.394-8.608h24.674Z" transform="translate(-2.354 -3.708)" fill="#f7f1e8"/>
    </g>
    <g>
      <path d="M283.028,306.271h-5.886l.6-1.8V279.614l-.6-1.837h12.447l2.4,2.325v13.009l-2.4,2.4h-6.6l-.562.562v8.4Zm-.038-15.522h3.637l.562-.524V283.1l-.562-.525H282.99l-.562.525v7.124Z" transform="translate(-2.354 -3.708)" fill="#f7f1e8"/>
      <path d="M300.42,306.271h-5.886l.6-1.8V279.614l-.6-1.837h5.886l-.6,1.837v24.857Z" transform="translate(-2.354 -3.708)" fill="#f7f1e8"/>
      <path d="M303.643,303.908V280.1l2.4-2.325h9.485l2.363,2.325v4.8l.6,1.8h-5.961l.638-1.8v-1.874l-.525-.562h-3.712l-.562.562v17.883l.562.563h3.712l.525-.563v-1.837l-.638-1.8h5.961l-.6,1.8v4.836l-2.363,2.363h-9.485Z" transform="translate(-2.354 -3.708)" fill="#f7f1e8"/>
      <path d="M327.146,306.271H321.26l.6-1.8V279.614l-.6-1.837h5.287l6.9,17.359V279.614l-.6-1.837h5.961l-.6,1.837v24.857l.6,1.8h-5.361l-6.9-17.322v15.522Z" transform="translate(-2.354 -3.708)" fill="#f7f1e8"/>
      <path d="M347.613,306.271h-5.886l.6-1.8V279.614l-.6-1.837h5.886l-.6,1.837v24.857Z" transform="translate(-2.354 -3.708)" fill="#f7f1e8"/>
      <path d="M350.835,303.908V280.1l2.4-2.325h9.485l2.362,2.325v4.8l.6,1.8h-5.961l.637-1.8v-1.874l-.525-.562h-3.711l-.563.562v17.883l.563.563h3.711l.525-.563v-1.837l-.637-1.8h5.961l-.6,1.8v4.836l-2.362,2.363h-9.485Z" transform="translate(-2.354 -3.708)" fill="#f7f1e8"/>
    </g>
    <g>
      <path d="M480.472,166.178H447.566l1.386-4.157V104.61l-1.386-4.243h13.6l-1.3,4.243v49.358l1.3,1.212h16.8l4.5-1.212Z" transform="translate(-2.354 -3.708)" fill="#f7f1e8"/>
      <path d="M520.652,105.735v54.987l-5.455,5.456H493.289l-5.542-5.456V105.735l5.542-5.368H515.2Zm-12.382,5.716h-8.313l-1.3,1.212v41.3l1.3,1.212h8.313l1.3-1.212v-41.3Z" transform="translate(-2.354 -3.708)" fill="#f7f1e8"/>
      <path d="M541.7,166.178H528.1l1.385-4.157V104.61l-1.385-4.243H541.7l-1.384,4.243v57.411Z" transform="translate(-2.354 -3.708)" fill="#f7f1e8"/>
      <path d="M562.045,166.178h-13.6l1.386-4.157V104.61l-1.386-4.243h12.21l15.934,40.092V104.61l-1.386-4.243h13.769l-1.386,4.243v57.411l1.386,4.157H576.593l-15.934-40.007v35.85Z" transform="translate(-2.354 -3.708)" fill="#f7f1e8"/>
    </g>
    <g>
      <path d="M444.787,283.854l.494-3.813-9.66-49.436-1.908-3.42,24.756-4.838,5.675,3.692,5.042,25.8-3.84,5.706,7.554,16.869,2.235,3.512-11.706,2.288.135-3.664-7.363-16.29-.921-.747-3.057.6-.9,1.336L454.6,278.22l1.892,3.345Zm12.907-34.571.915-1.262-2.768-14.167-1.323-.827-7.307,1.429-.915,1.263,2.768,14.167,1.323.825Z" transform="translate(-2.354 -3.708)" fill="#f7f1e8"/>
      <path d="M492.436,274.542l-11.707,2.288.494-3.812-9.661-49.437-1.908-3.42,11.707-2.287-.478,3.886,9.66,49.436Z" transform="translate(-2.354 -3.708)" fill="#f7f1e8"/>
      <path d="M487.178,216.737l24.755-4.838,5.675,3.692,3.614,18.49-3.929,5.647,5.779,3.824,3.788,19.386-3.853,5.63L498.252,273.4l.479-3.886-9.661-49.435Zm14.9,20,1.322.824,7.234-1.413.915-1.261-2.274-11.632-1.337-.9-7.233,1.414-.9,1.336Zm10.406,8.882-7.233,1.413-.9,1.337,2.4,12.3,1.337.9,7.232-1.413.9-1.338-2.4-12.3Z" transform="translate(-2.354 -3.708)" fill="#f7f1e8"/>
      <path d="M557.113,221.65l-11.855,2.317.418-3.8-.729-3.727-1.322-.827-7.232,1.414-.915,1.264,2.331,11.929,1.337.9,13.124-2.565,5.615,3.779,4.619,23.638-3.779,5.615-18.866,3.686-5.838-3.735L532.155,252l-1.743-3.375,11.781-2.3-.494,3.812.729,3.727,1.323.826,7.232-1.413.915-1.263-2.332-11.93-1.337-.9-12.974,2.535L529.4,237.9l-4.632-23.71,4.016-5.585,18.865-3.687,5.6,3.706,1.894,9.693Z" transform="translate(-2.354 -3.708)" fill="#f7f1e8"/>
    </g>
    <g>
      <path d="M255.555,343h6.212l-.633,1.938V354.8l.593.593h3.838l.594-.593v-9.853L265.565,343h6.291l-.633,1.938v26.233l.633,1.9h-6.291l.594-1.9V361.006l-.594-.593h-3.838l-.593.593v10.169l.633,1.9h-6.212l.633-1.9V344.942Z" transform="translate(-2.354 -3.708)" fill="#f7f1e8"/>
      <path d="M290.294,345.457v25.124l-2.493,2.493h-10.01l-2.532-2.493V345.457L277.791,343H287.8Zm-5.658,2.611h-3.8l-.594.554V367.5l.594.554h3.8l.593-.554V348.622Z" transform="translate(-2.354 -3.708)" fill="#f7f1e8"/>
      <path d="M294.014,370.581V345.457L296.546,343h10.011l2.492,2.453v5.064l.634,1.9h-6.291l.672-1.9v-1.978l-.554-.594h-3.917l-.593.594v18.873l.593.594h3.917l.554-.594v-1.938l-.672-1.9h6.291l-.634,1.9v5.1l-2.492,2.493H296.546Z" transform="translate(-2.354 -3.708)" fill="#f7f1e8"/>
      <path d="M324.837,373.074l.435-1.305-4.55-11-2.532,4.392v5.974l.633,1.939h-6.212l.633-1.939V344.942L312.611,343h6.212l-.633,1.938V355.7l6.647-11.83-.4-.87h7.043l-1.9,2.413-5.7,9.853,6.331,15.43,1.82,2.374Z" transform="translate(-2.354 -3.708)" fill="#f7f1e8"/>
    </g>
    <g>
      <path d="M524.4,316.564l16.173-4.484,3.955,2.156,3.35,12.081-2.315,3.948,4.03,2.24,3.512,12.666-2.267,3.933-16.173,4.484.117-2.6-8.955-32.3Zm10.916,12.5.918.479,4.726-1.31.543-.884-2.107-7.6-.934-.527-4.726,1.309-.528.934Zm7.36,5.357-4.726,1.309-.528.934,2.229,8.038.933.527,4.726-1.309.528-.934L543.6,334.95Z" transform="translate(-2.354 -3.708)" fill="#f7f1e8"/>
      <path d="M580.6,340.85,572.855,343l.131-1.611-2.931-5.272-.933-.528-6.089,1.688-.528.934.2,6.028.941,1.314L555.9,347.7l.53-2.822-1.383-34.5-1.276-1.954,8.428-2.337-.088,2.333L578.694,338.7ZM562.57,330.688l3.606-1,.435-.7-5.669-11.175.9,12.5Z" transform="translate(-2.354 -3.708)" fill="#f7f1e8"/>
      <path d="M581.7,337.24l-8.577-30.934,2.281-3.885L587.73,299l3.907,2.17,1.729,6.236,1.427,2.12-7.745,2.148.181-2.567-.676-2.436-.885-.541-4.822,1.337-.529.933,6.443,23.238.933.527,4.823-1.337.479-.92-.662-2.388-1.477-2.108,7.747-2.147-.131,2.554,1.742,6.285L598,336.027l-12.324,3.417Z" transform="translate(-2.354 -3.708)" fill="#f7f1e8"/>
      <path d="M614.926,294.717l8.577,30.934-2.219,3.919-12.324,3.417-3.969-2.2-8.577-30.934,2.281-3.885,12.325-3.417Zm-6.074,5.145-4.677,1.3-.542.886,6.443,23.236.919.48,4.677-1.3.542-.885-6.443-23.236Z" transform="translate(-2.354 -3.708)" fill="#f7f1e8"/>
      <path d="M636.194,325.437l-7.647,2.12.131-2.555-8.955-32.3-1.442-2.172,6.869-1.9,15.217,20.07-5.592-20.168-1.441-2.172,7.746-2.147-.117,2.6,8.954,32.3,1.428,2.123-6.966,1.931-15.2-20.021,5.591,20.167Z" transform="translate(-2.354 -3.708)" fill="#f7f1e8"/>
    </g>
    <g>
      <path d="M730.811,146.776H694.8l1.516-4.548V79.393L694.8,74.75h14.879l-1.422,4.643v54.021l1.422,1.326h18.386l4.928-1.326Z" transform="translate(-2.354 -3.708)" fill="#f7f1e8"/>
      <path d="M738.011,146.776l1.516-4.644V79.3l-1.516-4.548h36.013l2.18,13.268L771.275,86.6H752.8l-1.422,1.422V102.9l1.422,1.421h6.065L763.5,102.8v15.069l-4.644-1.517H752.8l-1.422,1.327v15.543l1.422,1.422h18.48l4.929-1.422-2.18,13.552Z" transform="translate(-2.354 -3.708)" fill="#f7f1e8"/>
      <path d="M781.983,140.806V80.625l6.066-5.875h23.977L818,80.625V92.756l1.517,4.549h-15.07l1.612-4.549V88.018L804.729,86.6h-9.288l-1.327,1.422v45.206l1.327,1.422h9.288l1.327-1.422V120.24h-3.412l-2.654-12.131h19.524L818,112.848v27.958l-5.971,5.97H788.049Z" transform="translate(-2.354 -3.708)" fill="#f7f1e8"/>
      <path d="M694.8,158.877h14.879l-1.517,4.644v23.6l1.422,1.422h9.193l1.421-1.422v-23.6l-1.421-4.644h15.069l-1.517,4.644v62.833l1.517,4.55H718.774l1.421-4.55V202l-1.421-1.421h-9.193L708.159,202v24.356l1.517,4.55H694.8l1.516-4.55V163.521Z" transform="translate(-2.354 -3.708)" fill="#f7f1e8"/>
      <path d="M786.344,230.9H771.275l1.042-2.843-2.653-10.994-1.422-1.421H756.4l-1.421,1.421-2.655,10.994,1.043,2.843H738.294l2.37-4.834,14.784-63.023-1.327-4.17h16.4l-1.327,4.17,14.785,63.023ZM758.86,203.515h7.013l1.138-1.043-4.645-23.03-4.643,23.03Z" transform="translate(-2.354 -3.708)" fill="#f7f1e8"/>
      <path d="M822.261,210.244H814.68l-10.521-25.305v41.415l1.517,4.55H790.8l1.516-4.55V163.521l-1.516-4.644h13.362l14.312,32.6,14.31-32.6h13.363l-1.517,4.644v62.833l1.517,4.55H831.265l1.516-4.55V184.939Z" transform="translate(-2.354 -3.708)" fill="#f7f1e8"/>
    </g>
    <g>
      <path d="M741.57,309.051h7.414l-.755,2.313v11.76l.709.708h4.581l.708-.708v-11.76l-.708-2.313h7.508l-.756,2.313v31.312l.756,2.266h-7.508l.708-2.266V330.538l-.708-.708h-4.581l-.709.708v12.138l.755,2.266H741.57l.756-2.266V311.364Z" transform="translate(-2.354 -3.708)" fill="#f7f1e8"/>
      <path d="M783.035,311.979v29.988l-2.974,2.975H768.112l-3.022-2.975V311.979l3.022-2.928h11.949Zm-6.753,3.117h-4.533l-.709.661v22.526l.709.661h4.533l.708-.661V315.757Z" transform="translate(-2.354 -3.708)" fill="#f7f1e8"/>
      <path d="M787.477,341.967V311.979l3.022-2.928h11.948l2.975,2.928v6.044l.756,2.267h-7.509l.8-2.267v-2.361l-.661-.708h-4.675l-.709.708v22.527l.709.708h4.675l.661-.708v-2.314l-.8-2.267h7.509l-.756,2.267v6.092l-2.975,2.975H790.5Z" transform="translate(-2.354 -3.708)" fill="#f7f1e8"/>
      <path d="M824.267,344.942l.519-1.558-5.431-13.129-3.022,5.242v7.131l.755,2.314h-7.414l.756-2.314V311.364l-.756-2.313h7.414l-.755,2.313V324.21l7.934-14.12-.473-1.039H832.2l-2.266,2.881-6.8,11.758,7.556,18.418,2.172,2.834Z" transform="translate(-2.354 -3.708)" fill="#f7f1e8"/>
    </g>
  </g>
</svg>
