<svg xmlns="http://www.w3.org/2000/svg" width="794.75" height="490.744" viewBox="0 0 794.75 490.744">
  <g>
    <path d="M681.07,479.835c1.174,3.869-.98,7.821-2.716,12.877-.444,1.292-6.9,1.3-11.423,1.441-6.539.208-7.24.33-14.7.083-3.493-.115-12.43.539-11.1-4.767.869-3.469,3.875-15.542,7.7-17.916,6.148-3.82,8.563-7.364,9.827-14.463,2.537-14.251,7.469-28.122,8.519-42.628,1.2-16.537-2.284-35.066-7.7-50.7-2.566-7.416-6.215-14.386-9.671-21.411-.958-1.947-8.608-21.9-8.971-21.926-10.29-.679-20.982-1.506-31.676-2.48-45.756-4.167-74.443,8.723-107.65,6.587C464.6,322.155,411.8,317.781,399.241,315c-1.733-.383-4.534-.794-8.121-1.216-.681,6.716-3.134,13.366-3.586,18.193-1.34,14.326-7.581,37.04-10.376,43.183s-1.919,66.457-5.117,69.435c-9.565,8.907-5.947,14.937-5.947,14.937s3.936,10.2,3.12,18.739c-.468,4.908-1.627,8.226-6.725,8.226H335.007c-6.292,0-10.31-.812-4.13-16.144,3.759-9.325,12.008-10.079,16.093-27.532,1.111-4.748,2.378-42.593,1.27-49.089s-8.587-45.612-11.246-51.025c-4.635-9.432-3.656-17.2-6.087-22.711-1.539,8.169-3.525,17.235-3.854,18.435-4.218,15.392-2.929,31.81-6.733,47.4s-9.264,29.875-13.053,45.477c-1.89,7.781-.417,15.9-2.789,23.546-1.938,6.248-12.931,9.241-9.708,15.541,2.32,4.537,2.742,20.854-.506,21.987s-8.073,1.233-9.1,1.516-7.576.39-14.91,0c-6.542-.348-17.749.115-16.821-4.7s6.448-17.658,9.232-19.358c5.835-3.563,15.121-15.029,15.994-21.14,1.285-9,1.474-20.349,2.07-29.393,1.395-21.177,2.247-38.507.412-59.769-1.295-15.011-7.543-29.423-11.076-43.994-.165-.677-.65-3.258-1.176-6.448-10.3-8.365-34.564-3.634-42.144-24.067-8.176-22.04-24.216-51.523-41.3-67.277-8.965-8.267-19.2-14.824-29.426-21.272-13.2-8.324-25.243-18.57-39.127-25.728-13.68-7.053-28.48-11.867-43.359-15.359-13.29-3.12-26.412,7.26-39.336,2.766-8.08-2.81-11.462-9.888-17.8-14.832-4.177-3.262-6.021-13.945-5.556-15.545.807-2.776,1.76-10.09,15.3-16.653C38.52,105.131,66.8,72.84,66.8,72.84,73.176,55.815,82.815,51.848,87.95,49.565c-9.8-15.536-6.769-35.672-6.769-35.672S93.27,36.216,103.025,42.611a58.189,58.189,0,0,1,7.169-1.456c-5.307-11.108-3.4-23.775-3.4-23.775s9,17.678,16.321,23.032c5.332-.09,13.129.835,15.166,2.11,11.306,7.08,21.789,10.731,34.056,15.576a100.287,100.287,0,0,0,20.219,5.839,198.531,198.531,0,0,1,21.807,5.148c9.746,2.85,19.141-.012,28.96-.134,1.622-.02,23.078-1.08,24.038-1.28l13.355-2.458c16.837-3.324,56,11.009,75.484,9.69,22.49-1.523,122.5,12.063,140.823,12.6s88.259-4.815,102.4-6.436,60.634-11.643,70-12.656c17.306-1.871,67,11.275,77.337,11.639,8.221.289,14.324,2.6,18.861,6.126,0,0,16.933,10.3,18.056,14.793,4.04,16.161,6.255,30.919,6.008,47.5-.176,11.839.857,25.329-.106,37.124-2.458,30.088-6.115,120.439-2.738,142.911,3.073,20.45,15.568,50.066,13.449,70.346-1.77,16.944-9.057-1.024-11.386-8.475-5.894-18.864-11.007-45.942-11.227-65.572-.333-29.871-3.381-58.114-2.609-81.533.314-9.517.353-28.388-.4-48.113-3.192,8.965-6.551,19.217-6.852,26.561-.548,13.366-5.2,47.55-4.927,59.133.172,7.281-.3,18.356.338,28.385,2.651,13.81,5.462,25.5,6.847,37.963a151.909,151.909,0,0,1,1.006,27.365c-.635,9.039-3.171,17.612-4.878,26.467-1.738,9.023-7.926,32.856-7.962,42.94-.028,7.607-10.86,7.106-7.535,17.744,2.088,6.684,1.459,25.578-6.925,25.578-5.231,0-2.718.259-10.845.034-7.032-.195-19.189.748-21.8-1.657s4.761-20.744,8.238-23.4,10.753-6.158,13.677-20.5c1.074-5.27,5.613-21.992,5.613-31.545s-2.6-30.773-6.076-39.265c-2.263-5.528-17.375-20.582-24.139-35.165-1.187,8.987-2.577,19.921-2.577,21.866,0,3.4-.836,27.637-.836,32.576s-10.535,28.9-15.087,40.883c0,0-6.207,13.935-6.207,19.719s2.484,12.148-.408,16.165S678.966,472.9,681.07,479.835Z" transform="translate(-8.279 -6.129)" fill="none" stroke="#d94a4a" stroke-miterlimit="10" stroke-width="5"/>
    <path d="M660.613,287.2a119.615,119.615,0,0,0-19.987,27.791c-.994,1.935-1.823,3.7-2.509,5.253.907.062,1.816.124,2.718.183a15.021,15.021,0,0,1,1.113,2.421,111.663,111.663,0,0,1,22.116-32.69,130.68,130.68,0,0,1,39.719-27.878c17.973-8.279,38.732-13.389,61.765-15.212.159-1.543.318-3.076.473-4.586-23.97,1.813-45.587,7.1-64.3,15.754A135.088,135.088,0,0,0,660.613,287.2Z" transform="translate(-8.279 -6.129)" fill="#d94a4a"/>
    <path d="M209.126,100.881a329.612,329.612,0,0,0,13.963-30.547,36.641,36.641,0,0,1-4.747-.381C215.292,77.6,210.975,87.425,205.1,98.8a399.748,399.748,0,0,1-29.473,48.1,436.045,436.045,0,0,1-32.811,40.6q1.864,1.323,3.736,2.634a440.185,440.185,0,0,0,32.77-40.6A404.228,404.228,0,0,0,209.126,100.881Z" transform="translate(-8.279 -6.129)" fill="#d94a4a"/>
    <path d="M614.033,160.189c-.6-32.57.6-62.058,1.776-81.786-1.588.291-3.124.568-4.593.827-1.159,19.8-2.305,48.91-1.721,80.993.625,34.336,3.078,65.327,7.291,92.11,4.224,26.852,10.246,49.533,17.946,67.671q2.561.18,5.093.35c-7.989-18.11-14.217-41.15-18.553-68.7C617.091,225.081,614.655,194.309,614.033,160.189Z" transform="translate(-8.279 -6.129)" fill="#d94a4a"/>
    <path d="M400.173,224.973q26.113,0,51.432-.569c58.095-1.306,112.649-4.885,162.147-10.635l-.523-4.507c-49.352,5.733-103.755,9.3-161.7,10.606-46.369,1.043-95.1.647-144.827-1.177-60.046-2.2-107.175-5.992-129.728-8.033q3.2,2.454,6.253,5.109c24.516,2.123,68.541,5.448,123.267,7.456C338.245,224.389,369.586,224.973,400.173,224.973Z" transform="translate(-8.279 -6.129)" fill="#d94a4a"/>
    <path d="M391.321,210.315A629.6,629.6,0,0,0,374.3,125.593,524.025,524.025,0,0,0,357.629,74.83c-.506.019-.986.042-1.432.073-1.073.072-2.21.095-3.4.078a513.4,513.4,0,0,1,17.168,51.961,625.475,625.475,0,0,1,16.867,84.066,665.8,665.8,0,0,1,5.377,102.91c1.728.212,3.247.421,4.522.624A670.341,670.341,0,0,0,391.321,210.315Z" transform="translate(-8.279 -6.129)" fill="#d94a4a"/>
    <path d="M471.336,222.574l-7.968-138.25-4.574-.5,8.012,139.016Z" transform="translate(-8.279 -6.129)" fill="#d94a4a"/>
    <path d="M540.585,85.709q-2.283.147-4.539.285c-.081,19.651-.079,46.375.241,75.442.547,49.852,2.16,116.152,6.653,160.154l4.494-.655c-4.461-43.808-6.064-109.851-6.61-159.539C540.5,132.2,540.5,105.371,540.585,85.709Z" transform="translate(-8.279 -6.129)" fill="#d94a4a"/>
    <path d="M308.062,299.929a279.352,279.352,0,0,0-41.307,7.716,15.86,15.86,0,0,1,2.136,1.451c.151.915.3,1.777.436,2.561a274.161,274.161,0,0,1,39.214-7.216c15.978-1.695,30.652-1.621,43.614.222,15.207,2.161,28.065,6.776,38.26,13.722.3-1.515.548-3.055.7-4.6l.7.084c-10.58-6.915-23.688-11.52-39.031-13.7C339.462,298.276,324.412,298.2,308.062,299.929Z" transform="translate(-8.279 -6.129)" fill="#d94a4a"/>
    <path d="M283.212,248.127c.509-17.331-1.578-28.286-1.667-28.744l-4.454.866c.021.108,2.09,11.026,1.582,27.893a185.855,185.855,0,0,1-11.808,59.567,15.865,15.865,0,0,1,2.026,1.387c.256,1.553.5,2.96.707,4.075a186.965,186.965,0,0,0,10.237-34.608A189.923,189.923,0,0,0,283.212,248.127Z" transform="translate(-8.279 -6.129)" fill="#d94a4a"/>
    <g>
      <path d="M83.258,84.567H91.08l-.8,2.684v13.64l.747.821h4.833l.747-.821V87.251l-.747-2.684h7.921l-.8,2.684v36.318l.8,2.63H95.863l.747-2.63V109.491l-.747-.822H91.03l-.747.822v14.078l.8,2.63H83.258l.8-2.63V87.251Z" transform="translate(-8.279 -6.129)" fill="#d94a4a"/>
      <path d="M107.672,126.2l.8-2.684V87.2l-.8-2.629H126.6l1.146,7.669-2.591-.822h-9.715l-.747.822v8.6l.747.822h3.189l2.441-.877v8.71l-2.441-.876h-3.189l-.747.766v8.984l.747.822h9.715l2.591-.822L126.6,126.2Z" transform="translate(-8.279 -6.129)" fill="#d94a4a"/>
      <path d="M154.107,126.2h-7.921l.548-1.644-1.4-6.354-.747-.822h-6.228l-.747.822-1.395,6.354.548,1.644h-7.921l1.245-2.794,7.772-36.428-.7-2.41h8.62l-.7,2.41,7.772,36.428ZM139.66,110.368h3.686l.6-.6L141.5,96.454l-2.441,13.311Z" transform="translate(-8.279 -6.129)" fill="#d94a4a"/>
      <path d="M156.452,84.567h16.54l3.189,3.4v34.785l-3.189,3.451h-16.54l.7-2.684V87.2Zm7.025,33.8.747.822h4.832l.748-.822V92.236l-.748-.822h-4.832l-.747.822Z" transform="translate(-8.279 -6.129)" fill="#d94a4a"/>
    </g>
    <g>
      <path d="M218,158.336l4.331-34.514,3.587-2.973,12.506,1.569,2.692,3.761-.873,6.957.464,2.708-7.86-.986,1.167-2.5.341-2.718-.589-.9-4.894-.614-.844.722-3.254,25.927.64.907,4.894.615.794-.728.335-2.664-.514-2.714,7.86.985-1.118,2.51-.88,7.012-3.544,3.034-12.506-1.569Z" transform="translate(-8.279 -6.129)" fill="#d94a4a"/>
      <path d="M245.99,123.368l7.761.973-1.125,2.565-1.7,13.533.639.909,4.8.6.844-.723,1.7-13.533-.407-2.757,7.859.986-1.124,2.565-4.522,36.036.463,2.708-7.86-.986,1.069-2.516,1.753-13.969-.639-.909-4.8-.6-.844.723L248.1,162.942l.464,2.708-7.761-.974,1.119-2.509,4.522-36.037Z" transform="translate(-8.279 -6.129)" fill="#d94a4a"/>
      <path d="M289.456,131.527l-4.419,35.221-3.594,3.027L268.887,168.2l-2.635-3.81,4.42-35.221-.458-2.762,7.762.973-1.125,2.565-3.888,30.981.646.855,4.845.607.837-.668,3.887-30.981-.457-2.763,7.86.986Z" transform="translate(-8.279 -6.129)" fill="#d94a4a"/>
      <path d="M289.981,167.368l4.331-34.514,3.587-2.974,12.506,1.57,2.692,3.76-.873,6.957.464,2.709-7.86-.986,1.167-2.5.341-2.717-.589-.9-4.894-.614-.844.722L296.755,163.8l.641.908,4.893.615.794-.729.334-2.663-.513-2.715,7.86.987-1.118,2.509-.88,7.012-3.544,3.033-12.506-1.569Z" transform="translate(-8.279 -6.129)" fill="#d94a4a"/>
      <path d="M328.063,175.625l.769-1.725-3.789-15.824-3.921,5.636-1.03,8.207.457,2.763-7.761-.974,1.126-2.564,4.515-35.981-.458-2.763,7.761.974-1.125,2.564-1.855,14.784,10.344-15.21-.344-1.258,8.8,1.1-2.789,3.018-8.817,12.641,5.25,22.19,1.865,3.546Z" transform="translate(-8.279 -6.129)" fill="#d94a4a"/>
    </g>
    <g>
      <path d="M223.908,227.248l4.791,4.773.033,1.814-3.566,3.579-1.844-.025.018,1.858L219.6,243l-1.83-.012-4.791-4.772.935-.478,9.531-9.568Zm-2.617,9.957-1.4-1.394h-.432l-2.372,2.381v.432l1.4,1.4h.432l2.372-2.381Zm.411-3.644.014.418,1.4,1.394.418.014,2.242-2.252V232.7l-1.4-1.394h-.431Z" transform="translate(-8.279 -6.129)" fill="#d94a4a"/>
      <path d="M219.94,245.146l.921-.462,9.531-9.569.474-.936,4.791,4.772.033,1.815-4.975,4.994-1.843,0-2.614,4.211L225.813,251l-2.266-2.258.835-.519,2.513-4.081.028-.318-.591-.589H225.9l-3.234,3.246-.46.923Zm9.618-2.323.417.015,2.732-2.742-.016-.418-1.414-1.408-.418-.015L228.128,241l.016.417Z" transform="translate(-8.279 -6.129)" fill="#d94a4a"/>
      <path d="M229.164,254.336l-2.266-2.257.921-.464,9.532-9.568.474-.936,2.265,2.256-.935.478-9.531,9.568Z" transform="translate(-8.279 -6.129)" fill="#d94a4a"/>
      <path d="M243.669,253.834l-2.294-2.287.906-.477.719-.721-.016-.417-1.4-1.395-.417-.014-2.3,2.309v.432l2.54,2.531,0,1.814-4.557,4.575-1.815,0-3.651-3.637-.048-1.859,1.841-1.846.488-.9,2.28,2.272-.921.463-.718.721.015.417,1.4,1.395.417.013,2.3-2.308v-.433l-2.51-2.5-.033-1.873,4.572-4.59,1.844.055,3.651,3.637.018,1.8-1.869,1.876Z" transform="translate(-8.279 -6.129)" fill="#d94a4a"/>
      <path d="M241.723,266.846l.633-.319,2.337-5.664-2.519.682L240,263.725l-.474.935-2.265-2.256.934-.478,9.517-9.554.475-.936,2.265,2.256-.935.478-3.91,3.926,6.723-1.9.171-.462,2.569,2.56-1.57.189-5.658,1.524-3.3,7.93-.2,1.526Z" transform="translate(-8.279 -6.129)" fill="#d94a4a"/>
      <path d="M245.03,270.141l.935-.477L255.5,260.1l.46-.923,5.483,5.462-1.68,2.351-.535-.964-2.814-2.8h-.432l-2.257,2.265v.432l.923.92.937.474-2.286,2.293-.477-.934-.923-.92-.418-.014-2.358,2.367v.433l2.814,2.8.966.531-2.388,1.733Z" transform="translate(-8.279 -6.129)" fill="#d94a4a"/>
      <path d="M266.66,273.918l-.578-.979-1.371-1.365h-.4l-8.195,8.227-.459.923-2.295-2.286.922-.463,8.194-8.227-.016-.416-1.4-1.394-.952-.547,2.373-1.719,5.874,5.851Z" transform="translate(-8.279 -6.129)" fill="#d94a4a"/>
    </g>
    <g>
      <path d="M310.059,256.777h-4.51l.425-1.361V254l-.425-.4H302.8l-.426.4v4.538l.426.426h4.992l1.787,1.787v8.992l-1.787,1.787h-7.177l-1.872-1.787V266.11l-.4-1.361h4.481l-.454,1.361v1.418l.426.4h2.752l.425-.4V262.99l-.425-.426h-4.937l-1.872-1.815v-9.02l1.872-1.759h7.177l1.787,1.759v3.687Z" transform="translate(-8.279 -6.129)" fill="#d94a4a"/>
      <path d="M312.156,249.97h4.453l-.454,1.389v7.064l.426.426h2.752l.425-.426v-7.064l-.425-1.389h4.51l-.454,1.389v18.808l.454,1.361h-4.51l.425-1.361v-7.291l-.425-.425h-2.752l-.426.425v7.291l.454,1.361h-4.453l.454-1.361V251.359Z" transform="translate(-8.279 -6.129)" fill="#d94a4a"/>
      <path d="M339.557,271.528h-4.51l.311-.851-.794-3.29-.425-.426h-3.546l-.425.426-.8,3.29.313.851h-4.511l.71-1.447,4.425-18.863-.4-1.248h4.907l-.4,1.248,4.425,18.863Zm-8.226-8.2h2.1l.341-.311-1.391-6.894-1.39,6.894Z" transform="translate(-8.279 -6.129)" fill="#d94a4a"/>
      <path d="M345.342,271.528h-4.453l.454-1.361V251.359l-.454-1.389h4l5.219,13.134V251.359l-.454-1.389h4.511l-.454,1.389v18.808l.454,1.361h-4.057l-5.219-13.105v11.744Z" transform="translate(-8.279 -6.129)" fill="#d94a4a"/>
      <path d="M365.14,271.528l.312-.936-3.263-7.886-1.815,3.148v4.284l.454,1.39h-4.453l.454-1.39V251.359l-.454-1.389h4.453l-.454,1.389v7.716l4.766-8.481-.284-.624h5.049l-1.361,1.73-4.085,7.064L369,269.826l1.305,1.7Z" transform="translate(-8.279 -6.129)" fill="#d94a4a"/>
    </g>
    <g>
      <path d="M394.24,163.874l.819-2.454V127.53l-.819-2.5h16.972l3.271,3.169v17.687l-3.271,3.271,2.81,12.115,1.023,2.607H407.02l.562-2.4-2.76-11.706-.511-.614h-2.1l-.767.767v11.5l.818,2.454Zm12.985-21.163.766-.715v-9.712l-.766-.716h-5.01l-.767.716V142l.767.715Z" transform="translate(-8.279 -6.129)" fill="#d94a4a"/>
      <path d="M426.9,163.874h-8.025l.818-2.454V127.53l-.818-2.5H426.9l-.817,2.5v33.89Z" transform="translate(-8.279 -6.129)" fill="#d94a4a"/>
      <path d="M430.886,125.025h16.971l3.272,3.169v12.678l-3.323,3.22,3.323,3.271v13.291l-3.272,3.22H430.886l.818-2.5v-33.89Zm7.259,15.131.766.716h4.959l.767-.716v-7.974l-.767-.767h-4.959l-.766.767Zm5.725,7.207h-4.959l-.766.767v8.434l.766.767h4.959l.767-.767V148.13Z" transform="translate(-8.279 -6.129)" fill="#d94a4a"/>
    </g>
    <g>
      <path d="M439.639,246.082h-6.126l.578-2.039v-2.124l-.578-.595h-3.738l-.578.595v6.8l.578.638h6.782l2.426,2.675V265.5l-2.426,2.676h-9.748l-2.543-2.676v-5.437l-.539-2.039h6.086l-.616,2.039v2.124l.578.594h3.738l.578-.594v-6.8l-.578-.638h-6.7l-2.543-2.719V238.521l2.543-2.634h9.748l2.426,2.634v5.522Z" transform="translate(-8.279 -6.129)" fill="#d94a4a"/>
      <path d="M442.492,235.887h6.049l-.616,2.082v10.577l.577.638h3.737l.578-.638V237.969l-.578-2.082h6.126l-.616,2.082v28.164l.616,2.039h-6.126l.578-2.039V255.216l-.578-.638H448.5l-.577.638v10.917l.616,2.039h-6.049l.616-2.039V237.969Z" transform="translate(-8.279 -6.129)" fill="#d94a4a"/>
      <path d="M476.321,238.521V265.5l-2.426,2.676h-9.749l-2.465-2.676V238.521l2.465-2.634H473.9Zm-5.509,2.8h-3.7l-.578.595v20.264l.578.594h3.7l.578-.594V241.919Z" transform="translate(-8.279 -6.129)" fill="#d94a4a"/>
      <path d="M479.638,268.172l.616-2.039V237.969l-.616-2.082h12.791l2.466,2.634v14.7l-2.466,2.719,2.119,10.068.77,2.166H489.27l.423-2-2.081-9.729-.384-.509h-1.581l-.577.637v9.558l.617,2.039Zm9.786-17.587.578-.595v-8.071l-.578-.595h-3.777l-.577.595v8.071l.577.595Z" transform="translate(-8.279 -6.129)" fill="#d94a4a"/>
      <path d="M514.662,241.919l-2.08-.595h-3.66l-.54.595v24.214l.617,2.039h-6.127l.617-2.039V241.919l-.578-.595h-3.737l-2,.595.887-6.032h15.68Z" transform="translate(-8.279 -6.129)" fill="#d94a4a"/>
      <path d="M429.93,305.2h-6.049l.616-2.039V275l-.616-2.082h12.791l2.466,2.634v14.741l-2.466,2.719h-6.781l-.578.636v9.516Zm-.039-17.587h3.737l.578-.594v-8.072l-.578-.6h-3.737l-.578.6v8.072Z" transform="translate(-8.279 -6.129)" fill="#d94a4a"/>
      <path d="M456.4,305.2H441.76l.616-2.039V275l-.616-2.082h6.049L447.23,275v24.214l.579.595h7.474l2-.595Z" transform="translate(-8.279 -6.129)" fill="#d94a4a"/>
      <path d="M477.67,305.2h-6.126l.424-1.274L470.89,299l-.578-.637H465.5l-.578.637-1.078,4.928.424,1.274h-6.126l.963-2.166,6.01-28.25-.54-1.869h6.666l-.54,1.869,6.011,28.25ZM466.5,292.926h2.851l.463-.468-1.888-10.322-1.888,10.322Z" transform="translate(-8.279 -6.129)" fill="#d94a4a"/>
      <path d="M492.813,278.949l-2.08-.6h-3.66l-.54.6v24.214l.617,2.039h-6.126l.617-2.039V278.949l-.579-.6h-3.737l-2,.6.887-6.032h15.681Z" transform="translate(-8.279 -6.129)" fill="#d94a4a"/>
      <path d="M494.781,305.2l.616-2.081V274.956l-.616-2.039h14.641l.886,5.947-2-.636h-7.514l-.577.636v6.67l.577.637h2.466l1.889-.68v6.755l-1.889-.68h-2.466l-.577.6v6.967l.577.637h7.514l2-.637-.886,6.074Z" transform="translate(-8.279 -6.129)" fill="#d94a4a"/>
    </g>
    <g>
      <g>
        <path d="M483.3,127.5h-3.712l.351-1.121v-1.167l-.351-.327h-2.265l-.35.327v3.735l.35.35h4.11l1.47,1.471v7.4l-1.47,1.471h-5.908l-1.54-1.471V135.18l-.327-1.121h3.689l-.374,1.121v1.167l.35.327h2.265l.351-.327v-3.736l-.351-.35h-4.063l-1.54-1.494v-7.424l1.54-1.447h5.908l1.47,1.447v3.035Z" transform="translate(-8.279 -6.129)" fill="#d94a4a"/>
        <path d="M485.026,121.9h3.666l-.374,1.144v5.813l.351.35h2.265l.349-.35V123.04l-.349-1.144h3.712l-.375,1.144v15.478l.375,1.121h-3.712l.349-1.121v-6l-.349-.35h-2.265l-.351.35v6l.374,1.121h-3.666l.374-1.121V123.04Z" transform="translate(-8.279 -6.129)" fill="#d94a4a"/>
        <path d="M505.528,123.343v14.825l-1.47,1.471h-5.907l-1.494-1.471V123.343l1.494-1.447h5.907Zm-3.339,1.541h-2.241l-.349.327v11.136l.349.327h2.241l.351-.327V125.211Z" transform="translate(-8.279 -6.129)" fill="#d94a4a"/>
        <path d="M507.539,139.639l.374-1.121V123.04l-.374-1.144h7.751l1.494,1.447v8.078l-1.494,1.494,1.284,5.533.467,1.191h-3.665l.257-1.1-1.261-5.347-.233-.28h-.957l-.351.35v5.253l.374,1.121Zm5.931-9.665.349-.328v-4.435l-.349-.327h-2.288l-.351.327v4.435l.351.328Z" transform="translate(-8.279 -6.129)" fill="#d94a4a"/>
        <path d="M528.764,125.211l-1.261-.327h-2.218l-.326.327v13.307l.373,1.121H521.62l.373-1.121V125.211l-.349-.327h-2.265l-1.214.327.537-3.315h9.5Z" transform="translate(-8.279 -6.129)" fill="#d94a4a"/>
      </g>
      <g>
        <path d="M486.434,176.158H473.8l.532-2.052V145.759l-.532-2.094h5.221l-.5,2.094V170.13l.5.6h6.45l1.728-.6Z" transform="translate(-8.279 -6.129)" fill="#d94a4a"/>
        <path d="M494.178,176.158h-5.22l.532-2.052V145.759l-.532-2.094h5.22l-.532,2.094v28.347Z" transform="translate(-8.279 -6.129)" fill="#d94a4a"/>
        <path d="M509.671,146.315v27.15l-2.095,2.693h-8.412l-2.128-2.693v-27.15l2.128-2.65h8.412Zm-4.755,2.822h-3.191l-.5.6V170.13l.5.6h3.191l.5-.6V149.735Z" transform="translate(-8.279 -6.129)" fill="#d94a4a"/>
        <path d="M517.747,176.158h-5.22l.533-2.052V145.759l-.533-2.094h4.688l6.118,19.8v-17.7l-.532-2.094h5.287l-.532,2.094v28.347l.532,2.052h-4.755l-6.118-19.753v17.7Z" transform="translate(-8.279 -6.129)" fill="#d94a4a"/>
      </g>
    </g>
    <g>
      <path d="M567.847,181.129v5.376L566.224,186h-1.691l-.473.507v3.28l.473.507h5.41l.507-.507v-5.951l2.131-2.13H583.3l2.13,2.13v8.555l-2.13,2.232h-4.328l-1.623.473v-5.343l1.623.541h1.69l.474-.507v-3.28l-.474-.507h-5.41l-.507.507v5.884l-2.164,2.232H561.828l-2.1-2.232v-8.555l2.1-2.13h4.4Z" transform="translate(-8.279 -6.129)" fill="#d94a4a"/>
      <path d="M585.43,173.315v5.309l-1.623-.541H561.389l-1.658.541v-5.309l1.658.541h22.418Z" transform="translate(-8.279 -6.129)" fill="#d94a4a"/>
      <path d="M585.43,170.677l-1.623-.541H561.389l-1.658.541V159.451l2.1-2.164h11.7l2.164,2.164,8.014-1.86,1.725-.676v5.309l-1.589-.372-7.744,1.826-.406.338V165.4l.507.507h7.609l1.623-.541Zm-14-8.589-.473-.507h-6.425l-.473.507V165.4l.473.507h6.425l.473-.507Z" transform="translate(-8.279 -6.129)" fill="#d94a4a"/>
      <path d="M585.43,141.526v12.849l-1.623-.541H561.389l-1.658.541v-5.308l1.658.507h19.273l.474-.507v-6.56l-.474-1.758Z" transform="translate(-8.279 -6.129)" fill="#d94a4a"/>
      <path d="M561.828,125.834H583.3l2.13,2.131v8.555l-2.13,2.164H561.828l-2.1-2.164v-8.555Zm2.232,4.836v3.246l.473.507h16.129l.474-.507V130.67l-.474-.507H564.533Z" transform="translate(-8.279 -6.129)" fill="#d94a4a"/>
      <path d="M585.43,117.615v5.308l-1.623-.541H561.389l-1.658.541v-5.308l1.658.541h22.418Z" transform="translate(-8.279 -6.129)" fill="#d94a4a"/>
      <path d="M585.43,109.667v5.309l-1.623-.541H561.389l-1.658.541v-4.768l15.656-6.221h-14l-1.658.541V99.151l1.658.541h22.418l1.623-.541v4.836l-15.622,6.221h14Z" transform="translate(-8.279 -6.129)" fill="#d94a4a"/>
    </g>
    <g>
      <path d="M578.752,306.226l-2.159-11.784,4.21-1.508-.169,1.7,1.108,6.047.55.379,4.992-.915.38-.55-.363-1.985-.77-1.4,4.931-.9-.223,1.579.364,1.984.519.386L600,297.812l1.429-.774.892,4.868-1.61-.218-20.558,3.769Z" transform="translate(-8.279 -6.129)" fill="#d94a4a"/>
      <path d="M597.567,275.987l2.161,11.784-1.58-.224-20.558,3.768-1.429.775-.892-4.868,1.605.186,17.674-3.24.349-.544-1.1-6.016-.731-1.532Z" transform="translate(-8.279 -6.129)" fill="#d94a4a"/>
      <path d="M594.431,258.874l.9,4.931-.992-.17-3.438,1.527-.38.55.71,3.876.551.38,3.756.208.867-.511.9,4.931-1.723-.486-21.507-1.058-1.285.684-.984-5.364,1.445.184,19.733-8.617Zm-7.314,10.635-.42-2.294-.409-.31-7.256,2.9,7.813.138Z" transform="translate(-8.279 -6.129)" fill="#d94a4a"/>
      <path d="M593.271,252.553l.893,4.868-1.579-.224-20.558,3.769-1.429.774-.8-4.373,13.311-8.336-12.836,2.354-1.429.773-.9-4.93,1.611.218,20.557-3.769,1.4-.769.813,4.435-13.28,8.331,12.837-2.354Z" transform="translate(-8.279 -6.129)" fill="#d94a4a"/>
      <path d="M589.306,230.913l-1.086-.154-7.967,5.146,3.806,1.353,4.681-.858,1.429-.774.893,4.869-1.611-.218-20.526,3.763-1.43.774-.892-4.868,1.611.217,8.433-1.546-10.225-3.51-.626.436-1.012-5.52,2.165,1.141,8.539,3.05,11.184-7.177,1.6-1.768Z" transform="translate(-8.279 -6.129)" fill="#d94a4a"/>
    </g>
    <g>
      <path d="M636.709,208.968l-.017-3.268-13.747-40.557-1.994-2.666,20.31-6.884,5.2,2.466,7.174,21.165-2.588,5.243,8.278,13.358,2.281,2.7-9.6,3.255-.3-3.1-8.051-12.889-.861-.526-2.508.85-.605,1.229,4.664,13.763,1.974,2.6Zm6.954-30.592.627-1.168-3.939-11.623-1.208-.544-6,2.031-.626,1.168,3.939,11.623,1.208.545Z" transform="translate(-8.279 -6.129)" fill="#d94a4a"/>
      <path d="M675.459,148.23l13.167,38.845-2.549,5.159L670.6,197.48l-5.221-2.526-13.166-38.845,2.629-5.12,15.476-5.246Zm-7.379,7-5.872,1.99-.628,1.168,9.891,29.18,1.208.545,5.872-1.99.627-1.168-9.89-29.18Z" transform="translate(-8.279 -6.129)" fill="#d94a4a"/>
      <path d="M704.678,137.44l13.436,39.64-2.609,5.18-15.537,5.267-5.1-2.569-13.435-39.639-2-2.666,9.6-3.256.037,3.33L700.9,177.6l1.208.546,6-2.032.627-1.168-11.819-34.868-1.994-2.666,9.727-3.3Z" transform="translate(-8.279 -6.129)" fill="#d94a4a"/>
      <path d="M734.654,175.77l-9.6,3.255-.016-3.269L711.287,135.2l-2-2.666,8.626-2.924,20.855,24.508-8.584-25.325-2-2.667,9.727-3.3.037,3.33,13.747,40.556,1.974,2.6-8.748,2.965L724.1,147.839l8.584,25.326Z" transform="translate(-8.279 -6.129)" fill="#d94a4a"/>
      <path d="M742.7,121.212l20.31-6.884,5.2,2.466,13.166,38.845-2.608,5.18-20.31,6.884-.159-3.287-13.747-40.558Zm21.419,34.82,1.229.606,5.933-2.011.606-1.228-9.89-29.179-1.228-.606-5.934,2.011-.606,1.228Z" transform="translate(-8.279 -6.129)" fill="#d94a4a"/>
    </g>
    <g>
      <path d="M675.755,317.1l-5.189,2.733-.336-1.824-.859-1.632-.73-.2-3.164,1.668-.249.715,2.751,5.22.747.232,5.743-3.027,3.137.974,5.451,10.343-.973,3.138-8.255,4.35-3.237-.921-2.2-4.177-1.283-1.325,5.157-2.716.3,1.841.86,1.632.73.2,3.165-1.668.249-.715-2.751-5.22-.747-.232-5.678,2.992-3.253-.954-5.467-10.376,1.088-3.158,8.255-4.349,3.121.94,2.235,4.241Z" transform="translate(-8.279 -6.129)" fill="#d94a4a"/>
      <path d="M674.043,307.994l5.122-2.7.321,1.874,4.28,8.124.748.231,3.165-1.668.231-.747-4.281-8.124-1.332-1.341,5.188-2.733.321,1.874,11.4,21.632,1.348,1.291-5.188,2.734-.336-1.824-4.418-8.387-.748-.23-3.164,1.667-.232.747,4.419,8.386,1.346,1.292-5.122,2.7-.3-1.842-11.4-21.633Z" transform="translate(-8.279 -6.129)" fill="#d94a4a"/>
      <path d="M718.627,316.186l-5.188,2.733-.157-1.168-2.908-3.3-.747-.231-4.078,2.149-.232.746,1.08,4.267.875.79-5.188,2.733-.061-2.093-6.342-24.38-1.213-1.2,5.644-2.974.3,1.678,16.523,19.015Zm-14.43-4.445,2.414-1.272.2-.566-5.775-7.086,2.578,8.771Z" transform="translate(-8.279 -6.129)" fill="#d94a4a"/>
      <path d="M725.283,312.678l-5.123,2.7-.3-1.841-11.4-21.633L707.1,290.58l4.6-2.425L725.659,300.1l-7.118-13.508-1.364-1.324,5.187-2.734.322,1.874,11.4,21.632,1.347,1.292-4.665,2.458-13.947-11.911,7.118,13.508Z" transform="translate(-8.279 -6.129)" fill="#d94a4a"/>
      <path d="M748.057,300.679l-.207-1.266-8.533-7.094-.179,4.722,2.595,4.927,1.365,1.324-5.123,2.7-.321-1.874-11.381-21.6-1.364-1.325,5.122-2.7.322,1.874,4.675,8.875.341-12.644-.7-.546,5.808-3.061-.518,2.817-.418,10.6,11.926,9.975L754,297.55Z" transform="translate(-8.279 -6.129)" fill="#d94a4a"/>
    </g>
  </g>
</svg>
