<svg xmlns="http://www.w3.org/2000/svg" width="844.451" height="448.469" viewBox="0 0 844.451 448.469">
  <g>
    <path d="M15.032,75.393c1.285,5.939,7.935,15.776,18.165,19.65a15.036,15.036,0,0,0,8.362.6,85.835,85.835,0,0,0,9.81,11.707c-6.946,19.418-12.148,46.691-8.989,64.052,3.191,17.542,7.923,63.088,22.54,91.572C72,286.14,84.531,293.107,89.171,314.492c2.722,12.55-6.31,33.586-4.28,46.263,2.219,13.858,7.709,18.516,10.046,32.453,1.637,9.762,3.612,19.469,5.236,29.232,1.271,7.64,0,14.294,0,20.455,0,5.069,1.246,11.463,7.925,12.225,1.324.151,1.055-6.454,2.361-6.367.552.037,3.062,8.815,3.678,8.853,7.611.469,20.689,2.29,22.335.922,1.779-1.478-7.052-20.345-8.305-26.752-1.472-7.523.368-16.162,1.34-23.644,1.281-9.862,2.882-19.8,6.675-29.094,5.942-14.553,17.014-26.195,28.736-36.747-.976,2.8-1.83,5.506-2.459,8.084-1.838,7.544,6.545,33.454,6.545,33.454,2.422,14.947,9.186,30.675,9.186,30.675,1.051,5.809-.933,22.466,7.208,23.6,3.8.529,1.015-11.541,3.147-7.1s.246,6.229,3.947,11.469c3.068,4.344,8.361,2.509,21.769,2.317,7.058-.1-4.988-15.31-8.488-27.677s-1.686-31.609,5.294-51.726c4.028-11.607,22.375-37.5,31.712-50.27,47.778,18.6,43.1,19.473,114.917,26.337,28.3,2.7,149.473-8.98,180.332-14.4,6.745,13.718,11.9,30.81,14.247,37.7,2.389,7,6.2,52.058,6.613,54.134.514,2.6,2.236,34.769,11.637,35.182,4.235.186-.437-11.418,2.952-8.383,4.75,4.254,3.425,9.8,6.622,11.392,3.3,1.646,21.342,3.46,20.576-.084-3.354-15.526-7.273-19.082-11.824-31.268-4.415-11.825,2.024-30.773,1.808-43.131-.1-5.722,2.575-10.217,4.963-14.914,1.191,5.865,2.468,11.124,3.706,13.707,2.47,5.15,4.108,29.33,4.491,31.177s2.52,9.81,2.871,11.326c.776,3.339,2.707,15.379,9.262,15.24,3.38-.071-1.94-9.579.785-8.266,4.144,2,4.1,11.836,8.557,13.789,1.486.651,16.809-.586,19.049-.788,2.645-.237,1.934-3.649,1.433-5.274-.731-2.37-5.666-8.875-6.648-11.154-1.129-2.623-3.817-8.072-5.071-10.954-2.337-5.371-3.207-23.326-3.155-31.985.034-5.853,4.375-28.974,4.825-44.621a148.222,148.222,0,0,1,2.681-22.469c2.188-.4,4.9-.968,7.06-1.43,27.967-5.987,106.346-17.476,123.423-24.832,17.138-7.382,13.543-4.736,38.778-13.867,18.193-6.583,29.587-19.413,32.151-22.124,2.956.195,7.625.58,9.922-3.087,5.312-8.481-1.016-43.835-1.016-43.835s-.557-2.355-6.688-1.952c-3.339.219-4.948,1.839-5.614,3.527-18.542-7.249-32.834-6.422-47.513-22.077a117.121,117.121,0,0,1-14.2-18.71c27.475-19.169,47.27-70,47.27-70s-28.16-15.108-70.189,1.338A193.807,193.807,0,0,0,762.07,78.305s-26.626-14.287-64.513,7.31c-10.658-8.132-27.216-11.7-33.22-15.747-28.728-19.339-28.1-16.4-61-28.867C571.279,28.855,536.684,17.755,502.32,16.5c-19.329-.705-37.867.742-57.212.609-33.174-.228-64.838-1.547-97.132-1.051-31.564.485-92.646.389-123.6,5.3-35.713,5.671-65.46,12.381-107.694,30.273C89.376,63.2,70.873,68.926,57.692,92.878c-1.262-1.223-2.484-2.5-3.653-3.812a47.7,47.7,0,0,0,7.022-7.408c6.325-8.3-.494-25.429-9.373-30.679s-16.483.868-20.241,6.221,2.176,22.562,2.176,22.562a52.24,52.24,0,0,0,2.163,5.7c-3.468-.578-6.577-3-10.406-6.2C19.76,74.547,14.6,61.652,14.6,61.652,14.657,62.272,13.746,69.454,15.032,75.393Zm24.657-8.9c.725-3.348,4.549-2.808,6.6-1.072,2.823,2.389,4.555,6.766,3.434,10.327-1.643,5.215-6.331.445-8.178-2.034A9.5,9.5,0,0,1,39.689,66.5Z" transform="translate(-10.109 -13.254)" fill="none" stroke="#d94a4a" stroke-miterlimit="10" stroke-width="5.388"/>
    <path d="M46.289,65.424c2.823,2.389,4.555,6.766,3.434,10.327-1.643,5.215-6.331.445-8.178-2.034A9.5,9.5,0,0,1,39.689,66.5C40.414,63.148,44.238,63.688,46.289,65.424Z" transform="translate(-10.109 -13.254)" fill="none"/>
    <path d="M528.274,336.842q-1.217-3.964-2.387-7.948c3.04-.416,5.786-.815,8.19-1.192A75.887,75.887,0,0,0,528.274,336.842Z" transform="translate(-10.109 -13.254)" fill="none"/>
    <path d="M709.707,254.653c-25.028-4.129-47.162-9.522-65.853-16.039q-.562-2.775-1.074-5.572l-.111-.612c18.939,6.839,41.958,12.638,67.88,16.916,20.784,3.431,43.637,6,67.923,7.632,23.819,1.6,44.395,1.98,57.635,2.011-1.574,1.542-3.569,3.383-5.963,5.337-13.17-.125-31.368-.6-51.975-1.984C753.7,260.7,730.669,258.111,709.707,254.653Z" transform="translate(-10.109 -13.254)" fill="#d94a4a"/>
    <path d="M633.714,143.281A386.622,386.622,0,0,1,644.63,80.1c2.254-8.6,4.318-15.164,5.718-19.324,1.462.9,3.017,1.875,4.693,2.953a367.205,367.205,0,0,0-15.99,80.189,336.544,336.544,0,0,0,3.113,85.64q.3,1.745.616,3.482.512,2.8,1.074,5.572a276.3,276.3,0,0,0,25.535,72.831c-1.9.337-3.746.668-5.538.992a283.887,283.887,0,0,1-27-82.079A342.008,342.008,0,0,1,633.714,143.281Z" transform="translate(-10.109 -13.254)" fill="#d94a4a"/>
    <path d="M595.9,155.861a710.41,710.41,0,0,0,3.824,79.452,68.825,68.825,0,0,0-5.833-4.274,716.288,716.288,0,0,1-3.363-75.309c.178-21.673,1.348-43.23,3.478-64.072,2.524-24.7,5.828-42.6,7.627-51.3q.851.32,1.7.641c1.174.445,2.3.868,3.392,1.276-1.8,8.832-4.956,26.238-7.385,50.055C597.232,113,596.076,134.371,595.9,155.861Z" transform="translate(-10.109 -13.254)" fill="#d94a4a"/>
    <path d="M643.347,318.613l-.213.379c-.041-.186-.082-.374-.125-.565Z" transform="translate(-10.109 -13.254)" fill="#f1f1f1"/>
    <path d="M638.275,322.022l-.617-.307q.12-.719.243-1.429C638.035,320.9,638.16,321.477,638.275,322.022Z" transform="translate(-10.109 -13.254)" fill="#f1f1f1"/>
    <path d="M534.077,327.7a58.727,58.727,0,0,1,30.757-21.86,76.083,76.083,0,0,1,27.8-2.623,118.568,118.568,0,0,1,25.191,4.916,150.067,150.067,0,0,1,18.924,7.185c.447,1.823.831,3.487,1.157,4.966q-.123.711-.243,1.429a143.668,143.668,0,0,0-21.4-8.439c-13.057-3.963-32.308-7.577-49.877-2.29a53.305,53.305,0,0,0-27.08,18.735q-.628-1.353-1.275-2.671C536.842,327.259,535.52,327.477,534.077,327.7Z" transform="translate(-10.109 -13.254)" fill="#d94a4a"/>
    <path d="M524.567,228a70.913,70.913,0,0,1,23.679-6.47,86.852,86.852,0,0,1,26.583,1.311,58.636,58.636,0,0,1,19.064,8.2,68.825,68.825,0,0,1,5.833,4.274,81.3,81.3,0,0,1,9.741,9.461c8.036,9.171,15.184,21,21.245,35.158a223.546,223.546,0,0,1,11.878,36.649c-.753.155-1.516.31-2.258.456-.667.132-1.316.256-1.924.367q-.257,1.43-.507,2.882c-.326-1.479-.71-3.143-1.157-4.966a217.814,217.814,0,0,0-11.013-33.373c-5.839-13.614-12.682-24.944-20.341-33.674-9.423-10.74-20.112-17.537-31.772-20.2l-.027-.007a82.961,82.961,0,0,0-24.964-1.177,65.423,65.423,0,0,0-21.812,5.989,52.9,52.9,0,0,0-19.348,15.917q-.594-3.526-1.152-7.06A58.122,58.122,0,0,1,524.567,228Z" transform="translate(-10.109 -13.254)" fill="#d94a4a"/>
    <path d="M528.274,336.842q.387,1.26.78,2.518l-1.66-.851Q527.828,337.665,528.274,336.842Z" transform="translate(-10.109 -13.254)" fill="#f1f1f1"/>
    <path d="M264.3,92.272c42.429-5.878,103.05-6.925,146.563-6.764,40.25.149,73.631,1.33,83,1.692,1.659.064,2.566.1,2.623.105l-.231,5.368c-.057,0-1-.043-2.728-.109-9.494-.366-42.681-1.535-82.683-1.683-43.32-.161-103.643.877-145.757,6.706l-.8.11-.748-5.32C263.788,92.341,264.043,92.307,264.3,92.272Z" transform="translate(-10.109 -13.254)" fill="#d94a4a"/>
    <path d="M269.925,175.842a574.008,574.008,0,0,1,81.875,1.081c23.789,1.9,48.736,5.1,74.147,9.519,34.385,5.977,60.422,12.612,69.815,15.127,2.427.65,3.745,1.026,3.807,1.044l-1.482,5.164c-.04-.012-.636-.181-1.738-.483-6.955-1.905-34.215-9.108-71.322-15.558-25.249-4.389-50.03-7.571-73.655-9.458a567.918,567.918,0,0,0-81.577-1.043Q269.876,178.541,269.925,175.842Z" transform="translate(-10.109 -13.254)" fill="#d94a4a"/>
    <path d="M269.633,185.932c10.274,25.082,29.26,46.381,56.449,63.317,22.193,13.824,49.86,24.792,82.234,32.6,47.134,11.368,90.752,12.647,102.938,12.772,2.116.021,7.672.008,7.746.007l.077,5.372-5.706.006c-.241,0-.515,0-.819,0-4.434-.017-15.474-.192-30.431-1.342A481.731,481.731,0,0,1,407.163,287.1c-32.956-7.939-61.175-19.129-83.874-33.258-24.717-15.387-42.92-34.315-54.254-56.378Q269.4,191.71,269.633,185.932Z" transform="translate(-10.109 -13.254)" fill="#d94a4a"/>
    <path d="M192.779,282.47a191.192,191.192,0,0,1,41.3,23.433c2.742,2.042,5.144,3.943,7.184,5.625q-.923,2.731-1.883,5.449a186.392,186.392,0,0,0-48.8-29.6c-19.445-7.883-39.037-11.514-58.223-10.793a132.259,132.259,0,0,0-53.705,13.923c-.946-1.512-1.908-3.026-2.872-4.575a137.671,137.671,0,0,1,56.492-14.722C152.249,270.477,172.606,274.266,192.779,282.47Z" transform="translate(-10.109 -13.254)" fill="#d94a4a"/>
    <path d="M241.261,311.528a445.173,445.173,0,0,0,21.516-102.7,480.642,480.642,0,0,0-1.915-102.259A474.162,474.162,0,0,0,246.6,35.921c-1.925-6.729-3.711-12.3-5.16-16.567q2.7-.237,5.523-.45c1.371,4.1,3,9.249,4.757,15.38A474.141,474.141,0,0,1,264.3,92.272c-.253.035-.508.069-.76.1l.748,5.32.8-.11q.569,3.993,1.088,8.13a491.576,491.576,0,0,1,3.755,70.125q-.05,2.7-.13,5.393-.069,2.35-.162,4.7-.229,5.776-.6,11.53-.377,5.877-.9,11.726a450.274,450.274,0,0,1-22.483,106.1c-.1.281-.193.562-.289.842q-1.269-.5-2.587-1.009c-.669.914-1.385,1.9-2.137,2.937-.4-.344-.821-.7-1.264-1.078Q240.337,314.259,241.261,311.528Z" transform="translate(-10.109 -13.254)" fill="#d94a4a"/>
    <path d="M46.289,65.424c2.823,2.389,4.555,6.766,3.434,10.327-1.643,5.215-6.331.445-8.178-2.034A9.5,9.5,0,0,1,39.689,66.5C40.414,63.148,44.238,63.688,46.289,65.424Z" transform="translate(-10.109 -13.254)" fill="none"/>
    <path d="M491.448,128.4a874.139,874.139,0,0,1,7.283-112q1.789.042,3.589.107c.453.016.905.036,1.357.055a868.359,868.359,0,0,0-7.3,111.912c.047,38.67,2.956,74.124,8.647,105.376,6.8,37.343,17.609,68.724,32.142,93.356-1.547.263-3.294.541-5.222.829-14.342-24.882-25.021-56.249-31.773-93.343C494.425,203.134,491.491,167.374,491.448,128.4Z" transform="translate(-10.109 -13.254)" fill="#d94a4a"/>
    <g>
      <path d="M672.476,120.561l7.967,3.975-2.051,2.08-6.306,12.638.381,1.141,4.924,2.456,1.14-.381,6.306-12.638.479-2.865,8.069,4.026-2.052,2.08-16.79,33.648-.4,2.841-8.07-4.026,1.977-2.057,6.509-13.041-.382-1.142-4.923-2.456-1.141.382L661.6,160.264l-.4,2.841-7.969-3.976,2.028-2.031,16.79-33.647Z" transform="translate(-10.109 -13.254)" fill="#d94a4a"/>
      <path d="M678.1,171.538l2.052-2.082,16.79-33.647.4-2.84,19.285,9.622-2.378,7.687-2.259-2.079-9.9-4.937-1.141.382-3.975,7.967.38,1.141,3.248,1.62,2.892.43-4.025,8.069-2.083-2.054-3.248-1.62-1.116.331-4.152,8.324.381,1.14,9.9,4.938,3.019.556-4.788,6.674Z" transform="translate(-10.109 -13.254)" fill="#d94a4a"/>
      <path d="M725.4,195.139l-8.068-4.027,1.317-1.244,1.517-6.6-.381-1.141-6.344-3.165-1.142.382-4.358,5.177-.2,1.8-8.07-4.026,2.561-1.954,24.757-29.8.4-2.587,8.779,4.381-1.824,1.878-8.922,37.7ZM718,173.128,721.753,175l.888-.254,3.666-13.572-8.64,11.091Z" transform="translate(-10.109 -13.254)" fill="#d94a4a"/>
      <path d="M747.027,157.76l16.849,8.407,1.679,4.767-16.08,32.226-4.844,1.576-16.849-8.407,1.951-2.133,16.789-33.647Zm-8.468,34.883.38,1.14,4.924,2.457,1.141-.381,12.079-24.209-.381-1.14-4.923-2.457-1.141.382Z" transform="translate(-10.109 -13.254)" fill="#d94a4a"/>
    </g>
    <g>
      <path d="M682.986,269.987l-.308,1.624,2.655,20.615-1.745,2.262-8.112,1.045-2.232-1.75-.836-6.49-.712-1.525,5.026-.648-.306,1.656.517,4.009.535.384,3.086-.4.42-.506-2.336-18.133-.71-1.493Z" transform="translate(-10.109 -13.254)" fill="#d94a4a"/>
      <path d="M698.062,270.051l2.6,20.2-1.745,2.262-8.048,1.036-2.294-1.74-2.6-20.2,1.781-2.234,8.048-1.037Zm-4.278,2.685-3.054.393-.419.507,1.954,15.175.535.382,3.054-.392.418-.507-1.954-15.175Z" transform="translate(-10.109 -13.254)" fill="#d94a4a"/>
      <path d="M722.683,287.965l.569,1.414-5.5.709.193-1.514L713.379,275l-.876,14.277.569,1.414-5.535.713.193-1.511-6.949-19.8-1.225-2.234,4.994-.645-.167.959,4.779,14.262,1.064-14.594-.522-1.291,5.058-.65-.178,1.38,4.758,13.844,1.01-15.008-.469-.877,5.058-.651-.655,2.445Z" transform="translate(-10.109 -13.254)" fill="#d94a4a"/>
      <path d="M741.637,287.01l-12.089,1.557.311-1.592-2.716-21.091-.709-1.493,4.994-.643-.277,1.619,2.336,18.133.534.385,6.172-.8,1.6-.658Z" transform="translate(-10.109 -13.254)" fill="#d94a4a"/>
    </g>
    <g>
      <path d="M624.359,168.447l-.65,4.511-1.313-.66-19.044-2.747-1.473.258.584-4.05,14.061-3.367-11.891-1.716-1.475.257.66-4.568,1.34.662,19.045,2.747,1.445-.259-.592,4.107-14.035,3.371,11.893,1.716Z" transform="translate(-10.109 -13.254)" fill="#d94a4a"/>
      <path d="M625.972,157.271l-1.341-.663-19.045-2.748-1.444.262,1.575-10.915,4.115-.081-.645,1.432-.809,5.6.368.494,4.51.651.494-.369.266-1.838-.258-1.474,4.568.659-.663,1.341-.266,1.838.341.489,4.71.68.493-.369.809-5.6-.216-1.556,4.013,1.253Z" transform="translate(-10.109 -13.254)" fill="#d94a4a"/>
      <path d="M626.085,143.681l-18.239-2.632-1.516-2.095,1.049-7.267,2.041-1.553,3.677.53,1.445-.26-.659,4.567-1.309-.687-1.435-.207-.49.339-.41,2.844.368.494,13.7,1.976.493-.369.41-2.843-.373-.464-1.407-.2-1.45.288.66-4.567,1.312.658,3.7.535,1.549,2.071L628.16,142.1Z" transform="translate(-10.109 -13.254)" fill="#d94a4a"/>
      <path d="M631.124,121.563l-.9-.453-8.462,2.152,2.923,2.3,4.338.626,1.473-.257-.65,4.509-1.342-.663-19.016-2.743-1.473.257.65-4.51,1.341.663,7.813,1.127-7.892-6.064-.673.2.737-5.112,1.554,1.632,6.555,5.167,11.866-2.98,1.914-1.072Z" transform="translate(-10.109 -13.254)" fill="#d94a4a"/>
    </g>
    <g>
      <path d="M527.978,185.36l-.849,5.886-1.848-.834-2.006-.289-.642.474-.519,3.591.483.636,6.423.927.681-.469.941-6.514,2.864-1.968,12.725,1.837,2.194,2.7-1.352,9.365-2.882,2.078-5.137-.741-2,.24.845-5.848,1.841.87,2.007.29.643-.475.518-3.59-.482-.637L536,191.958l-.683.469-.929,6.441-2.922,2.072L518.7,199.1l-2.137-2.8,1.352-9.365,2.825-1.974,5.218.753Z" transform="translate(-10.109 -13.254)" fill="#d94a4a"/>
      <path d="M518.737,181.233l.839-5.811,1.882.876,10,1.442.683-.468.517-3.59-.522-.642-10-1.443-2.047.272.849-5.886,1.881.876,26.616,3.84,2.012-.314-.849,5.886-1.847-.834-10.317-1.488-.682.468-.518,3.59.522.642,10.317,1.489,2.012-.314-.839,5.811-1.841-.87-26.615-3.84Z" transform="translate(-10.109 -13.254)" fill="#d94a4a"/>
      <path d="M525.916,149.1l25.49,3.677,2.193,2.7-1.351,9.365-2.871,2-25.49-3.678-2.148-2.728,1.351-9.365Zm1.886,5.675-.513,3.554.482.636,19.148,2.763.643-.474.512-3.554-.482-.636L528.444,154.3Z" transform="translate(-10.109 -13.254)" fill="#d94a4a"/>
      <path d="M527.967,131.18l26.012,3.754,2.188,2.733-1.356,9.4L551.95,149l-26.012-3.753-2.052.309.838-5.812,1.881.876,22.882,3.3.643-.474.523-3.628-.482-.636-22.882-3.3-2.053.309.85-5.886Z" transform="translate(-10.109 -13.254)" fill="#d94a4a"/>
      <path d="M559.029,117.828,557,131.9l-1.841-.871-26.615-3.839-2.053.308.839-5.811,1.887.839,22.882,3.3.642-.474,1.036-7.181-.285-2.006Z" transform="translate(-10.109 -13.254)" fill="#d94a4a"/>
      <path d="M528.927,110.616,530.7,98.327l2.831-2.01L559.021,100l2.187,2.734-1.772,12.289-1.894-.8-26.613-3.84Zm25.52-1.646.683-.469.517-3.589-.522-.643-19.147-2.762-.682.469-.518,3.589.522.643Z" transform="translate(-10.109 -13.254)" fill="#d94a4a"/>
      <path d="M562.009,97.178l-1.882-.876-26.613-3.84-2.014.314,2.029-14.066,5.743-.04-.878,1.838-1.042,7.218.521.642,6.3.909.681-.468.342-2.369-.381-1.907,6.383.921-.9,1.721-.342,2.369.483.637,6.583.949.682-.468,1.042-7.218-.325-2.011,5.618,1.679Z" transform="translate(-10.109 -13.254)" fill="#d94a4a"/>
      <path d="M564.444,80.3l-1.841-.87-26.616-3.84-2.051.308,1.772-12.289,2.831-2.01,13.889,2,2.227,2.74,9.808-.663,2.154-.446-.838,5.812-1.828-.679-9.481.673-.535.3-.219,1.517.522.643,9.033,1.3,2.011-.315ZM549.182,68.5l-.482-.636-7.627-1.1-.642.475-.524,3.627.483.636,7.627,1.1.641-.474Z" transform="translate(-10.109 -13.254)" fill="#d94a4a"/>
      <path d="M548.328,44.311l-.849,5.885-1.847-.834-2.006-.289-.643.474-.518,3.591.482.636,6.423.927.682-.469.94-6.515,2.864-1.967,12.726,1.836,2.193,2.7-1.351,9.365-2.882,2.079-5.138-.742-2,.24.845-5.849,1.842.871,2.007.29.642-.475.519-3.59-.483-.637-6.422-.926-.683.468-.93,6.441-2.922,2.072-12.764-1.842-2.137-2.8,1.352-9.366,2.825-1.973,5.218.753Z" transform="translate(-10.109 -13.254)" fill="#d94a4a"/>
    </g>
    <g>
      <path d="M289.843,32.344h18.075l3.484,3.375v13.5l-3.539,3.43,3.539,3.485V70.291l-3.484,3.43H289.843l.871-2.668v-36.1Zm7.73,16.115.817.762h5.281l.817-.762V39.966l-.817-.817H298.39l-.817.817Zm6.1,7.677H298.39l-.817.816v8.984l.817.816h5.281l.817-.816V56.952Z" transform="translate(-10.109 -13.254)" fill="#d94a4a"/>
      <path d="M342,73.721h-8.656l.6-1.634-1.524-6.315-.816-.817H324.8l-.817.817-1.524,6.315.6,1.634H314.4l1.362-2.777,8.493-36.205-.763-2.395h9.419l-.762,2.395,8.493,36.205ZM326.213,57.986h4.028l.654-.6-2.668-13.23-2.667,13.23Z" transform="translate(-10.109 -13.254)" fill="#d94a4a"/>
      <path d="M344.182,70.291V35.719l3.484-3.375H361.44l3.43,3.375v6.969l.871,2.613h-8.657l.926-2.613V39.966l-.762-.817h-5.39l-.817.817v25.97l.817.816h5.39l.762-.816V63.268l-.926-2.614h8.657l-.871,2.614v7.023l-3.43,3.43H347.666Z" transform="translate(-10.109 -13.254)" fill="#d94a4a"/>
      <path d="M386.6,73.721l.6-1.8-6.26-15.135-3.485,6.043v8.221l.871,2.668h-8.548l.872-2.668V35.012l-.872-2.668h8.548l-.871,2.668V49.82L386.6,33.542l-.545-1.2h9.691l-2.613,3.321-7.84,13.556L394,70.454l2.5,3.267Z" transform="translate(-10.109 -13.254)" fill="#d94a4a"/>
      <path d="M412.132,32.344H432.82l1.253,7.622-2.832-.817H420.625l-.816.817v8.765l.816.817h3.484l2.614-.871v8.656l-2.614-.871h-3.484l-.816.763V71.053l.871,2.668h-8.548L413,71.053v-36.1Z" transform="translate(-10.109 -13.254)" fill="#d94a4a"/>
      <path d="M458.791,73.721h-8.656l.6-1.634-1.524-6.315-.816-.817h-6.806l-.816.817-1.525,6.315.6,1.634h-8.657l1.362-2.777,8.493-36.205-.763-2.395H449.7l-.762,2.395,8.494,36.205ZM443,57.986h4.028l.654-.6-2.668-13.23-2.667,13.23Z" transform="translate(-10.109 -13.254)" fill="#d94a4a"/>
      <path d="M480.19,40.075l-2.94-.763h-5.172l-.763.763V71.107l.872,2.614H463.53l.871-2.614V40.075l-.816-.763H458.3l-2.831.763,1.252-7.731h22.159Z" transform="translate(-10.109 -13.254)" fill="#d94a4a"/>
    </g>
    <g>
      <path d="M531,284.67h-5.285l.539-1.616V260.737l-.539-1.649H536.89l2.154,2.087v11.679l-2.154,2.155h-5.925l-.5.506v7.539Zm-.034-13.936h3.265l.5-.471v-6.4l-.5-.471h-3.265l-.5.471v6.4Z" transform="translate(-10.109 -13.254)" fill="#d94a4a"/>
      <path d="M546.618,284.67h-5.284l.538-1.616V260.737l-.538-1.649h5.284l-.538,1.649v22.317Z" transform="translate(-10.109 -13.254)" fill="#d94a4a"/>
      <path d="M549.514,282.549V261.175l2.154-2.087h8.516l2.121,2.087v4.308l.538,1.616h-5.352l.572-1.616V263.8l-.471-.5H554.26l-.5.5v16.056l.5.5h3.332l.471-.5v-1.649l-.572-1.616h5.352l-.538,1.616v4.342l-2.121,2.121h-8.516Z" transform="translate(-10.109 -13.254)" fill="#d94a4a"/>
      <path d="M570.62,284.67h-5.284l.538-1.616V260.737l-.538-1.649h4.746l6.193,15.585V260.737l-.539-1.649h5.353l-.539,1.649v22.317l.539,1.616h-4.814l-6.193-15.552v13.936Z" transform="translate(-10.109 -13.254)" fill="#d94a4a"/>
      <path d="M589,284.67h-5.285l.539-1.616V260.737l-.539-1.649H589l-.539,1.649v22.317Z" transform="translate(-10.109 -13.254)" fill="#d94a4a"/>
      <path d="M591.9,282.549V261.175l2.154-2.087h8.516l2.121,2.087v4.308l.539,1.616h-5.353l.572-1.616V263.8l-.47-.5h-3.333l-.505.5v16.056l.505.5h3.333l.47-.5v-1.649l-.572-1.616h5.353l-.539,1.616v4.342l-2.121,2.121H594.05Z" transform="translate(-10.109 -13.254)" fill="#d94a4a"/>
    </g>
    <g>
      <path d="M344.654,161.857H315.1l1.244-3.733V106.56l-1.244-3.811h12.21l-1.166,3.811v44.331l1.166,1.089H342.4l4.044-1.089Z" transform="translate(-10.109 -13.254)" fill="#d94a4a"/>
      <path d="M380.738,107.571v49.387l-4.9,4.9H356.162l-4.978-4.9V107.571l4.978-4.822h19.676ZM369.617,112.7H362.15l-1.166,1.089v37.1l1.166,1.089h7.467l1.166-1.089v-37.1Z" transform="translate(-10.109 -13.254)" fill="#d94a4a"/>
      <path d="M399.635,161.857H387.424l1.244-3.733V106.56l-1.244-3.811h12.211l-1.244,3.811v51.564Z" transform="translate(-10.109 -13.254)" fill="#d94a4a"/>
      <path d="M417.91,161.857H405.7l1.244-3.733V106.56l-1.244-3.811h10.966l14.311,36.009v-32.2l-1.245-3.811H442.1l-1.244,3.811v51.564l1.244,3.733H430.976l-14.311-35.931v32.2Z" transform="translate(-10.109 -13.254)" fill="#d94a4a"/>
    </g>
    <g>
      <path d="M345.5,243.987l1.928-2.865,12.087-43.6-.159-3.514,21.832,6.052,3.078,5.245-6.308,22.752-5.376,3.042-.7,16.586.385,3.718-10.324-2.862,1.581-2.891.624-16.042-.439-.97-2.7-.748-1.26.711-4.1,14.8.177,3.449ZM369.75,221.4l1.241-.649,3.464-12.493-.731-1.194-6.445-1.788-1.241.648-3.464,12.493.731,1.195Z" transform="translate(-10.109 -13.254)" fill="#d94a4a"/>
      <path d="M387.516,255.637l-10.324-2.863,1.927-2.865,12.088-43.6-.159-3.513,10.324,2.862-1.946,2.931-12.087,43.6Z" transform="translate(-10.109 -13.254)" fill="#d94a4a"/>
      <path d="M406.5,207.082l21.832,6.053,3.077,5.244-4.521,16.308-5.423,2.958,3.107,5.392-4.74,17.1-5.356,2.975-21.832-6.052,1.946-2.931,12.087-43.6Zm8.735,33.366-6.378-1.768-1.26.714-3.008,10.849.713,1.26,6.379,1.768,1.259-.712,3.008-10.85Zm-4.794-11.312.732,1.193,6.378,1.769,1.242-.647,2.844-10.259-.713-1.259-6.379-1.769-1.259.713Z" transform="translate(-10.109 -13.254)" fill="#d94a4a"/>
      <path d="M460.711,239.108l-10.455-2.9,1.861-2.883.911-3.288-.73-1.194-6.379-1.769-1.241.649-2.917,10.519.712,1.26,11.573,3.209L457.04,248l-5.779,20.846-5.291,2.994-16.637-4.613-3.19-5.345,2.333-8.417-.046-3.412,10.39,2.881-1.927,2.865-.912,3.287.731,1.195,6.379,1.768,1.241-.648,2.917-10.52-.712-1.261L435.1,246.451l-3.173-5.412,5.8-20.91,5.47-2.874,16.637,4.612,3.012,5.226-2.37,8.549Z" transform="translate(-10.109 -13.254)" fill="#d94a4a"/>
    </g>
    <g>
      <path d="M557.246,322.656h5.579l-.568,1.741v8.85l.533.532h3.447l.534-.532V324.4l-.534-1.741h5.651l-.569,1.741v23.562l.569,1.706h-5.651l.534-1.706v-9.133l-.534-.533H562.79l-.533.533v9.133l.568,1.706h-5.579l.568-1.706V324.4Z" transform="translate(-10.109 -13.254)" fill="#d94a4a"/>
      <path d="M588.446,324.859v22.567l-2.239,2.239h-8.99l-2.275-2.239V324.859l2.275-2.2h8.99Zm-5.082,2.346h-3.411l-.533.5v16.951l.533.5h3.411l.533-.5V327.7Z" transform="translate(-10.109 -13.254)" fill="#d94a4a"/>
      <path d="M591.785,347.426V324.859l2.275-2.2h8.991l2.239,2.2v4.549l.568,1.706h-5.65l.6-1.706v-1.776l-.5-.533H596.8l-.533.533v16.951l.533.533h3.518l.5-.533v-1.741l-.6-1.706h5.65l-.568,1.706v4.584l-2.239,2.239H594.06Z" transform="translate(-10.109 -13.254)" fill="#d94a4a"/>
      <path d="M619.468,349.665l.39-1.173-4.087-9.879-2.274,3.945v5.366l.568,1.741h-5.579l.569-1.741V324.4l-.569-1.741h5.579L613.5,324.4v9.667l5.971-10.626-.356-.782h6.326l-1.706,2.168-5.118,8.849,5.687,13.86,1.635,2.132Z" transform="translate(-10.109 -13.254)" fill="#d94a4a"/>
    </g>
    <g>
      <path d="M293.231,265.768l14.334,4.67,1.891,3.578-3.489,10.707-3.692,1.805,1.906,3.678-3.659,11.226-3.649,1.82-14.334-4.671,1.379-1.891,9.329-28.626Zm4.819,22.44-4.189-1.364-.858.436-2.321,7.124.436.859,4.188,1.364.859-.437,2.321-7.124Zm-2.852-7.663.45.815,4.188,1.365.845-.394,2.195-6.735-.437-.859-4.188-1.364-.858.437Z" transform="translate(-10.109 -13.254)" fill="#d94a4a"/>
      <path d="M323.251,311.848l-6.864-2.238.9-1.14.423-5.4-.437-.858-5.4-1.759-.858.437-2.842,4.614.054,1.45-6.866-2.236,1.8-1.852,16.092-26.516.014-2.1,7.47,2.434-1.223,1.7-2.621,30.906ZM314.8,295.29l3.195,1.041.673-.307,1.3-11.181-5.535,9.8Z" transform="translate(-10.109 -13.254)" fill="#d94a4a"/>
      <path d="M325.863,309.689l8.934-27.416,3.636-1.776,10.923,3.56,1.847,3.562-1.8,5.527.016,2.3-6.864-2.237,1.409-1.833.7-2.159-.394-.845L340,286.977l-.858.436-6.711,20.595.436.858,4.275,1.393.815-.45.69-2.116-.059-2.311,6.865,2.237-1.367,1.847-1.814,5.569-3.607,1.835-10.923-3.559Z" transform="translate(-10.109 -13.254)" fill="#d94a4a"/>
      <path d="M371.84,294.344l-8.934,27.416L359.3,323.6l-10.923-3.56-1.877-3.621L355.433,289l3.635-1.776,10.924,3.559Zm-7.1.838-4.145-1.351-.844.394-6.711,20.594.45.815,4.145,1.35.845-.392L365.188,296Z" transform="translate(-10.109 -13.254)" fill="#d94a4a"/>
      <path d="M372.509,327.9l-6.779-2.209,1.367-1.848,9.328-28.626,0-2.339,6.088,1.983,1.43,22.579,5.825-17.876v-2.339l6.864,2.237-1.38,1.89-9.328,28.626.016,2.3-6.174-2.011-1.445-22.536L372.494,325.6Z" transform="translate(-10.109 -13.254)" fill="#d94a4a"/>
    </g>
    <g>
      <path d="M135.985,144.434H103.643l1.362-4.086V83.918l-1.362-4.171h13.363l-1.277,4.171v48.515l1.277,1.191h16.512l4.425-1.191Z" transform="translate(-10.109 -13.254)" fill="#d94a4a"/>
      <path d="M142.452,144.434l1.362-4.171V83.833l-1.362-4.086H174.8l1.958,11.916-4.426-1.276h-16.6l-1.276,1.276v13.363l1.276,1.277h5.448l4.171-1.362v13.533l-4.171-1.362h-5.448l-1.276,1.192v13.958l1.276,1.277h16.6l4.426-1.277L174.8,144.434Z" transform="translate(-10.109 -13.254)" fill="#d94a4a"/>
      <path d="M181.941,139.071V85.024l5.448-5.277h21.534l5.362,5.277V95.919L215.646,100H202.113l1.448-4.085V91.663l-1.192-1.276h-8.341l-1.192,1.276v40.6l1.192,1.277h8.341l1.192-1.277V120.6H200.5l-2.383-10.9h17.533l-1.361,4.256v25.108l-5.362,5.363H187.389Z" transform="translate(-10.109 -13.254)" fill="#d94a4a"/>
      <path d="M103.643,155.3h13.363l-1.362,4.17v21.194l1.276,1.276h8.257l1.276-1.276V159.47l-1.276-4.17h13.532l-1.361,4.17V215.9l1.361,4.085H125.177l1.276-4.085V194.026l-1.276-1.276H116.92l-1.276,1.276V215.9l1.362,4.085H103.643l1.362-4.085V159.47Z" transform="translate(-10.109 -13.254)" fill="#d94a4a"/>
      <path d="M185.859,219.985H172.327l.936-2.552-2.383-9.874-1.276-1.276h-10.64l-1.276,1.276-2.384,9.874.936,2.552H142.707l2.128-4.34,13.278-56.6-1.192-3.744h14.725l-1.192,3.744,13.278,56.6Zm-24.682-24.6h6.3l1.021-.936-4.171-20.683-4.171,20.683Z" transform="translate(-10.109 -13.254)" fill="#d94a4a"/>
      <path d="M218.114,201.431h-6.809l-9.448-22.725V215.9l1.363,4.085H189.856l1.363-4.085V159.47l-1.363-4.17h12l12.853,29.279L227.562,155.3h12l-1.361,4.17V215.9l1.361,4.085H226.2l1.362-4.085V178.706Z" transform="translate(-10.109 -13.254)" fill="#d94a4a"/>
    </g>
    <g>
      <path d="M109.307,297.161h6.66l-.679,2.079V309.8l.636.635h4.115l.636-.635V299.24l-.636-2.079h6.744l-.679,2.079v28.124l.679,2.036h-6.744l.636-2.036v-10.9l-.636-.637h-4.115l-.636.637v10.9l.679,2.036h-6.66l.678-2.036V299.24Z" transform="translate(-10.109 -13.254)" fill="#d94a4a"/>
      <path d="M146.549,299.792v26.936l-2.673,2.672H133.145l-2.715-2.672V299.792l2.715-2.631h10.731Zm-6.067,2.8H136.41l-.636.595v20.233l.636.594h4.072l.637-.594V303.186Z" transform="translate(-10.109 -13.254)" fill="#d94a4a"/>
      <path d="M150.534,326.728V299.792l2.715-2.631H163.98l2.673,2.631v5.43l.679,2.036h-6.745l.722-2.036V303.1l-.594-.637h-4.2l-.636.637v20.233l.636.637h4.2l.594-.637v-2.078l-.722-2.036h6.745l-.679,2.036v5.472L163.98,329.4H153.249Z" transform="translate(-10.109 -13.254)" fill="#d94a4a"/>
      <path d="M183.576,329.4l.467-1.4-4.878-11.793-2.715,4.709v6.405l.679,2.078h-6.66l.678-2.078V299.24l-.678-2.079h6.66l-.679,2.079v11.538l7.126-12.683-.424-.934H190.7l-2.036,2.588-6.108,10.563,6.787,16.543L191.3,329.4Z" transform="translate(-10.109 -13.254)" fill="#d94a4a"/>
    </g>
  </g>
</svg>
