<svg xmlns="http://www.w3.org/2000/svg" width="648.54" height="487.551" viewBox="0 0 648.54 487.551">
  <g>
    <path d="M16.689,112.088s6.878,14.2,31.179,8.676c7.225-1.642,21.845.773,30.855,2.581-.019.27-.033.542-.033.817a11.106,11.106,0,0,0,10.811,11.1,11.111,11.111,0,0,0,8.718,10.153,11.1,11.1,0,0,0-.718,14.242,11.237,11.237,0,0,0-.072,1.251,11.073,11.073,0,0,0,.939,4.471,11.1,11.1,0,0,0,1.9,11.275,11.1,11.1,0,0,0,.711,11.97,11.244,11.244,0,0,0-.1,1.466,11.067,11.067,0,0,0,3.141,7.736,11.106,11.106,0,0,0,2.5,17.557c-.013.224-.022.449-.022.676a11.048,11.048,0,0,0,2.03,6.4,11.1,11.1,0,0,0,.8,12.769q-.017.3-.017.61a11.1,11.1,0,0,0,4.922,9.227,11.1,11.1,0,0,0,6.516,12.8A11.114,11.114,0,0,0,129,272.651,11.106,11.106,0,0,0,140.108,283.7c.274,0,.544-.013.813-.033a11.108,11.108,0,0,0,10.506,9.475,11.1,11.1,0,0,0,2.5,14.585c-.029.323-.046.65-.046.982a11.067,11.067,0,0,0,2.979,7.566A11.1,11.1,0,0,0,158.924,329a11.1,11.1,0,0,0,4,11.076,11.1,11.1,0,0,0,1.411,16.148c-.028.322-.045.648-.045.978a11.06,11.06,0,0,0,2.43,6.93,11.11,11.11,0,0,0-1.349,11.715,11.106,11.106,0,0,0,8.844,14.033c1.484,13.038,2.2,24.27,1.445,28.845-1.333,8.059-4.772,24.5-11.037,36.124-12.384,22.981-7.468,29.121-7.468,29.121s-1.66,4.677,28.344,1.133c2.039-.241,5.408-10.463,2.488-19.952-1.785-5.8.142-16.482,1.842-21.485,5.882-17.321,8.459-31.018,12.694-48.845a27.725,27.725,0,0,1,2.689-5.917,11.192,11.192,0,0,0,2.011.185,11.048,11.048,0,0,0,4.742-1.063,11.149,11.149,0,0,0,4.863,5.269q.05.867.129,1.733c.754,8.11,1.5,16.241,1.826,24.381.733,17.97,2.239,24.834-.319,37.566L207.3,470.608c-9.882,22.192-2.653,18.11-2.324,19.194.529,1.746,8.408,1.827,14.157,1.595,2.318-.093,13.208-.648,15.153-.97,0,0,5.3-14.472,1.1-23.626-3.14-6.846,10.155-46.092,12.514-72.63.011-.121.025-.245.041-.372a11.13,11.13,0,0,0,7.552-6.491,11.109,11.109,0,0,0,4.676-11.965,11.153,11.153,0,0,0,4.383-4.25,11.1,11.1,0,0,0,7.787-13.059,11.1,11.1,0,0,0-.932-11.549,11.1,11.1,0,0,0,12.346-2.134,11.1,11.1,0,0,0,12.888,1.868A11.1,11.1,0,0,0,309.9,343.97a11.1,11.1,0,0,0,17.65-.78,11.1,11.1,0,0,0,17.282,1.891,11.106,11.106,0,0,0,17.106-1.618,11.1,11.1,0,0,0,17.6,1.078,11.1,11.1,0,0,0,16.485.321,11.105,11.105,0,0,0,16.474-2.594,11.106,11.106,0,0,0,18.463-1.586,11.105,11.105,0,0,0,13.926-3.373,11.1,11.1,0,0,0,14.543,2.333,11.107,11.107,0,0,0,14.235-2.31,11.112,11.112,0,0,0,13.623-5.445,11.128,11.128,0,0,0,7.575-.414,11.118,11.118,0,0,0,8.961,7.337,11.108,11.108,0,0,0,9.214,12.694c-.008.169-.013.338-.013.509a11.107,11.107,0,0,0,11.107,11.107c.355,0,.7-.019,1.052-.051a11.105,11.105,0,0,0,11.1,11.018c.084,0,.166,0,.248-.007A11.109,11.109,0,0,0,541.7,391.7c-.209,20.431-3.544,45.581-3.664,51.547-.193,9.583-9.66,13.73-12.616,21.826-2.023,5.54-4.48,12.342-5.309,18.52-.177,1.316,1.339,4.436,6.414,4.86,4.087.429,6.446-.007,9.567.1,5.009.165,12.923.1,12.823-3,2.5-6.326,4.146-10.665,1.919-19.122-2.4-9.114,3.939-18.534,6.589-27.506,4.43-15,8.033-30.665,12.849-45.562A11.107,11.107,0,0,0,580.8,384.21a11.1,11.1,0,0,0,11.1,10.928h.063c.414,2.69.711,5.4.876,8.112.565,9.248,1.067,18.5,1.628,27.749.5,8.313,1.088,17.215-1.275,25.316-2.481,8.5-7.841,8.748-9.8,17.114-1.892,8.063-6.85,8.716-7,18.772-.019,1.329,2.583,2.236,7.658,2.66,4.087.429,4.645-.276,7.767-.173,5.009.165,12.827.827,12.726-2.271,2.5-6.326,5.056-9.021,2.818-18.49-.781-3.3,12.39-36.466,9.243-51.886-1.391-6.817,4.756-24.374,9.934-40.569a11.107,11.107,0,0,0,6.361-9.9,11.1,11.1,0,0,0,2.131-14.327,11.1,11.1,0,0,0-2.932-15.963q-.184-1.124-.4-2.265a11.108,11.108,0,0,0-4.159-17.406c-.046-.167-.091-.334-.137-.5a11.107,11.107,0,0,0,.116-20.326,11.107,11.107,0,0,0-1.352-18.011,11.1,11.1,0,0,0-.432-14.78,11.1,11.1,0,0,0,2.682-13,11.11,11.11,0,0,0,5.093-14,11.1,11.1,0,0,0,1.318-14.438,11.053,11.053,0,0,0,1.359-5.326c0-.086,0-.171-.006-.256a11.192,11.192,0,0,0,1.688-2.147,11.1,11.1,0,0,0,16.689-4.544,11.1,11.1,0,0,0,3.987-17.956,11.061,11.061,0,0,0,.85-4.264,11.186,11.186,0,0,0-.1-1.45,11.1,11.1,0,0,0-5.629-17.1,11.1,11.1,0,0,0,1.824-10.58,11.108,11.108,0,0,0-6.322-15.77,11.1,11.1,0,0,0-.7-12.6,11.109,11.109,0,0,0-8.921-14.127,11.24,11.24,0,0,0,.088-1.381,11.107,11.107,0,0,0-11.107-11.107c-.076,0-.152,0-.228.006a11.086,11.086,0,0,0-12.48-10.885A11.108,11.108,0,0,0,602.1,86.331a11.112,11.112,0,0,0-15.457-6.924,11.1,11.1,0,0,0-16.91-2.142,11.106,11.106,0,0,0-16.551-4.872,11.1,11.1,0,0,0-15.264-.677,11.1,11.1,0,0,0-14.174,1.311,11.114,11.114,0,0,0-12.607-3.757,11.113,11.113,0,0,0-12.024,3.05,11.1,11.1,0,0,0-15.471,2,11.1,11.1,0,0,0-16.069-1.51,11.1,11.1,0,0,0-14.037-.5,11.354,11.354,0,0,0-1.5-.1,11.057,11.057,0,0,0-7.163,2.622,11.1,11.1,0,0,0-14.915.533,11.1,11.1,0,0,0-15.35-1.7,11.1,11.1,0,0,0-13.174-.306,11.1,11.1,0,0,0-13.678.722,11.1,11.1,0,0,0-14.773.846,11.1,11.1,0,0,0-14.874-.766,11.1,11.1,0,0,0-13.716.487,11.1,11.1,0,0,0-13.261.532,11.1,11.1,0,0,0-12.743,4,11.1,11.1,0,0,0-14.563,3.223,11.1,11.1,0,0,0-16.2-2.082,11.106,11.106,0,0,0-13.949-1.434,11.107,11.107,0,0,0-12.732.381,11.042,11.042,0,0,0-6.021-2.184,11.106,11.106,0,0,0-17.68-2.7,11.1,11.1,0,0,0-18.7-5.781,11.11,11.11,0,0,0-10.505-7.5c-.361,0-.718.019-1.07.053a11.109,11.109,0,0,0-10.778-8.422c-.18,0-.359.005-.538.014a11.108,11.108,0,0,0-10.4-7.2h-.031a11.132,11.132,0,0,0,.118-1.612c0-6.134-5-10.5-11.107-11.107-3.813-.378-3.856,2.17-4.453,2.269,0-.051-.617.052-.617,0,0-6.134-2.058-8.623-7.869-10.589-3.465-1.171-7.49-1.154-10.008.506,1.79-2.032,1.754-3.1,3.874-6.977,1.132-2.069,2.7-7.072,1.221-9.24-3.153-4.626-16.858,4.047-21.222,4.672-4.238.606-7.2,3.786-9.122,7.569a10.351,10.351,0,0,0-17.955-.8,10.347,10.347,0,0,0-12.805,2.267,10.352,10.352,0,0,0-9.012,1.623,10.349,10.349,0,0,0-13.394,4.7c-.239-.016-.479-.028-.721-.028a10.353,10.353,0,0,0-9.381,5.972c-.32-.03-.644-.047-.972-.047A10.353,10.353,0,0,0,51.446,45.077c0,.314.016.623.043.929q-.815.925-1.651,1.956C29.872,72.6,24.522,69.712,16.354,86.826,9.6,100.974,15.01,108.249,16.689,112.088Zm561.447,262.76a11.155,11.155,0,0,0,1.854-1.02,11.069,11.069,0,0,0,2.316,4.621,11.049,11.049,0,0,0-1.333,3.639A11.066,11.066,0,0,0,578.136,374.848ZM149.524,26.9h0c.151.043.273.078,0,0C149.106,26.776,149.337,26.842,149.524,26.9Z" transform="translate(-13.048 -7.449)" fill="#d94a4a"/>
    <path d="M578.136,374.848a11.066,11.066,0,0,1,2.837,7.24,11.049,11.049,0,0,1,1.333-3.639,11.069,11.069,0,0,1-2.316-4.621A11.115,11.115,0,0,1,578.136,374.848Z" transform="translate(-13.048 -7.449)" fill="#f1f1f1"/>
    <path d="M164.253,77.967a257.065,257.065,0,0,0,19.362-39.813,11.56,11.56,0,0,0-4.125-3.726A252.392,252.392,0,0,1,159.841,75.32c-10.773,17.955-23.277,33.316-37.163,45.654a149.341,149.341,0,0,1-30.35,21.012,11.114,11.114,0,0,0,4.97,3.186,155.249,155.249,0,0,0,28.8-20.351C140.373,112.135,153.211,96.371,164.253,77.967Z" transform="translate(-13.048 -7.449)" fill="#f7f1e8"/>
    <path d="M166.791,186.81A369.645,369.645,0,0,0,224.1,116.479a317.338,317.338,0,0,0,23.328-45.092,11.165,11.165,0,0,0-5.708.277,312.85,312.85,0,0,1-21.937,42.013A364.364,364.364,0,0,1,163.334,183a401.391,401.391,0,0,1-56.442,45.459,11.045,11.045,0,0,0,1.416,5.252c2.179-1.427,4.556-3.019,7.11-4.78A411.456,411.456,0,0,0,166.791,186.81Z" transform="translate(-13.048 -7.449)" fill="#f7f1e8"/>
    <path d="M273.972,286.779c0,.208,0,.419.007.626l-5.145.077q-.066-4.422.077-9.245a99.673,99.673,0,0,0-6.494-8.86c-11.339-13.762-25.358-22.634-41.667-26.371-13.337-3.056-27.2-1.906-41.211,3.416-11.092,4.214-22.289,11.041-33.281,20.293A174.092,174.092,0,0,0,132.014,280.2a11.115,11.115,0,0,0,4.39,2.87,166.753,166.753,0,0,1,13.168-12.416c10.547-8.878,21.245-15.412,31.794-19.42,13.042-4.955,25.906-6.035,38.235-3.211,15.157,3.473,28.213,11.743,38.806,24.581,8.567,10.384,15.57,23.767,20.813,39.779a204.254,204.254,0,0,1,7.815,34.175,11.047,11.047,0,0,0,4.45.933c.3,0,.6-.017.9-.041a210.382,210.382,0,0,0-8.237-36.553A148.019,148.019,0,0,0,273.972,286.779Z" transform="translate(-13.048 -7.449)" fill="#f7f1e8"/>
    <path d="M276.324,215.79c-4.422,24.317-6.907,45.266-7.413,62.447q2.654,4.06,5.061,8.542a264.118,264.118,0,0,1,1.435-28.68c-1.591-.117-2.459-.185-2.509-.189l.4-5.129c.051,0,.966.075,2.647.2q1.857-16.56,5.434-36.253c4.163-22.892,10.058-48.858,17.522-77.176,6.3-23.9,12.678-45.492,17.528-61.247a11.01,11.01,0,0,0-5.245-.448c-4.823,15.707-11.074,36.926-17.25,60.352C286.438,166.66,280.512,192.762,276.324,215.79Z" transform="translate(-13.048 -7.449)" fill="#f7f1e8"/>
    <path d="M268.834,287.482l5.145-.077c0-.207,0-.418-.007-.626q-2.406-4.479-5.061-8.542Q268.768,283.058,268.834,287.482Z" transform="translate(-13.048 -7.449)" fill="#f1f1f1"/>
    <path d="M493.4,217.618c1.582-33.113,5.906-63.676,12.852-90.84,6.177-24.155,13.327-41.093,18.237-51.049q1.353-2.742,2.57-5a11.136,11.136,0,0,0-3.316,2.294,11.2,11.2,0,0,0-2.457-2.372c-.409.8-.828,1.62-1.256,2.486-5.025,10.138-12.339,27.375-18.65,51.92-7.073,27.514-11.482,58.454-13.1,91.96q-.934,19.3-.629,39.743,1.229-.069,2.452-.143l.309,5.136c-.885.053-1.776.1-2.666.153.5,22.526,2.113,46,4.825,70.258a11.026,11.026,0,0,0,2.3-.695,11.123,11.123,0,0,0,3.35,4.843C493.271,294.107,491.647,254.248,493.4,217.618Z" transform="translate(-13.048 -7.449)" fill="#f7f1e8"/>
    <path d="M377.641,257.864q-.021,1.274-.036,2.54l-5.145-.056q.014-1.3.038-2.617c-9.454-.257-18.357-.564-26.473-.885-34.782-1.376-61.786-3.258-70.076-3.866q-.292,2.6-.542,5.119c8.136.6,35.321,2.5,70.39,3.888,4.2.166,8.621.328,13.214.482.247-1.838.407-2.847.413-2.884l5.08.818c0,.032-.128.809-.324,2.233,17.515.544,37.317.942,57.78.942,21.84,0,44.426-.455,65.78-1.668q-.057-2.582-.1-5.146C451.322,258.835,411.357,258.7,377.641,257.864Z" transform="translate(-13.048 -7.449)" fill="#f7f1e8"/>
    <path d="M273.3,252.781l-.4,5.129c.05,0,.918.072,2.509.189q.249-2.518.542-5.119C274.268,252.856,273.353,252.785,273.3,252.781Z" transform="translate(-13.048 -7.449)" fill="#f1f1f1"/>
    <path d="M490.406,261.757l-.309-5.136q-1.222.074-2.452.143.039,2.565.1,5.146C488.63,261.86,489.521,261.81,490.406,261.757Z" transform="translate(-13.048 -7.449)" fill="#f1f1f1"/>
    <path d="M379.383,183.981a528.237,528.237,0,0,0-6.885,73.75q2.546.069,5.143.133a523.1,523.1,0,0,1,6.816-73.028c3.439-21.518,8.154-44,14.014-66.819,4.786-18.639,9.57-34.482,13.266-45.958a11.106,11.106,0,0,0-5.2-.644c-3.676,11.47-8.356,27.039-13.035,45.253C387.6,139.651,382.85,162.3,379.383,183.981Z" transform="translate(-13.048 -7.449)" fill="#f7f1e8"/>
    <path d="M377.605,260.4q.013-1.266.036-2.54-2.6-.064-5.143-.133-.022,1.313-.038,2.617Z" transform="translate(-13.048 -7.449)" fill="#f1f1f1"/>
    <path d="M361.556,294c.573-15.119,1.984-26.7,2.624-31.361q-2.619-.081-5.169-.167c-.685,5.09-2.032,16.531-2.593,31.251a312.783,312.783,0,0,0,2.228,52.94,11.159,11.159,0,0,0,3.295-3.2,11.147,11.147,0,0,0,1.73,2A314.31,314.31,0,0,1,361.556,294Z" transform="translate(-13.048 -7.449)" fill="#f7f1e8"/>
    <path d="M359.424,259.585c-.006.037-.166,1.046-.413,2.884q2.548.086,5.169.167c.2-1.424.319-2.2.324-2.233Z" transform="translate(-13.048 -7.449)" fill="#f1f1f1"/>
    <g>
      <path d="M52.275,74.317l5.872-2.311.123,2.069,3.666,9.313.781.339L66.345,82.3l.341-.781L63.02,72.206l-1.283-1.613,5.947-2.34.123,2.068,9.759,24.8,1.3,1.56-5.946,2.34L72.779,97,69,87.389l-.782-.34-3.627,1.428-.341.782,3.783,9.612,1.305,1.559-5.871,2.311-.109-2.03L53.6,75.915Z" transform="translate(-13.048 -7.449)" fill="#f7f1e8"/>
      <path d="M81.788,95.528l-.123-2.068L71.906,68.665,70.6,67.1l14.211-5.593,2.921,4.9-2.165.2-7.293,2.87-.34.782,2.311,5.872.782.341,2.394-.943,1.6-1.321,2.34,5.948-2.068.122-2.394.943-.355.744L84.957,88.1l.781.341,7.293-2.87,1.724-1.327L96,89.935Z" transform="translate(-13.048 -7.449)" fill="#f7f1e8"/>
      <path d="M116.644,81.81,110.7,84.15l-.03-1.285-2.754-3.926-.782-.339-4.675,1.84-.34.781.66,4.75.853.962-5.946,2.34L97.867,87,93.912,59.83l-1.171-1.439,6.47-2.547.124,1.852L114.958,80.27Zm-15.1-6.54,2.768-1.089.287-.589-5.41-8.366,1.745,9.808Z" transform="translate(-13.048 -7.449)" fill="#f7f1e8"/>
      <path d="M107.215,52.694l12.416-4.887,3.307,1.377,9.347,23.749-1.467,3.3L118.4,81.118l-.2-2.039-9.759-24.795Zm14.355,21,.782.34,3.627-1.428.341-.782L119.3,53.984l-.782-.339-3.628,1.427-.34.782Z" transform="translate(-13.048 -7.449)" fill="#f7f1e8"/>
    </g>
    <g>
      <path d="M153.249,163.766l-5.114,4.642-.9-2.036-19.6-21.6-1.97-1.124,4.593-4.169,19.682,9.643L137.7,135.639l-1.971-1.123,5.18-4.7.928,2.069,19.6,21.6,1.941,1.091-4.658,4.227-19.654-9.61,12.241,13.487Z" transform="translate(-13.048 -7.449)" fill="#f7f1e8"/>
      <path d="M165.922,152.264,165,150.2l-19.6-21.6-1.941-1.091,12.379-11.235,4.888,3.881-2.137,1.049-6.353,5.765-.045.932,4.642,5.114.932.046,2.085-1.892,1.123-1.971,4.7,5.18-2.07.927-2.084,1.892-.075.9,4.849,5.342.932.045,6.352-5.765,1.25-2.026,3.479,5.338Z" transform="translate(-13.048 -7.449)" fill="#f7f1e8"/>
      <path d="M179.176,136.492,160.4,115.807l.252-3.912,8.242-7.48,3.885.157,3.784,4.17,1.941,1.091-5.179,4.7-.867-2.067-1.478-1.629-.9-.074-3.225,2.927-.045.932,14.1,15.538.932.046,3.224-2.928.013-.9-1.449-1.6-1.972-1.06,5.179-4.7.9,2.036,3.814,4.2-.19,3.915-8.241,7.48Z" transform="translate(-13.048 -7.449)" fill="#f7f1e8"/>
      <path d="M206.417,115.511l-.618-1.4-11.965-5.656,1.2,5.508,4.465,4.919,1.969,1.123-5.114,4.641-.927-2.068-19.572-21.564-1.971-1.124L179,95.248l.928,2.07,8.041,8.859L184.6,91.471l-.976-.421,5.8-5.263.24,3.407,2.671,12.368,16.742,7.974,3.273.594Z" transform="translate(-13.048 -7.449)" fill="#f7f1e8"/>
    </g>
    <g>
      <path d="M178.842,285.311l-4.229-1.712.916-1.115.538-1.329-.248-.534-2.578-1.044-.551.211-1.722,4.254.238.561,4.68,1.894,1,2.354-3.413,8.429-2.354,1-6.727-2.723-1.077-2.385,1.378-3.4.144-1.427,4.2,1.7-.943,1.105-.538,1.329.249.534,2.578,1.044.55-.211,1.722-4.254-.238-.561-4.626-1.873-1.065-2.412,3.422-8.456,2.422-.937,6.728,2.723,1.009,2.327-1.4,3.457Z" transform="translate(-13.048 -7.449)" fill="#f7f1e8"/>
      <path d="M183.39,279.725l4.174,1.689-.953,1.131-2.68,6.621.237.561,2.58,1.044.559-.239,2.68-6.62.13-1.465,4.227,1.712-.952,1.13-7.137,17.63-.092,1.448-4.226-1.711.914-1.115,2.766-6.834-.236-.56L182.8,293.1l-.56.236-2.766,6.834-.091,1.449-4.175-1.69.941-1.105,7.137-17.629Z" transform="translate(-13.048 -7.449)" fill="#f7f1e8"/>
      <path d="M206.064,290.822l-6.835,16.885-2.353,1-6.727-2.724-1.024-2.363,6.836-16.885,2.369-.96,6.727,2.723Zm-4.513.215L199,290l-.549.212L193.316,302.9l.246.535,2.553,1.033.551-.211,5.134-12.683Z" transform="translate(-13.048 -7.449)" fill="#f7f1e8"/>
      <path d="M219.018,295.663,212.042,312.9l-2.38.985-6.753-2.734-.97-2.342,6.975-17.231.1-1.475,4.174,1.69-.953,1.131L206.1,308.075l.248.533,2.606,1.056.55-.211,6.136-15.156.1-1.476,4.228,1.712Z" transform="translate(-13.048 -7.449)" fill="#f7f1e8"/>
      <path d="M223.911,319.648l-10.1-4.089.942-1.105,7.137-17.63.1-1.474,4.174,1.689-.926,1.142L219.1,313.337l.248.534,5.159,2.088,1.534.187Z" transform="translate(-13.048 -7.449)" fill="#f7f1e8"/>
      <path d="M234.109,300.256l8.829,3.574,1.034,2.337-6.836,16.886-2.379.985-8.828-3.573.9-1.153,7.136-17.628Zm-2.891,17.925.237.559,2.579,1.045.56-.238,5.135-12.684-.237-.559-2.579-1.044-.56.237Z" transform="translate(-13.048 -7.449)" fill="#f7f1e8"/>
      <path d="M238.742,325.652l.954-1.131,7.136-17.629.091-1.449,10.1,4.09-.895,3.971-1.221-.959-5.186-2.1-.56.238-1.69,4.174.237.56,1.7.689,1.475.1-1.711,4.228-1.131-.953-1.7-.689-.549.211-1.765,4.361.237.561,5.185,2.1,1.545.162-2.151,3.554Z" transform="translate(-13.048 -7.449)" fill="#f7f1e8"/>
      <path d="M250.864,330.559l.942-1.1,7.136-17.63.1-1.474,8.827,3.573,1.035,2.338-3.724,9.2-2.391,1.014-1.089,6.893-.017,1.571-4.175-1.689.8-1.132,1.028-6.671-.136-.426-1.09-.441-.56.237L255.13,330.8l-.091,1.448Zm11.211-8.275.549-.211,2.045-5.052-.248-.534-2.606-1.054-.549.212-2.045,5.05.247.534Z" transform="translate(-13.048 -7.449)" fill="#f7f1e8"/>
    </g>
    <g>
      <path d="M212.575,229.5,183.9,210l-.835-4.795,7.771-11.424,4.736-.941,5.78,3.932,2.659.751-4.884,7.18-1.645-2.242-2.258-1.536-1.107.172-3.041,4.47.216,1.138,21.54,14.65,1.138-.216,3.04-4.47-.246-1.093-2.213-1.5-2.69-.707,4.884-7.179,1.675,2.2,5.826,3.962.909,4.78-7.77,11.424Z" transform="translate(-13.048 -7.449)" fill="#f7f1e8"/>
      <path d="M195.537,186.869l4.822-7.089,1.723,2.228,11.243,7.647,1.138-.217,2.979-4.38-.216-1.138-11.244-7.647-2.674-.828,4.883-7.18,1.723,2.228,29.938,20.362,2.659.752-4.884,7.18-1.706-2.151-11.606-7.894-1.138.217-2.979,4.38.217,1.138,11.606,7.894,2.658.751-4.823,7.09-1.675-2.2-29.938-20.363Z" transform="translate(-13.048 -7.449)" fill="#f7f1e8"/>
      <path d="M224.964,148.365l29.261,19.9.879,4.825-7.8,11.47-4.749.864-29.261-19.9-2.705-.783,4.822-7.089,1.722,2.228,25.739,17.506,1.093-.247,3.01-4.425-.172-1.108L221.063,154.1l-2.7-.783,4.884-7.18Z" transform="translate(-13.048 -7.449)" fill="#f7f1e8"/>
      <path d="M257.3,163.75l-28.674-19.5-.835-4.794,7.771-11.425,4.735-.94,5.781,3.932,2.658.751-4.883,7.18-1.645-2.242-2.259-1.536-1.107.172-3.04,4.47.216,1.138,21.54,14.651,1.137-.217,3.041-4.47-.247-1.094-2.213-1.5-2.689-.706,4.884-7.18,1.675,2.2,5.825,3.962.91,4.78-7.771,11.424Z" transform="translate(-13.048 -7.449)" fill="#f7f1e8"/>
      <path d="M284.069,130.507,282.917,129l-16.086-3.346,3.047,6.3,6.818,4.638,2.7.783-4.821,7.089-1.722-2.228L242.964,121.9l-2.705-.782,4.822-7.09,1.723,2.228,12.281,8.353-8.341-16.769-1.3-.224,5.467-8.038,1.282,4.041,6.821,14.151,22.525,4.753,4.122-.234Z" transform="translate(-13.048 -7.449)" fill="#f7f1e8"/>
    </g>
    <g>
      <path d="M349.533,229.092l-2.93-1.837-44.044-10.69-3.513.273,5.353-22.055,5.15-3.252,22.986,5.578,3.219,5.284,16.632.168,3.71-.507-2.532,10.429L350.62,211l-16.084-.105-.958.471-.661,2.724.754,1.238,14.947,3.628,3.447-.289Zm-23.407-23.549-.688-1.223-12.622-3.063-1.171.771-1.581,6.51.688,1.223,12.622,3.063,1.172-.771Z" transform="translate(-13.048 -7.449)" fill="#f7f1e8"/>
      <path d="M359.837,186.64l-2.531,10.429-2.931-1.837-44.044-10.689-3.513.273,2.532-10.43,3,1.853,44.044,10.69Z" transform="translate(-13.048 -7.449)" fill="#f7f1e8"/>
      <path d="M310.607,169.2l5.353-22.055,5.15-3.252,16.476,4,3.136,5.333,5.3-3.286,17.272,4.192,3.153,5.267L361.1,181.458l-3-1.854-44.044-10.689Zm21.953-4.661,1.172-.771,1.564-6.443-.689-1.223-10.363-2.515-1.238.755-1.564,6.444.754,1.238Zm11.173-5.167-1.564,6.444.754,1.239,10.961,2.66,1.239-.755,1.564-6.443-.755-1.239-10.961-2.66Z" transform="translate(-13.048 -7.449)" fill="#f7f1e8"/>
      <path d="M340.917,113.881l-2.563,10.562-2.947-1.77-3.323-.806-1.171.771-1.564,6.443.688,1.223,10.629,2.579,1.239-.754,2.837-11.692,5.2-3.169L371,122.378l3.17,5.2-4.079,16.808-5.25,3.368-8.5-2.064-3.414.157,2.548-10.5,2.93,1.836,3.322.806,1.172-.77,1.564-6.444-.689-1.222-10.629-2.579-1.238.753-2.8,11.56-5.316,3.352-21.125-5.127-3.055-5.384,4.08-16.807,5.134-3.186,8.637,2.1Z" transform="translate(-13.048 -7.449)" fill="#f7f1e8"/>
    </g>
    <g>
      <path d="M284.786,271.867l7.143,1.734,1.053,1.668-1.294,5.335-1.728,1.016,1.064,1.717-1.358,5.594-1.706,1.021-7.143-1.733.6-.971,3.463-14.266Zm3.183,10.729-2.087-.507-.4.244-.862,3.551.245.4,2.087.507.4-.244.861-3.551Zm-1.674-3.618.251.378,2.087.507.4-.222.815-3.358-.244-.4-2.087-.507-.4.244Z" transform="translate(-13.048 -7.449)" fill="#f7f1e8"/>
      <path d="M291.184,290.734l.595-.949,3.462-14.264-.088-1.138,7.143,1.734,1.054,1.667-1.808,7.445-1.71,1.042-.056,5.387.166,1.2-3.379-.82.482-.954.034-5.209-.152-.31-.883-.213-.4.244-1.175,4.84.093,1.117Zm7.627-7.58.4-.223.992-4.088-.25-.38-2.108-.512-.4.224-.992,4.088.249.38Z" transform="translate(-13.048 -7.449)" fill="#f7f1e8"/>
      <path d="M301.551,293.251l.6-.971,3.462-14.264-.093-1.117,8.177,1.985-.237,3.132-1.041-.594-4.195-1.019-.4.244-.82,3.378.244.4,1.377.335,1.138-.088-.83,3.421-.971-.6-1.377-.334-.4.223-.856,3.528.244.4,4.195,1.018,1.2-.052-1.241,2.957Z" transform="translate(-13.048 -7.449)" fill="#f7f1e8"/>
      <path d="M321.6,298.117l-3.422-.83.394-.588,0-2.642-.244-.4L315.643,293l-.4.245-1.208,2.35.08.7-3.421-.831.8-.966,6.829-13.493-.071-1.02,3.722.9-.532.873-.115,15.122Zm-4.731-7.732,1.593.386.315-.173.215-5.485-2.324,4.972Z" transform="translate(-13.048 -7.449)" fill="#f7f1e8"/>
      <path d="M333.629,289.189l-3.421-.83.573-.955.261-1.075-.249-.38-2.087-.507-.4.224-.836,3.442.245.4,3.786.919,1.028,1.684-1.656,6.822-1.685,1.025-5.443-1.32-1.092-1.7.669-2.753-.05-1.107,3.4.825-.6.95-.262,1.076.251.379,2.087.506.395-.222.836-3.443-.244-.4-3.745-.908-1.085-1.723,1.661-6.842,1.743-.988,5.444,1.32,1.032,1.664-.679,2.8Z" transform="translate(-13.048 -7.449)" fill="#f7f1e8"/>
      <path d="M344.916,289.7l-1.088-.583-2.044-.5-.374.229-2.976,12.263.093,1.116-3.421-.83.594-.95,2.977-12.263-.249-.379-2.087-.507-1.193.029,1.237-2.934,8.757,2.125Z" transform="translate(-13.048 -7.449)" fill="#f7f1e8"/>
    </g>
    <g>
      <path d="M464.376,204.99l-6.98,28.76-3.339-2.093-50.178-12.178-4,.311,2.884-11.883,3.434,2.035,43.139,10.47,1.335-.877,3.564-14.682-.106-4.194Z" transform="translate(-13.048 -7.449)" fill="#f7f1e8"/>
      <path d="M420.071,157.051l48.061,11.664,3.61,5.925L467.1,193.788l-5.944,3.687-48.06-11.664-3.516-5.983,4.648-19.148Zm2.369,12.035-1.763,7.266.783,1.391,36.1,8.762,1.336-.877,1.763-7.266-.785-1.392-36.1-8.762Z" transform="translate(-13.048 -7.449)" fill="#f7f1e8"/>
      <path d="M477.363,151.479l-2.884,11.882-3.338-2.092L420.963,149.09l-4,.31,2.884-11.881,3.415,2.111,50.178,12.179Z" transform="translate(-13.048 -7.449)" fill="#f7f1e8"/>
      <path d="M481.68,133.693,478.8,145.576l-3.338-2.093L425.28,131.305l-4,.31,2.59-10.671,38.421-5.421-31.332-7.6-4,.311L429.874,96.2l3.415,2.112,50.177,12.178,3.927-.329-2.627,10.823-38.346,5.439,31.333,7.6Z" transform="translate(-13.048 -7.449)" fill="#f7f1e8"/>
    </g>
    <g>
      <path d="M374.048,280.648h16.044l.971,5.912-2.195-.634h-8.234l-.633.634v6.8l.633.634h2.7l2.027-.676v6.713l-2.027-.674h-2.7l-.633.59v10.725l.676,2.068h-6.629l.676-2.068V282.675Z" transform="translate(-13.048 -7.449)" fill="#f7f1e8"/>
      <path d="M409.341,312.736H393.3l.676-2.026V282.717l-.676-2.069h6.629l-.634,2.069v24.066l.634.591h8.191l2.195-.591Z" transform="translate(-13.048 -7.449)" fill="#f7f1e8"/>
      <path d="M432.643,312.736H425.93l.465-1.266-1.183-4.9-.633-.634H419.3l-.633.634-1.182,4.9.464,1.266h-6.713l1.055-2.153,6.587-28.077-.591-1.858h7.3L425,282.506l6.587,28.077Zm-12.244-12.2h3.124l.507-.464-2.069-10.259-2.068,10.259Z" transform="translate(-13.048 -7.449)" fill="#f7f1e8"/>
      <path d="M441.252,312.736h-6.628l.675-2.026V282.717l-.675-2.069h5.953l7.769,19.548V282.717l-.676-2.069h6.713l-.675,2.069V310.71l.675,2.026h-6.037l-7.769-19.506v17.48Z" transform="translate(-13.048 -7.449)" fill="#f7f1e8"/>
      <path d="M470.718,312.736l.465-1.393-4.856-11.738-2.7,4.687v6.376l.676,2.068h-6.629l.676-2.068V282.717l-.676-2.069H464.3l-.676,2.069V294.2l7.093-12.624-.422-.929h7.516l-2.027,2.576-6.08,10.513L476.46,310.2l1.942,2.533Z" transform="translate(-13.048 -7.449)" fill="#f7f1e8"/>
    </g>
    <g>
      <path d="M599.364,242.214l-8.931,36.8-4.272-2.678-64.208-15.583-5.122.4,3.69-15.2,4.394,2.6,55.2,13.4,1.709-1.123,4.56-18.787-.134-5.365Z" transform="translate(-13.048 -7.449)" fill="#f7f1e8"/>
      <path d="M601.15,234.855l-4.369-2.7-64.207-15.583-5.025.421,8.931-36.8,14.1,1.064-2.674,4.683-4.584,18.885,1.1,1.8,15.2,3.69,1.806-1.1,1.5-6.2-.4-5.123,15.4,3.738-2.7,4.369-1.5,6.2,1,1.782,15.882,3.855,1.806-1.1,4.584-18.885-.232-5.387,13.309,5.589Z" transform="translate(-13.048 -7.449)" fill="#f7f1e8"/>
      <path d="M605.955,188.442l-61.5-14.925-4.5-7.656,5.947-24.5,7.486-4.643,12.395,3.009,5.026-.422-3.738,15.4-4.25-2.774-4.842-1.176-1.781,1-2.3,9.49,1.123,1.709,46.2,11.212,1.782-1,2.3-9.49-1.124-1.709-13.267-3.22-.846,3.486-13.054-.3,4.842-19.951,4.465,2.726,28.57,6.934,4.62,7.582-5.947,24.5Z" transform="translate(-13.048 -7.449)" fill="#f7f1e8"/>
    </g>
  </g>
</svg>
