<svg xmlns="http://www.w3.org/2000/svg" width="789.75" height="480.481" viewBox="0 0 789.75 480.481">
  <g>
    <path d="M673.956,474.335c1.174,3.869-.98,7.821-2.717,12.877-.443,1.292-6.9,1.3-11.422,1.441-6.539.208-7.241.33-14.7.083-3.493-.115-12.431.539-11.1-4.767.869-3.469,3.875-15.542,7.7-17.916,6.148-3.82,8.563-7.364,9.826-14.463,2.537-14.251,7.47-28.122,8.52-42.628,1.2-16.537-2.284-35.066-7.7-50.7-2.566-7.416-6.215-14.386-9.671-21.411-.958-1.947-8.608-21.9-8.971-21.926-10.29-.679-20.982-1.506-31.676-2.48-45.756-4.167-74.443,8.723-107.65,6.587-36.914-2.374-89.708-6.748-102.268-9.526-1.733-.383-4.534-.794-8.121-1.216-.681,6.716-3.135,13.366-3.586,18.193-1.341,14.326-7.581,37.04-10.376,43.183s-1.919,66.457-5.117,69.435c-9.565,8.907-5.947,14.937-5.947,14.937s3.935,10.2,3.12,18.739c-.468,4.908-1.628,8.226-6.725,8.226H327.892c-6.292,0-10.31-.812-4.129-16.144,3.759-9.325,12.008-10.079,16.093-27.532,1.111-4.748,2.378-42.593,1.27-49.089s-8.587-45.612-11.247-51.025c-4.634-9.432-3.655-17.2-6.086-22.711-1.539,8.169-3.525,17.235-3.854,18.435-4.218,15.392-2.929,31.81-6.733,47.4s-9.264,29.875-13.053,45.477c-1.89,7.781-.417,15.9-2.789,23.546-1.938,6.248-12.931,9.241-9.709,15.541,2.321,4.537,2.743,20.854-.5,21.987s-8.073,1.233-9.1,1.516-7.576.39-14.91,0c-6.542-.348-17.749.115-16.821-4.7s6.448-17.658,9.232-19.358c5.835-3.563,15.121-15.029,15.994-21.14,1.284-9,1.474-20.349,2.07-29.393,1.394-21.177,2.247-38.507.412-59.769-1.3-15.011-7.544-29.423-11.077-43.994-.164-.677-.649-3.258-1.175-6.448-10.3-8.365-34.565-3.634-42.145-24.067-8.176-22.04-24.215-51.523-41.3-67.277-8.965-8.267-19.2-14.824-29.426-21.272-13.2-8.324-25.243-18.57-39.127-25.728C96.1,158.2,81.3,153.385,66.422,149.893c-13.29-3.12-26.412,7.26-39.336,2.766-8.08-2.81-11.462-9.888-17.795-14.832-4.178-3.262-6.021-13.945-5.556-15.545.807-2.776,1.76-10.09,15.3-16.653,12.373-6,40.656-38.289,40.656-38.289C66.061,50.315,75.7,46.348,80.836,44.065c-9.8-15.536-6.77-35.672-6.77-35.672s12.09,22.323,21.845,28.718a58.189,58.189,0,0,1,7.169-1.456c-5.307-11.108-3.4-23.775-3.4-23.775s9,17.678,16.32,23.032c5.333-.09,13.13.835,15.166,2.11,11.306,7.08,21.79,10.731,34.057,15.576a100.287,100.287,0,0,0,20.219,5.839,198.514,198.514,0,0,1,21.806,5.148c9.746,2.85,19.142-.012,28.961-.134,1.622-.02,23.077-1.08,24.037-1.28L273.6,59.713c16.837-3.324,56,11.009,75.484,9.69,22.49-1.523,122.5,12.063,140.823,12.6s88.259-4.815,102.4-6.436,60.634-11.643,70.005-12.656c17.306-1.871,67,11.275,77.337,11.639,8.22.289,14.324,2.6,18.861,6.126,0,0,16.933,10.3,18.055,14.793,4.041,16.161,6.256,30.919,6.009,47.5-.176,11.839.857,25.329-.106,37.124-2.458,30.088-6.116,120.439-2.739,142.911,3.074,20.45,15.569,50.066,13.45,70.346-1.77,16.944-9.058-1.024-11.386-8.475-5.894-18.864-11.008-45.942-11.227-65.572-.334-29.871-3.381-58.114-2.609-81.533.313-9.517.353-28.388-.4-48.113-3.192,8.965-6.552,19.217-6.852,26.561-.548,13.366-5.2,47.55-4.927,59.133.172,7.281-.3,18.356.337,28.385,2.652,13.81,5.463,25.5,6.848,37.963a151.909,151.909,0,0,1,1.006,27.365c-.635,9.039-3.172,17.612-4.878,26.467-1.738,9.023-7.926,32.856-7.963,42.94-.027,7.607-10.859,7.106-7.535,17.744,2.089,6.684,1.46,25.578-6.925,25.578-5.231,0-2.717.259-10.844.034-7.032-.195-19.189.748-21.8-1.657s4.762-20.744,8.239-23.4,10.753-6.158,13.677-20.5c1.074-5.27,5.613-21.992,5.613-31.545s-2.6-30.773-6.076-39.265c-2.263-5.528-17.376-20.582-24.139-35.165-1.187,8.987-2.577,19.921-2.577,21.866,0,3.4-.837,27.637-.837,32.576s-10.534,28.9-15.086,40.883c0,0-6.207,13.935-6.207,19.719s2.483,12.148-.409,16.165S671.852,467.4,673.956,474.335Z" transform="translate(-3.665 -8.393)" fill="#d94a4a"/>
    <path d="M653.5,281.7a119.655,119.655,0,0,0-19.988,27.791c-.993,1.935-1.822,3.7-2.509,5.253.908.062,1.817.124,2.719.183a15.126,15.126,0,0,1,1.113,2.421,111.663,111.663,0,0,1,22.116-32.69,130.668,130.668,0,0,1,39.719-27.878c17.973-8.279,38.731-13.389,61.764-15.212.16-1.543.319-3.076.474-4.586-23.971,1.813-45.587,7.1-64.3,15.754A135.076,135.076,0,0,0,653.5,281.7Z" transform="translate(-3.665 -8.393)" fill="#f7f1e8"/>
    <path d="M202.011,95.381a329.662,329.662,0,0,0,13.964-30.547,36.641,36.641,0,0,1-4.747-.381c-3.05,7.645-7.367,17.472-13.247,28.844a399.748,399.748,0,0,1-29.473,48.1A436.045,436.045,0,0,1,135.7,182q1.864,1.323,3.736,2.634a440.185,440.185,0,0,0,32.77-40.6A404.09,404.09,0,0,0,202.011,95.381Z" transform="translate(-3.665 -8.393)" fill="#f7f1e8"/>
    <path d="M606.918,154.689c-.594-32.57.6-62.058,1.777-81.786-1.588.291-3.125.568-4.594.827-1.159,19.8-2.3,48.91-1.72,80.993.625,34.336,3.078,65.327,7.291,92.11,4.224,26.852,10.245,49.533,17.945,67.671q2.561.18,5.094.35c-7.989-18.11-14.217-41.15-18.553-68.7C609.977,219.581,607.541,188.809,606.918,154.689Z" transform="translate(-3.665 -8.393)" fill="#f7f1e8"/>
    <path d="M393.058,219.473q26.115,0,51.433-.569c58.1-1.306,112.649-4.885,162.147-10.635l-.524-4.507c-49.351,5.733-103.754,9.3-161.7,10.606-46.37,1.043-95.1.647-144.827-1.177-60.046-2.2-107.175-5.992-129.728-8.033q3.2,2.454,6.253,5.109c24.516,2.123,68.54,5.448,123.266,7.456C331.131,218.889,362.472,219.473,393.058,219.473Z" transform="translate(-3.665 -8.393)" fill="#f7f1e8"/>
    <path d="M384.207,204.815a629.754,629.754,0,0,0-17.018-84.722A523.978,523.978,0,0,0,350.514,69.33c-.5.019-.985.042-1.431.073-1.074.072-2.21.095-3.4.078a513.183,513.183,0,0,1,17.167,51.961,625.32,625.32,0,0,1,16.868,84.066,665.92,665.92,0,0,1,5.377,102.91c1.728.212,3.247.421,4.522.624A670.464,670.464,0,0,0,384.207,204.815Z" transform="translate(-3.665 -8.393)" fill="#f1f1f1"/>
    <path d="M464.222,217.074l-7.969-138.25-4.573-.5,8.012,139.016Z" transform="translate(-3.665 -8.393)" fill="#f7f1e8"/>
    <path d="M533.47,80.209q-2.282.147-4.538.285c-.081,19.651-.079,46.375.24,75.442.548,49.852,2.161,116.152,6.654,160.154l4.494-.655c-4.461-43.808-6.064-109.851-6.611-159.539C533.389,126.7,533.389,99.871,533.47,80.209Z" transform="translate(-3.665 -8.393)" fill="#f7f1e8"/>
    <path d="M300.948,294.429a279.352,279.352,0,0,0-41.307,7.716,15.987,15.987,0,0,1,2.136,1.451c.15.915.3,1.777.435,2.561a274.206,274.206,0,0,1,39.215-7.216c15.978-1.695,30.652-1.621,43.613.222,15.208,2.161,28.066,6.776,38.261,13.722.3-1.515.548-3.055.7-4.6l.7.084c-10.58-6.915-23.689-11.52-39.031-13.7C332.347,292.776,317.3,292.7,300.948,294.429Z" transform="translate(-3.665 -8.393)" fill="#f7f1e8"/>
    <path d="M276.1,242.627c.509-17.331-1.578-28.286-1.667-28.744l-4.454.866c.021.108,2.09,11.026,1.581,27.893a185.822,185.822,0,0,1-11.807,59.567,15.865,15.865,0,0,1,2.026,1.387c.256,1.553.5,2.96.706,4.075a186.891,186.891,0,0,0,10.238-34.608A190.037,190.037,0,0,0,276.1,242.627Z" transform="translate(-3.665 -8.393)" fill="#f7f1e8"/>
    <g>
      <path d="M76.144,79.067h7.822l-.8,2.684v13.64l.747.821h4.833l.747-.821V81.751l-.747-2.684H96.67l-.8,2.684v36.318l.8,2.63H88.749l.747-2.63V103.991l-.747-.822H83.916l-.747.822v14.078l.8,2.63H76.144l.8-2.63V81.751Z" transform="translate(-3.665 -8.393)" fill="#f7f1e8"/>
      <path d="M100.558,120.7l.8-2.684V81.7l-.8-2.629H119.49l1.146,7.669-2.591-.822H108.33l-.747.822v8.6l.747.822h3.189l2.441-.877v8.71l-2.441-.876H108.33l-.747.766v8.984l.747.822h9.715l2.591-.822L119.49,120.7Z" transform="translate(-3.665 -8.393)" fill="#f7f1e8"/>
      <path d="M146.993,120.7h-7.921l.548-1.644-1.4-6.354-.747-.822H131.25l-.747.822-1.395,6.354.548,1.644h-7.922l1.246-2.794,7.772-36.428-.7-2.41h8.619l-.7,2.41,7.772,36.428Zm-14.448-15.831h3.687l.6-.6-2.441-13.311-2.441,13.311Z" transform="translate(-3.665 -8.393)" fill="#f7f1e8"/>
      <path d="M149.337,79.067h16.541l3.188,3.4v34.785l-3.188,3.451H149.337l.7-2.684V81.7Zm7.025,33.8.747.822h4.833l.747-.822V86.736l-.747-.822h-4.833l-.747.822Z" transform="translate(-3.665 -8.393)" fill="#f7f1e8"/>
    </g>
    <g>
      <path d="M210.886,152.836l4.331-34.514,3.587-2.973,12.506,1.569L234,120.679l-.873,6.957.464,2.708-7.86-.986,1.168-2.5.341-2.718-.59-.9-4.894-.614-.843.722L217.66,149.27l.64.907,4.894.615.794-.728.334-2.664-.513-2.714,7.86.985-1.118,2.51-.88,7.012-3.544,3.034-12.506-1.569Z" transform="translate(-3.665 -8.393)" fill="#f7f1e8"/>
      <path d="M238.876,117.868l7.761.973-1.125,2.565-1.7,13.533.639.909,4.795.6.844-.723,1.7-13.533-.408-2.757,7.86.986-1.124,2.565L253.6,159.024l.463,2.708-7.86-.986,1.069-2.516,1.753-13.969-.64-.909-4.795-.6-.843.723-1.753,13.969.464,2.708-7.761-.974,1.119-2.509,4.521-36.037Z" transform="translate(-3.665 -8.393)" fill="#f7f1e8"/>
      <path d="M282.342,126.027l-4.42,35.221-3.593,3.027L261.773,162.7l-2.635-3.81,4.42-35.221-.458-2.762,7.761.973-1.125,2.565-3.887,30.981.646.855,4.844.607.837-.668,3.888-30.981-.458-2.763,7.86.986Z" transform="translate(-3.665 -8.393)" fill="#f7f1e8"/>
      <path d="M282.867,161.868l4.331-34.514,3.587-2.974,12.506,1.57,2.691,3.76-.873,6.957.464,2.709-7.86-.986,1.168-2.5.341-2.717-.59-.9-4.893-.614-.844.722L289.641,158.3l.64.908,4.894.615.794-.729.334-2.663-.513-2.715,7.86.987-1.118,2.509-.88,7.012-3.544,3.033L285.6,165.689Z" transform="translate(-3.665 -8.393)" fill="#f7f1e8"/>
      <path d="M320.949,170.125l.768-1.725-3.788-15.824-3.921,5.636-1.03,8.207.457,2.763-7.761-.974,1.125-2.564,4.515-35.981-.457-2.763,7.761.974-1.125,2.564-1.855,14.784,10.344-15.21-.344-1.258,8.8,1.1-2.789,3.018-8.817,12.641,5.25,22.19,1.865,3.546Z" transform="translate(-3.665 -8.393)" fill="#f7f1e8"/>
    </g>
    <g>
      <path d="M216.794,221.748l4.791,4.773.033,1.814-3.566,3.579-1.844-.025.018,1.858-3.738,3.753-1.829-.012-4.791-4.772.934-.478,9.532-9.568Zm-2.617,9.957-1.4-1.394h-.431l-2.372,2.381v.432l1.4,1.4h.432l2.372-2.381Zm.411-3.644.014.418,1.4,1.394.418.014,2.243-2.252V227.2l-1.4-1.394h-.431Z" transform="translate(-3.665 -8.393)" fill="#f7f1e8"/>
      <path d="M212.826,239.646l.921-.462,9.531-9.569.474-.936,4.791,4.772.033,1.815L223.6,240.26l-1.844,0-2.613,4.211L218.7,245.5l-2.266-2.258.835-.519,2.512-4.081.029-.318-.591-.589h-.433l-3.234,3.246-.46.923Zm9.617-2.323.418.015,2.731-2.742-.015-.418-1.414-1.408-.418-.015-2.731,2.742.015.417Z" transform="translate(-3.665 -8.393)" fill="#f7f1e8"/>
      <path d="M222.049,248.836l-2.265-2.257.921-.464,9.531-9.568.474-.936,2.266,2.256-.935.478-9.531,9.568Z" transform="translate(-3.665 -8.393)" fill="#f7f1e8"/>
      <path d="M236.555,248.334l-2.3-2.287.907-.477.718-.721-.015-.417-1.4-1.395-.417-.014-2.3,2.309v.432l2.54,2.531,0,1.814-4.558,4.575-1.815,0-3.651-3.637-.047-1.859,1.84-1.846.489-.9,2.28,2.272-.921.463-.719.721.015.417,1.4,1.395.418.013,2.3-2.308v-.433l-2.511-2.5-.032-1.873,4.571-4.59,1.845.055,3.651,3.637.018,1.8L237,247.4Z" transform="translate(-3.665 -8.393)" fill="#f7f1e8"/>
      <path d="M234.608,261.346l.634-.319,2.337-5.664-2.519.682-2.171,2.18-.474.935-2.266-2.256.935-.478,9.517-9.554.475-.936,2.265,2.256-.935.478L238.5,252.6l6.722-1.9.172-.462,2.569,2.56-1.57.189-5.658,1.524-3.3,7.93-.2,1.526Z" transform="translate(-3.665 -8.393)" fill="#f7f1e8"/>
      <path d="M237.916,264.641l.935-.477,9.532-9.568.459-.923,5.484,5.462-1.68,2.351-.536-.964-2.814-2.8h-.432l-2.257,2.265v.432l.924.92.937.474-2.286,2.293-.477-.934-.923-.92-.418-.014-2.358,2.367v.433l2.814,2.8.966.531L243.4,270.1Z" transform="translate(-3.665 -8.393)" fill="#f7f1e8"/>
      <path d="M259.546,268.418l-.578-.979-1.371-1.365h-.4L249,274.3l-.459.923-2.295-2.286.922-.463,8.194-8.227-.016-.416-1.4-1.394-.952-.547,2.373-1.719,5.874,5.851Z" transform="translate(-3.665 -8.393)" fill="#f7f1e8"/>
    </g>
    <g>
      <path d="M302.944,251.277h-4.509l.424-1.361V248.5l-.424-.4h-2.752l-.426.4v4.538l.426.426h4.992l1.787,1.787v8.992l-1.787,1.787H293.5l-1.872-1.787V260.61l-.4-1.361h4.482l-.454,1.361v1.418l.426.4h2.752l.424-.4V257.49l-.424-.426H293.5l-1.872-1.815v-9.02l1.872-1.759h7.177l1.787,1.759v3.687Z" transform="translate(-3.665 -8.393)" fill="#f7f1e8"/>
      <path d="M305.042,244.47H309.5l-.454,1.389v7.064l.426.426h2.752l.425-.426v-7.064l-.425-1.389h4.51l-.455,1.389v18.808l.455,1.361h-4.51l.425-1.361v-7.291l-.425-.425h-2.752l-.426.425v7.291l.454,1.361h-4.453l.454-1.361V245.859Z" transform="translate(-3.665 -8.393)" fill="#f7f1e8"/>
      <path d="M332.442,266.028h-4.509l.311-.851-.794-3.29-.426-.426h-3.545l-.425.426-.795,3.29.312.851h-4.51l.71-1.447,4.424-18.863-.4-1.248h4.907l-.4,1.248,4.424,18.863Zm-8.225-8.2h2.1l.341-.311-1.39-6.894-1.39,6.894Z" transform="translate(-3.665 -8.393)" fill="#f7f1e8"/>
      <path d="M338.228,266.028h-4.454l.455-1.361V245.859l-.455-1.389h4l5.22,13.134V245.859l-.454-1.389h4.511l-.454,1.389v18.808l.454,1.361h-4.057l-5.22-13.105v11.744Z" transform="translate(-3.665 -8.393)" fill="#f7f1e8"/>
      <path d="M358.025,266.028l.313-.936-3.263-7.886-1.815,3.148v4.284l.454,1.39h-4.453l.454-1.39V245.859l-.454-1.389h4.453l-.454,1.389v7.716l4.765-8.481-.283-.624h5.049l-1.361,1.73-4.085,7.064,4.539,11.062,1.3,1.7Z" transform="translate(-3.665 -8.393)" fill="#f7f1e8"/>
    </g>
    <g>
      <path d="M387.126,158.374l.818-2.454V122.03l-.818-2.5H404.1l3.271,3.169v17.687l-3.271,3.271,2.81,12.115,1.023,2.607h-8.026l.563-2.4-2.76-11.706-.512-.614h-2.1l-.767.767v11.5l.817,2.454Zm12.984-21.163.767-.715v-9.712l-.767-.716H395.1l-.767.716V136.5l.767.715Z" transform="translate(-3.665 -8.393)" fill="#f7f1e8"/>
      <path d="M419.787,158.374h-8.025l.818-2.454V122.03l-.818-2.5h8.025l-.817,2.5v33.89Z" transform="translate(-3.665 -8.393)" fill="#f7f1e8"/>
      <path d="M423.771,119.525h16.972l3.272,3.169v12.678l-3.324,3.22,3.324,3.271v13.291l-3.272,3.22H423.771l.819-2.5v-33.89Zm7.259,15.131.767.716h4.959l.766-.716v-7.974l-.766-.767H431.8l-.767.767Zm5.726,7.207H431.8l-.767.767v8.434l.767.767h4.959l.766-.767V142.63Z" transform="translate(-3.665 -8.393)" fill="#f7f1e8"/>
    </g>
    <g>
      <path d="M432.524,240.582H426.4l.579-2.039v-2.124l-.579-.595h-3.737l-.578.595v6.8l.578.637h6.781l2.427,2.676V260l-2.427,2.676h-9.748L417.151,260v-5.437l-.539-2.039H422.7l-.616,2.039v2.124l.578.594H426.4l.579-.594v-6.8l-.579-.637h-6.7l-2.543-2.719V233.021l2.543-2.634h9.748l2.427,2.634v5.522Z" transform="translate(-3.665 -8.393)" fill="#f7f1e8"/>
      <path d="M435.378,230.387h6.049l-.616,2.081v10.578l.577.637h3.737l.578-.637V232.468l-.578-2.081h6.126l-.616,2.081v28.165l.616,2.039h-6.126l.578-2.039V249.715l-.578-.637h-3.737l-.577.637v10.918l.616,2.039h-6.049l.616-2.039V232.468Z" transform="translate(-3.665 -8.393)" fill="#f7f1e8"/>
      <path d="M469.207,233.021V260l-2.427,2.676h-9.748L454.566,260V233.021l2.466-2.634h9.748Zm-5.509,2.8H460l-.578.595v20.264l.578.594h3.7l.577-.594V236.419Z" transform="translate(-3.665 -8.393)" fill="#f7f1e8"/>
      <path d="M472.523,262.672l.617-2.039V232.468l-.617-2.081h12.791l2.466,2.634v14.7l-2.466,2.719,2.12,10.068.77,2.166h-6.049l.424-2-2.081-9.729-.385-.509h-1.58l-.577.637v9.558l.616,2.039Zm9.787-17.587.578-.595v-8.071l-.578-.595h-3.777l-.577.595v8.071l.577.595Z" transform="translate(-3.665 -8.393)" fill="#f7f1e8"/>
      <path d="M507.548,236.419l-2.08-.595h-3.66l-.54.595v24.214l.617,2.039h-6.127l.617-2.039V236.419l-.578-.595H492.06l-2,.595.886-6.032h15.681Z" transform="translate(-3.665 -8.393)" fill="#f7f1e8"/>
      <path d="M422.815,299.7h-6.048l.616-2.039V269.5l-.616-2.082h12.791l2.465,2.634v14.741l-2.465,2.719h-6.782l-.577.636v9.516Zm-.039-17.587h3.738l.578-.594v-8.072l-.578-.6h-3.738l-.577.6v8.072Z" transform="translate(-3.665 -8.393)" fill="#f7f1e8"/>
      <path d="M449.286,299.7h-14.64l.616-2.039V269.5l-.616-2.082h6.048l-.578,2.082v24.214l.578.595h7.475l2-.595Z" transform="translate(-3.665 -8.393)" fill="#f7f1e8"/>
      <path d="M470.556,299.7H464.43l.424-1.274-1.079-4.928-.578-.637h-4.816l-.578.637-1.078,4.928.423,1.274h-6.126l.963-2.166L458,269.286l-.54-1.869h6.666l-.54,1.869,6.011,28.25Zm-11.173-12.276h2.85l.463-.468-1.887-10.322-1.888,10.322Z" transform="translate(-3.665 -8.393)" fill="#f7f1e8"/>
      <path d="M485.7,273.449l-2.08-.6h-3.66l-.54.6v24.214l.617,2.039H473.91l.616-2.039V273.449l-.578-.6h-3.737l-2,.6.887-6.032h15.68Z" transform="translate(-3.665 -8.393)" fill="#f7f1e8"/>
      <path d="M487.667,299.7l.616-2.081V269.456l-.616-2.039h14.641l.885,5.947-2-.636h-7.513l-.577.636v6.67l.577.637h2.466l1.888-.68v6.755l-1.888-.68h-2.466l-.577.6v6.967l.577.637h7.513l2-.637-.885,6.074Z" transform="translate(-3.665 -8.393)" fill="#f7f1e8"/>
    </g>
    <g>
      <g>
        <path d="M476.182,122H472.47l.35-1.121v-1.167l-.35-.327h-2.265l-.35.327v3.735l.35.35h4.109l1.471,1.471v7.4l-1.471,1.471h-5.907l-1.54-1.471V129.68l-.327-1.121h3.689l-.374,1.121v1.167l.35.327h2.265l.35-.327v-3.736l-.35-.35h-4.063l-1.54-1.494v-7.424l1.54-1.447h5.907l1.471,1.447v3.035Z" transform="translate(-3.665 -8.393)" fill="#f7f1e8"/>
        <path d="M477.912,116.4h3.666l-.374,1.144v5.813l.351.35h2.264l.35-.35V117.54l-.35-1.144h3.712l-.374,1.144v15.478l.374,1.121h-3.712l.35-1.121v-6l-.35-.35h-2.264l-.351.35v6l.374,1.121h-3.666l.374-1.121V117.54Z" transform="translate(-3.665 -8.393)" fill="#f7f1e8"/>
        <path d="M498.414,117.843v14.825l-1.471,1.471h-5.906l-1.494-1.471V117.843l1.494-1.447h5.906Zm-3.339,1.541h-2.241l-.35.327v11.136l.35.327h2.241l.351-.327V119.711Z" transform="translate(-3.665 -8.393)" fill="#f7f1e8"/>
        <path d="M500.425,134.139l.374-1.121V117.54l-.374-1.144h7.751l1.494,1.447v8.078l-1.494,1.494,1.284,5.533.467,1.191h-3.665l.257-1.1-1.261-5.347-.234-.28h-.957l-.35.35v5.253l.374,1.121Zm5.93-9.665.35-.328v-4.435l-.35-.327h-2.288l-.35.327v4.435l.35.328Z" transform="translate(-3.665 -8.393)" fill="#f7f1e8"/>
        <path d="M521.649,119.711l-1.26-.327h-2.218l-.326.327v13.307l.373,1.121h-3.712l.373-1.121V119.711l-.35-.327h-2.264l-1.214.327.537-3.315h9.5Z" transform="translate(-3.665 -8.393)" fill="#f7f1e8"/>
      </g>
      <g>
        <path d="M479.319,170.658H466.685l.532-2.052V140.259l-.532-2.094h5.22l-.5,2.094V164.63l.5.6h6.45l1.729-.6Z" transform="translate(-3.665 -8.393)" fill="#f7f1e8"/>
        <path d="M487.063,170.658h-5.219l.532-2.052V140.259l-.532-2.094h5.219l-.532,2.094v28.347Z" transform="translate(-3.665 -8.393)" fill="#f7f1e8"/>
        <path d="M502.557,140.815v27.15l-2.1,2.693H492.05l-2.128-2.693v-27.15l2.128-2.65h8.412Zm-4.755,2.822H494.61l-.5.6V164.63l.5.6H497.8l.5-.6V144.235Z" transform="translate(-3.665 -8.393)" fill="#f7f1e8"/>
        <path d="M510.633,170.658h-5.22l.532-2.052V140.259l-.532-2.094H510.1l6.118,19.8v-17.7l-.532-2.094h5.287l-.533,2.094v28.347l.533,2.052h-4.755L510.1,150.905v17.7Z" transform="translate(-3.665 -8.393)" fill="#f7f1e8"/>
      </g>
    </g>
    <g>
      <path d="M560.732,175.628V181l-1.623-.507h-1.69l-.474.507v3.28l.474.508h5.41l.507-.508v-5.951l2.131-2.13h10.719l2.129,2.13v8.555l-2.129,2.232h-4.329l-1.623.473V184.25l1.623.542h1.691l.473-.508V181l-.473-.507h-5.41l-.507.507v5.884l-2.164,2.232H554.714l-2.1-2.232v-8.555l2.1-2.13h4.395Z" transform="translate(-3.665 -8.393)" fill="#f7f1e8"/>
      <path d="M578.315,167.814v5.309l-1.623-.541H554.274l-1.657.541v-5.309l1.657.541h22.418Z" transform="translate(-3.665 -8.393)" fill="#f7f1e8"/>
      <path d="M578.315,165.176l-1.623-.541H554.274l-1.657.541V153.95l2.1-2.164h11.7l2.164,2.164,8.014-1.86,1.724-.676v5.309l-1.588-.372-7.745,1.826-.4.338V159.9l.507.507h7.608l1.623-.541Zm-14-8.589-.472-.507h-6.425l-.474.507V159.9l.474.507h6.425l.472-.507Z" transform="translate(-3.665 -8.393)" fill="#f7f1e8"/>
      <path d="M578.315,136.025v12.85l-1.623-.542H554.274l-1.657.542v-5.309l1.657.507h19.274l.473-.507v-6.56l-.473-1.758Z" transform="translate(-3.665 -8.393)" fill="#f7f1e8"/>
      <path d="M554.714,120.333h21.472l2.129,2.131v8.555l-2.129,2.164H554.714l-2.1-2.164v-8.555Zm2.231,4.836v3.246l.474.507h16.129l.473-.507v-3.246l-.473-.507H557.419Z" transform="translate(-3.665 -8.393)" fill="#f7f1e8"/>
      <path d="M578.315,112.114v5.308l-1.623-.541H554.274l-1.657.541v-5.308l1.657.541h22.418Z" transform="translate(-3.665 -8.393)" fill="#f7f1e8"/>
      <path d="M578.315,104.167v5.308l-1.623-.541H554.274l-1.657.541v-4.767l15.655-6.222h-14l-1.657.541V93.65l1.657.541h22.418l1.623-.541v4.836l-15.622,6.222h14Z" transform="translate(-3.665 -8.393)" fill="#f7f1e8"/>
    </g>
    <g>
      <path d="M571.638,300.726l-2.159-11.784,4.209-1.508-.168,1.7,1.108,6.047.55.379,4.992-.915.38-.55-.363-1.985-.77-1.4,4.931-.9-.223,1.579.363,1.984.52.386,7.875-1.444,1.429-.774.892,4.868-1.61-.218-20.558,3.769Z" transform="translate(-3.665 -8.393)" fill="#f7f1e8"/>
      <path d="M590.453,270.487l2.16,11.784-1.579-.224-20.558,3.768-1.429.775-.893-4.868,1.606.186,17.674-3.24.349-.544-1.1-6.016-.731-1.532Z" transform="translate(-3.665 -8.393)" fill="#f7f1e8"/>
      <path d="M587.316,253.374l.9,4.931-.992-.17-3.438,1.527-.38.55.71,3.876.551.38,3.756.208.867-.511.9,4.931-1.723-.486-21.507-1.058-1.285.684-.984-5.364,1.445.184,19.733-8.617ZM580,264.009l-.42-2.294-.409-.31-7.256,2.9,7.812.138Z" transform="translate(-3.665 -8.393)" fill="#f7f1e8"/>
      <path d="M586.157,247.052l.893,4.869-1.579-.224-20.558,3.769-1.43.774-.8-4.373,13.311-8.336-12.837,2.353-1.428.774-.9-4.93,1.612.218,20.557-3.769,1.4-.769.813,4.435-13.28,8.33,12.837-2.353Z" transform="translate(-3.665 -8.393)" fill="#f7f1e8"/>
      <path d="M582.191,225.413l-1.086-.154-7.966,5.146,3.8,1.353,4.682-.858,1.429-.774.892,4.869-1.61-.218-20.526,3.763-1.43.774-.893-4.868,1.612.217,8.433-1.546-10.225-3.51-.626.436-1.012-5.52,2.165,1.141,8.539,3.05,11.184-7.177,1.6-1.768Z" transform="translate(-3.665 -8.393)" fill="#f7f1e8"/>
    </g>
    <g>
      <path d="M629.6,203.468l-.017-3.268-13.747-40.557-1.994-2.666,20.309-6.884,5.2,2.466,7.174,21.165-2.588,5.243,8.278,13.358,2.281,2.7-9.6,3.255-.3-3.1-8.051-12.889-.861-.526-2.508.85-.605,1.229,4.664,13.763,1.974,2.6Zm6.954-30.592.627-1.168-3.94-11.623-1.208-.544-6,2.031-.627,1.168,3.94,11.623,1.208.545Z" transform="translate(-3.665 -8.393)" fill="#f7f1e8"/>
      <path d="M668.345,142.73l13.167,38.845-2.549,5.159-15.477,5.246-5.22-2.526L645.1,150.609l2.629-5.12,15.476-5.246Zm-7.379,7-5.872,1.99-.628,1.168,9.89,29.18,1.208.545,5.873-1.99.626-1.168-9.889-29.18Z" transform="translate(-3.665 -8.393)" fill="#f7f1e8"/>
      <path d="M697.563,131.94,711,171.58l-2.609,5.18-15.537,5.267-5.1-2.569-13.436-39.639-1.994-2.666,9.6-3.256.037,3.33L693.783,172.1l1.208.546,6-2.032.627-1.168L689.8,134.573l-1.994-2.666,9.726-3.3Z" transform="translate(-3.665 -8.393)" fill="#f7f1e8"/>
      <path d="M727.54,170.27l-9.6,3.255-.016-3.269L704.173,129.7l-2-2.666,8.626-2.924,20.855,24.508-8.584-25.325-2-2.667,9.727-3.3.037,3.33,13.747,40.556,1.973,2.6-8.748,2.965-20.834-24.447,8.584,25.326Z" transform="translate(-3.665 -8.393)" fill="#f7f1e8"/>
      <path d="M735.581,115.712l20.31-6.884,5.2,2.466,13.166,38.845-2.609,5.18L751.339,162.2l-.159-3.287-13.747-40.558ZM757,150.532l1.229.606,5.933-2.011.606-1.228-9.89-29.179-1.229-.606-5.933,2.011-.607,1.228Z" transform="translate(-3.665 -8.393)" fill="#f7f1e8"/>
    </g>
    <g>
      <path d="M668.641,311.6l-5.189,2.733-.336-1.824-.859-1.632-.731-.2-3.164,1.668-.249.715,2.751,5.22.747.232,5.743-3.027,3.138.974,5.45,10.343-.972,3.138-8.255,4.35-3.237-.921-2.2-4.177L660,327.866l5.156-2.716.3,1.841.859,1.632.731.2,3.165-1.668.249-.715-2.751-5.22-.747-.232-5.678,2.992-3.254-.954-5.466-10.376,1.087-3.158,8.255-4.349,3.121.94,2.236,4.241Z" transform="translate(-3.665 -8.393)" fill="#f7f1e8"/>
      <path d="M666.929,302.494l5.122-2.7.321,1.874,4.279,8.124.748.231,3.165-1.668.232-.747-4.281-8.124-1.332-1.341,5.188-2.733.32,1.874,11.4,21.632,1.348,1.291-5.188,2.734-.336-1.824-4.418-8.387-.748-.23-3.164,1.667-.232.747,4.419,8.386,1.346,1.292-5.122,2.7-.3-1.842-11.4-21.633Z" transform="translate(-3.665 -8.393)" fill="#f7f1e8"/>
      <path d="M711.513,310.686l-5.188,2.733-.157-1.168-2.908-3.3-.747-.231-4.078,2.149-.232.746,1.08,4.267.875.79L694.97,319.4l-.061-2.093-6.343-24.38-1.212-1.2L693,288.758l.3,1.678,16.522,19.015Zm-14.43-4.445,2.414-1.272.2-.566-5.775-7.086,2.578,8.771Z" transform="translate(-3.665 -8.393)" fill="#f7f1e8"/>
      <path d="M718.169,307.178l-5.123,2.7-.3-1.841-11.4-21.633-1.365-1.323,4.6-2.425L718.545,294.6l-7.118-13.508-1.365-1.324,5.188-2.734.321,1.874,11.4,21.632,1.346,1.292-4.665,2.458L709.7,292.379l7.117,13.508Z" transform="translate(-3.665 -8.393)" fill="#f7f1e8"/>
      <path d="M740.942,295.179l-.207-1.266-8.532-7.094-.18,4.722,2.6,4.927,1.364,1.324-5.123,2.7-.32-1.874-11.381-21.6-1.364-1.325,5.122-2.7.321,1.874,4.676,8.875.341-12.644-.7-.546,5.807-3.061-.517,2.817-.418,10.6,11.926,9.975,2.533,1.167Z" transform="translate(-3.665 -8.393)" fill="#f7f1e8"/>
    </g>
  </g>
</svg>
