<svg xmlns="http://www.w3.org/2000/svg" width="847.152" height="812.883" viewBox="0 0 847.152 812.883">
  <path d="M725.334,80.832l-.016-.024C724.991,80.99,724.688,81.169,725.334,80.832Z" transform="translate(-8.828 -32.07)" fill="#f1f1f1"/>
  <path d="M848.955,129.8a75.615,75.615,0,0,0-30.009-22.125c-1.39-5.639,11.231-23.452,6.252-29.708-2.477-3.112-7.158-7.738-24.057-.306,0,0,19.629-23.136-9.619-21.226a21.748,21.748,0,0,0-5.949.559,44.5,44.5,0,0,0-8.863,1.9h0s16.265-29.973-18.57-14.291a11.227,11.227,0,0,0-1.614.742q-.891.418-1.729.83c-.253-8.113-3.165-14.97-14.775-5.783a27.19,27.19,0,0,0-6.747,7.5c-2.259-3.916-6.025-8.677-12.8-4.413-2.961,1.863-10.081,14.223,4.847,37.332.349-.2.726-.393.016.024-37.225,21.826-58.593,37.647-76.29,73.292-10.209,20.564-33.788,65.473-50.351,88.231-22.506,30.924-64.183,55.316-102.55,61.1-47.5,7.162-47-3.616-198.429,1.486-13.674.46-34.033,2.56-46.914-1.486-15.88-4.988-31.424-32.77-46.412-40-8.9-4.292-9.679-4.049-17.543-10.072-5.58-4.274-9.186-4.354-13.526-9.7-4.781-5.893-10.791-9.1-17.225-12.812-5.557-3.2-9.717-7.883-14.573-12-9.7-8.212-20.325-14.336-31.449-20.274-10.124-5.405-19.9-11.544-30.529-15.966-6.86-2.854-14.819-6.485-22.815-9-16.28-5.131-32.715-5.656-40.349,14.356-9.066,23.766,18.011,17.263,8.581,19.856,0,0-4.669,1.751-8.755,10.506s-8.358,33.7,11.488,42.452-11.31,11.733-13.644,28.076,9.922,37.356,22.18,44.36c0,0-10.706-.513-17.747,3.448s-3.081,3.961.44,7.921,14.522,11,14.522,18.924S51.75,382.99,54.831,395.312s4.4,10.562,5.721,14.083,1.32,7.041,2.64,13.2,5.922,6.1,6.6,8.362-.453,5.661,0,8.379,5.226,16.216,7.915,21.977,11,7.244,11.381,12.621,21.151,21.05,22.95,30.648,5.112,12.514,8.244,27.727c3.024,14.69,20.095,27.8,27.716,49.9,4.889,14.179,25.709,14.381,66.231,56.93a182.86,182.86,0,0,0,45.293,34.879h0s41.6,26.711,71.058,32.561l6.744,24.684,10.328,31.288s9.342,17.421,10.8,28.1c-3.4,2.137-8.529,5.319-10.284,6.194-2.713,1.352-12.356,4.5-15.067,4.649s-8.734-.613-10.695,1.191a4.814,4.814,0,0,0-1.157,1.518c-2.769,1.575-7.009,4.287-8.267,6.738a45.235,45.235,0,0,1,9.338-1.4,6.686,6.686,0,0,0,5.646,3.547c3.915,0,13.554.017,16.267-1.034s8.32-2.589,11.3-5.708c3-3.138,5.715-1.408,7.431-1.452,3.1-.08,2.6.412,5.673,1.3,1.9.547,5.825,5.628,11.849,6.088s8.787,1.6,12.267,2.012c4.732.555,14.945,2.413,15.849,2.716s16.25-1.8,18.657-.137,4.044,3.179,6.907,2.279c2.582-.812,4.3-1.138,4.726-2.3,3.423.483,9.841,4.1,9.841,4.1-1.459-3.593-8.756-8.216-9.867-8.9a2.706,2.706,0,0,0-1.676-1.779c-2.56-.907-6.322-3.02-7.075-3.021s-10.943-1.659-12.148-1.66-8.748.278-10.405.275-5.271-.308-5.571-1.363-2.1-3.768,3.018-4.062,10.355.053,11.775.007c2.354-.077,7.016-1.639,8.673-1.637s6.477-.594,7.53-.141,3.745,2.531,6.8.743c1.659-.972,3.491-1.594,4.692-2.628,3.449.547,9.723,4.082,9.723,4.082-1.168-2.877-6.08-6.414-8.563-8.064-.56-1.531-2.486-1.4-4.808-2.256-2.861-1.058-6.463-1.466-11.43-1.172-4.6.272-16.547,1.136-20.162,1.131s-6.476-.159-8.584-.162-15.794-4.916-17-6.574a23.816,23.816,0,0,0-7.689-13.985c-5.932-5.243-8.457-20.617-9.492-27.734s-5.712-12.349-7.18-20.5c-.749-4.158-3.1-9.875-5.316-15.221,14.487-2.81,29.859-9.422,41.031-15.358,18.294,9.105,38.962,16.741,56.828,16.741q3.136,0,6.255-.142l11.2,32.349,13.868,31.85s10.665,23.673,11.375,35.719c-2.777,4.129-6.739,9.707-8.551,10.767-2.943,1.721-13.527,5.979-16.558,6.347s-9.847-.033-11.911,2.139a5.4,5.4,0,0,0-1.185,1.789c-2.989,1.976-7.544,5.336-8.771,8.181,0,0,6.336-2.088,10.372-2.275a7.519,7.519,0,0,0,6.6,3.557c4.395-.288,15.212-1,18.176-2.38s9.143-3.529,12.255-7.253a19.021,19.021,0,0,1,5.333-4.817c2.883-2.227,2.883-2.227,6.4-1.464,2.177.472,6.959,5.879,13.752,5.943s9.981,1.141,13.915,1.338c5.352.268,16.952,1.587,17.988,1.859s14.081,2.471,16.907,4.153,5.868,1.483,9.013.258c2.837-1.1,4.742-1.6,5.131-2.933,3.877.285,11.35,3.86,11.35,3.86-1.9-3.915-10.421-8.55-11.74-9.251A3.039,3.039,0,0,0,581,825.429c-2.94-.826-7.32-2.915-8.166-2.86s-7.793-2.374-9.146-2.286-9.619-1.743-11.478-1.623-7.8.171-8.213-.99-2.643-4.07,3.081-4.785,12.71-.324,14.117.433,3.921.252,5.78.13,7.223-1.152,8.439-.723,4.061,4.317,7.1,1.742c1.984-1.684,4.361-3.031,5.756-4.709,3.934.4,11.118,3.841,11.118,3.841-1.526-3.14-7.3-6.741-10.214-8.406-.743-1.676-2.894-1.381-5.564-2.171-3.289-.972-8.559-3.682-13.563-2.336s-14.906.468-18.962.734-7.279.307-9.645.462-18.091-4.332-19.565-6.1a26.788,26.788,0,0,0-9.677-15.116c-7.05-5.438-11.036-22.5-12.731-30.408s-7.335-13.428-9.6-22.466c-1.587-6.35-6.8-15.794-10.2-23,33.089-7.146,61.483-27.445,73.436-61.169q1.054-2.976,2.023-5.738c35.654-12.436,85.411-51.666,93.582-58.356,9.808-8.03,39.036-35.055,65.385-87.754s49.041-115.482,51.511-175.591,5.155-99.985,5.155-99.985.523-6.945.715-12.7c.064-1.906.832-6.809,1.893-12.7a6.11,6.11,0,0,0,3.906,2.767c7.268,1.052,11.632-1.156,15.639-3.2,4.781-2.439,5.733-3.443,10.945-9.192,5.367-5.921,6.4-10.512,9.249-20.455,2.476-8.65.014-21.661-.908-26.037C827.29,134.952,848.955,129.8,848.955,129.8Z" transform="translate(-8.828 -32.07)" fill="none" stroke="#d94a4a" stroke-miterlimit="10" stroke-width="7.861"/>
  <path d="M379.248,569.37c-35.215-8.116-71.8-24.828-115.139-52.594-7.7-4.932-14.992-10.027-21.682-15.145a317.265,317.265,0,0,1-34.978-30.978c-19.262-19.875-33.435-38.7-43.328-57.557-.213-.407-.657-1.106-1.127-1.846-2.5-3.931-5.606-8.823-3.462-12.869.777-1.465,2.487-3.236,6.225-3.349a50.6,50.6,0,0,1,7.385.478c1.409.163,2.739.317,4.064.393,3.928.226,7.972.314,11.882.4q2.1.045,4.194.1c8.293.215,16.387.324,24.055.324,14.545,0,28-.374,41.123-1.144,11.844-.695,24.122-1.69,36.5-2.959,12.351-1.267,24.759-2.816,36.758-4.315l3.228-.4c12.6-1.574,25.631-3.2,38.465-4.706,20.1-2.355,36.529-3.874,51.711-4.781,12.2-.729,22.206-1.068,31.5-1.068,25.265,0,46.168,2.657,63.9,8.124a120.368,120.368,0,0,1,45.629,26.105c13.988,12.991,23.272,28.663,26.85,45.323a63.805,63.805,0,0,1,1.306,9.617c.873,14.845-5.7,33.593-12.6,45.587-6.8,11.814-17.818,23.907-30.231,33.179-27.59,20.608-65.081,31.5-108.42,31.5A288.7,288.7,0,0,1,379.248,569.37Zm46.332-183.2c-15.031.9-31.322,2.405-51.269,4.742-12.8,1.5-25.82,3.127-38.407,4.7l-3.228.4c-12.041,1.5-24.492,3.059-36.928,4.335-12.484,1.28-24.877,2.285-36.833,2.986-13.28.779-26.88,1.158-41.578,1.158-7.735,0-15.9-.111-24.257-.328q-2.078-.054-4.16-.1c-3.979-.086-8.094-.175-12.161-.41-1.549-.089-3.054-.263-4.509-.431-1.8-.208-3.5-.405-5.174-.435a44.469,44.469,0,0,0,2.479,4.284c.583.918,1.087,1.712,1.45,2.4,9.542,18.188,23.289,36.426,42.026,55.759a309.482,309.482,0,0,0,34.119,30.214c6.519,4.987,13.636,9.958,21.153,14.774,42.564,27.27,78.371,43.654,112.691,51.565a280.815,280.815,0,0,0,62.056,7.213c41.65,0,77.532-10.358,103.768-29.955,11.426-8.534,21.947-20.059,28.146-30.828,6.325-10.992,12.36-28.011,11.581-41.254a55.957,55.957,0,0,0-1.146-8.442c-3.241-15.091-11.727-29.358-24.54-41.258A112.434,112.434,0,0,0,518.23,392.9c-16.982-5.235-37.136-7.78-61.614-7.78C447.482,385.12,437.62,385.455,425.58,386.174Z" transform="translate(-8.828 -32.07)" fill="#d94a4a"/>
  <path d="M565.168,418.536c29.6-9.76,53.447-25.79,68.236-37.519,16.041-12.721,25-23.035,25.372-23.467l-5.884-5.08a197.763,197.763,0,0,1-24.476,22.582c-14.265,11.293-37.24,26.725-65.683,36.1Z" transform="translate(-8.828 -32.07)" fill="#d94a4a"/>
  <path d="M725.334,80.832l-.016-.024C725.667,80.613,726.044,80.415,725.334,80.832Z" transform="translate(-8.828 -32.07)" fill="none"/>
  <path d="M725.318,80.808l.016.024C724.688,81.169,724.991,80.99,725.318,80.808Z" transform="translate(-8.828 -32.07)" fill="#f1f1f1"/>
  <path d="M665.151,224.614a291.492,291.492,0,0,1-39.009-27q1.944-3.5,3.835-6.969a283.119,283.119,0,0,0,39.3,27.374A251.725,251.725,0,0,0,736.538,245.1a224.035,224.035,0,0,0,32.208,5.239q-.2,3.708-.416,7.765a231.656,231.656,0,0,1-33.759-5.482A259.6,259.6,0,0,1,665.151,224.614Z" transform="translate(-8.828 -32.07)" fill="#d94a4a"/>
  <path d="M632.222,339.268a502.883,502.883,0,0,1-60.859-69.183q3.084-2.4,6.019-4.922a494.537,494.537,0,0,0,60.172,68.448c28.5,26.864,58.863,48.738,90.24,65.016q10.176,5.28,20.5,9.766-1.174,3.726-2.409,7.43-10.912-4.722-21.67-10.3C692.2,388.918,661.248,366.625,632.222,339.268Z" transform="translate(-8.828 -32.07)" fill="#d94a4a"/>
  <path d="M225.6,398.512c14.215-23.48,29.883-59.809,42.817-92.667,2.749.073,5.55.062,8.342,0-13.278,33.923-29.647,72.144-44.509,96.693Z" transform="translate(-8.828 -32.07)" fill="#d94a4a"/>
  <path d="M196.822,455.243l6.76,3.837c-.388.684-9.79,17.052-35.026,42.195a467.1,467.1,0,0,1-45.216,39.258,32.88,32.88,0,0,1-2.913-7.569A456.675,456.675,0,0,0,162.74,496.1C182.446,476.511,193.651,460.809,196.822,455.243Z" transform="translate(-8.828 -32.07)" fill="#d94a4a"/>
  <path d="M526.172,554.26l7.76-.44c.024.424,2.548,39.732,28.441,81.255-2.463,1.039-4.883,1.981-7.239,2.8l-.061.173a210.236,210.236,0,0,1-23.306-53.785C526.913,566.575,526.2,554.754,526.172,554.26Z" transform="translate(-8.828 -32.07)" fill="#d94a4a"/>
  <path d="M323.193,604.2c8.284-30.966,9.5-52.735,9.512-53.03l3.882.2,3.881.2c-.046.91-1.231,22.659-9.706,54.421a354.334,354.334,0,0,1-19.207,54.074,329.127,329.127,0,0,1-17.294,33.22c-2.386-1.149-4.721-2.313-6.98-3.471A320.931,320.931,0,0,0,304.408,657,346.534,346.534,0,0,0,323.193,604.2Z" transform="translate(-8.828 -32.07)" fill="#d94a4a"/>
  <polygon points="323.877 519.098 327.758 519.297 323.877 519.099 323.877 519.098" fill="#f1f1f1"/>
  <g>
    <path d="M669.641,164.351l8.163-6.192,1.093,3.168,9.781,12.9,1.37.185,5.044-3.825.19-1.37L685.5,156.318l-2.705-1.945,8.268-6.271,1.094,3.168L718.2,185.606l2.716,1.855-8.267,6.271-1.106-3.077L701.45,177.344l-1.37-.184-5.043,3.825-.191,1.369,10.1,13.31,2.718,1.854L699.5,203.71l-1.053-3.116L672.4,166.257Z" transform="translate(-8.828 -32.07)" fill="#d94a4a"/>
    <path d="M724.974,184.385l-1.093-3.169L697.836,146.88l-2.717-1.855,19.758-14.987,6.7,6.343-3.293,1.274-10.14,7.691-.19,1.368,6.168,8.132,1.369.185,3.327-2.524,1.919-2.762,6.246,8.234-3.176,1.1-3.328,2.524-.23,1.317,6.443,8.494,1.369.185,10.139-7.691,2.115-2.827,4.422,8.312Z" transform="translate(-8.828 -32.07)" fill="#d94a4a"/>
    <path d="M773.434,147.626l-8.268,6.271-.606-1.987-6.013-4.9-1.369-.185-6.5,4.93-.189,1.368,3.1,7.112,1.75,1.121-8.266,6.271-.7-3.628L728.356,123.4l-2.456-1.725,9-6.823,1,2.83,34.235,28.287ZM747,144.1l3.848-2.918.192-1.043-12.093-10.652,7,14.517Z" transform="translate(-8.828 -32.07)" fill="#d94a4a"/>
    <path d="M746.022,106.413l17.263-13.094,5.762.686,24.947,32.887-.854,5.786-17.263,13.094-1.2-3.09-26.045-34.336Zm31.57,26.393,1.369.185L784,129.165l.192-1.368-18.74-24.7-1.369-.185-5.044,3.826-.19,1.368Z" transform="translate(-8.828 -32.07)" fill="#d94a4a"/>
  </g>
  <g>
    <path d="M618.468,287.933l-10.427-3.127,2.02-2.869,13.208-44.032-.086-3.572,9.364,2.809,3,34.414,8.248-27.494-.086-3.574,10.56,3.168-2.039,2.936-13.209,44.031.106,3.506-9.5-2.849-3.015-34.347-8.248,27.494Z" transform="translate(-8.828 -32.07)" fill="#d94a4a"/>
    <path d="M644.3,295.683l2.039-2.935,13.208-44.031-.106-3.507,25.237,7.571-1.262,9.756-3.155-2.033-12.95-3.885-1.295.7-3.128,10.427.7,1.295,4.251,1.275,3.573-.087-3.167,10.559-2.936-2.038-4.25-1.275-1.275.631L656.516,289l.7,1.3,12.95,3.885,3.753.039-4.377,9.039Z" transform="translate(-8.828 -32.07)" fill="#d94a4a"/>
    <path d="M676.373,300.744l12.652-42.172,5.485-2.843,16.8,5.042,2.948,5.372-2.55,8.5.106,3.5-10.559-3.168,2.085-2.848,1-3.321-.631-1.275-6.575-1.973-1.3.7-9.5,31.677.7,1.3,6.575,1.973,1.228-.719.977-3.254-.173-3.526,10.56,3.168-2.02,2.869-2.569,8.567-5.44,2.929-16.8-5.041Z" transform="translate(-8.828 -32.07)" fill="#d94a4a"/>
    <path d="M726.855,320.447l1.388-1.972-2.1-20.754-6.462,6.1-3.009,10.029.087,3.572-10.427-3.128,2.038-2.935,13.19-43.964-.086-3.574,10.426,3.128-2.039,2.936-5.418,18.064,17.113-16.51-.226-1.661,11.822,3.546-4.4,3.095-14.524,13.668,2.856,29.088,1.86,4.9Z" transform="translate(-8.828 -32.07)" fill="#d94a4a"/>
  </g>
  <g>
    <path d="M581.319,549.952,594.567,533.7l5.589-.658,12.14,9.9.491,5.7,5.726-.627,12.728,10.375.53,5.646-13.248,16.252-1.76-2.738-32.456-26.456Zm20.157,4.86,1.283-.175,3.871-4.749-.087-1.292-7.636-6.225-1.333.135-3.871,4.749.136,1.333Zm11.371.144-3.871,4.749.137,1.333,8.077,6.584,1.332-.136,3.871-4.749-.136-1.332-8.077-6.584Z" transform="translate(-8.828 -32.07)" fill="#d94a4a"/>
    <path d="M637.754,556.688l-1.711-2.7-32.456-26.456-3.037-1.172L613.8,510.107l5.589-.658,16.938,13.807.579,5.686,13.8,6.765L654,536.763l-6.265,7.686-1.861-2.415L632.5,535.54l-.986.011-1.636,2.007.136,1.333,11.015,8.978L644.02,549Zm-10.131-28.956-.086-1.293-9.3-7.581-1.284.176-3.911,4.8.087,1.293,9.3,7.581,1.284-.176Z" transform="translate(-8.828 -32.07)" fill="#d94a4a"/>
    <path d="M656.986,533.1l-1.761-2.739L622.77,503.9l-2.989-1.132,15.164-18.6,7.771,4.461-2.809,1.947-7.782,9.546.136,1.333,7.686,6.265,1.333-.136,2.553-3.133,1.172-3.038,7.784,6.345-2.739,1.761-2.554,3.132.087,1.294,8.029,6.544,1.333-.135,7.781-9.546,1.341-3.145,6.083,6.832Z" transform="translate(-8.828 -32.07)" fill="#d94a4a"/>
    <path d="M694.174,487.473l-6.345,7.784-1.03-1.736L680,490.262l-1.333.135-4.988,6.12.136,1.333,4.561,6,1.907.659-6.344,7.783-1.5-3.259L646.115,474.86l-2.712-1.071,6.9-8.469,1.6,2.443,38.778,18.9Zm-25.72,2.664,2.954-3.622-.061-1.027-13.851-7.3,9.941,12.1Z" transform="translate(-8.828 -32.07)" fill="#d94a4a"/>
    <path d="M686,445.529l-6.346,7.783-1.751-2.649-2.447-2-1.285.176-3.87,4.749.087,1.292,7.832,6.384,1.333-.135,7.023-8.616,5.6-.57,15.519,12.65.569,5.6-10.095,12.386-5.718.717-6.266-5.109-2.908-1.23,6.305-7.734,1.711,2.7,2.448,2,1.283-.174,3.87-4.749L698.8,467.7l-7.833-6.384-1.333.136-6.942,8.519-5.767.676-15.567-12.689-.4-5.7,10.1-12.386,5.55-.609,6.364,5.187Z" transform="translate(-8.828 -32.07)" fill="#d94a4a"/>
    <path d="M701.186,417.1l-2.84,2.084-3.791,4.651.127,1.243,27.9,22.745,2.989,1.133-6.346,7.783-1.711-2.7-27.9-22.745-1.284.176-3.871,4.748-1.389,3.1-6.033-6.794,16.24-19.923Z" transform="translate(-8.828 -32.07)" fill="#d94a4a"/>
  </g>
  <g>
    <path d="M352.394,315.562h23.2l4.473,4.333v17.332l-4.543,4.4,4.543,4.473v18.17l-4.473,4.4h-23.2l1.119-3.425V318.917Zm9.924,20.686,1.049.979h6.778l1.049-.979v-10.9l-1.049-1.048h-6.778l-1.049,1.048Zm7.827,9.854h-6.778l-1.049,1.048v11.531l1.049,1.048h6.778l1.049-1.048V347.15Z" transform="translate(-8.828 -32.07)" fill="#d94a4a"/>
    <path d="M419.343,368.675H408.232l.768-2.1-1.957-8.106L406,357.423H397.26l-1.049,1.049-1.957,8.106.769,2.1H383.912l1.747-3.564,10.9-46.474-.979-3.075h12.09l-.978,3.075,10.9,46.474Zm-20.266-20.2h5.171l.839-.769-3.425-16.982-3.424,16.982Z" transform="translate(-8.828 -32.07)" fill="#d94a4a"/>
    <path d="M422.138,364.272V319.9l4.473-4.333h17.68l4.4,4.333v8.945l1.118,3.355H438.7l1.188-3.355v-3.494l-.978-1.048h-6.919l-1.048,1.048v33.335l1.048,1.048h6.919l.978-1.048v-3.424L438.7,351.9h11.111l-1.118,3.355v9.015l-4.4,4.4h-17.68Z" transform="translate(-8.828 -32.07)" fill="#d94a4a"/>
    <path d="M476.578,368.675l.769-2.306L469.31,346.94l-4.473,7.758V365.25l1.118,3.425H454.983l1.118-3.425V318.986l-1.118-3.424h10.972l-1.118,3.424V338L476.578,317.1l-.7-1.538h12.44l-3.355,4.263-10.063,17.4,11.181,27.254,3.215,4.194Z" transform="translate(-8.828 -32.07)" fill="#d94a4a"/>
  </g>
  <g>
    <path d="M374.049,499l1.362,5.223H355.768L357.131,499l-9.878-49.731L337.716,499l1.362,5.223H319.322L320.684,499,305.243,426.33l-3.293-8.4h17.826l-1.022,3.293,10.332,52.228L339.419,422.7l-1.249-4.769h18.053l-1.249,4.769,10.445,50.752,10.333-52.228-1.249-3.293h18.053l-3.407,8.288Z" transform="translate(-8.828 -32.07)" fill="#d94a4a"/>
    <path d="M415.72,504.219H397.894l1.816-5.45V423.491l-1.816-5.563H415.72l-1.817,5.563v75.278Z" transform="translate(-8.828 -32.07)" fill="#d94a4a"/>
    <path d="M442.4,504.219H424.575l1.816-5.45V423.491l-1.816-5.563h16.009L461.475,470.5V423.491l-1.816-5.563h18.053l-1.817,5.563v75.278l1.817,5.45H461.475l-20.891-52.456v47.006Z" transform="translate(-8.828 -32.07)" fill="#d94a4a"/>
    <path d="M487.477,497.065v-72.1l7.267-7.039H523.47l7.152,7.039V439.5l1.818,5.451H514.386l1.931-5.451v-5.676l-1.59-1.7H503.6l-1.59,1.7v54.158l1.59,1.7h11.127l1.59-1.7V472.427h-4.088l-3.179-14.533h23.39l-1.818,5.677v33.494l-7.152,7.154H494.744Z" transform="translate(-8.828 -32.07)" fill="#d94a4a"/>
  </g>
  <g>
    <path d="M414.443,665.331h-34.5l1.453-4.357V600.79l-1.453-4.447H394.2l-1.362,4.447v51.742L394.2,653.8h17.61l4.721-1.271Z" transform="translate(-8.828 -32.07)" fill="#d94a4a"/>
    <path d="M421.339,665.331l1.453-4.448V600.7l-1.453-4.356h34.5l2.088,12.708-4.721-1.362H435.5l-1.361,1.362V623.3l1.361,1.361h5.81l4.448-1.452v14.433l-4.448-1.453H435.5l-1.361,1.271v14.888l1.361,1.361h17.7l4.721-1.361-2.088,12.98Z" transform="translate(-8.828 -32.07)" fill="#d94a4a"/>
    <path d="M463.457,659.612V601.971l5.809-5.628h22.966l5.719,5.628V613.59l1.452,4.356H484.97l1.544-4.356v-4.539l-1.271-1.362h-8.9l-1.271,1.362v43.3l1.271,1.361h8.9l1.271-1.361V639.914h-3.269L480.7,628.295h18.7l-1.452,4.539v26.778l-5.719,5.719H469.266Z" transform="translate(-8.828 -32.07)" fill="#d94a4a"/>
  </g>
  <g>
    <path d="M204.205,530.988l-2.863-3.046-6.02-3.8-1.447.326-22.794,36.124-.905,3.682L160.1,557.918l2.933-2.4,22.793-36.124-.391-1.487-6.147-3.879-3.855-1.192,7.136-8.079,25.793,16.274Z" transform="translate(-8.828 -32.07)" fill="#d94a4a"/>
    <path d="M213.115,524.028l9.95,6.279-2.974,2.465-9.957,15.781.351,1.55,6.147,3.878,1.551-.35,9.957-15.78,1.009-3.705,10.076,6.357-2.973,2.466L209.74,584.986l-.905,3.683-10.077-6.358,2.87-2.443,10.277-16.288-.351-1.55-6.147-3.879-1.55.351L193.579,574.79l-.905,3.682-9.949-6.279,2.933-2.4,26.511-42.018Z" transform="translate(-8.828 -32.07)" fill="#d94a4a"/>
    <path d="M223.727,598.065l-9.949-6.278,2.932-2.4,26.513-42.018.945-3.745,9.95,6.278-2.974,2.466-26.512,42.018Z" transform="translate(-8.828 -32.07)" fill="#d94a4a"/>
    <path d="M231.7,597.511l25.392-40.243,6.535-1.371,16.034,10.118,1.514,6.448-5.119,8.112-.906,3.682L265.069,577.9l3-2.362,2-3.169-.287-1.51-6.211-3.919-1.488.391-19.073,30.23.287,1.51,6.211,3.919,1.487-.391,5.479-8.683-2.282-1.439,3.344-9.231,13.055,8.237-3.013,2.53-11.8,18.7-6.512,1.474-16.033-10.118Z" transform="translate(-8.828 -32.07)" fill="#d94a4a"/>
    <path d="M289.607,572.293l9.949,6.277-2.973,2.466-9.957,15.78.35,1.55,6.147,3.879,1.551-.349,9.957-15.782,1.009-3.705,10.077,6.359-2.973,2.465-26.513,42.018-.9,3.682-10.078-6.359,2.871-2.442L288.4,611.845l-.352-1.551-6.147-3.879-1.55.351-10.277,16.288-.906,3.681-9.949-6.277,2.933-2.4,26.512-42.018Z" transform="translate(-8.828 -32.07)" fill="#d94a4a"/>
  </g>
  <g>
    <path d="M124.579,272.3l-1.652-6.007-5.29-9.2-2.135-.576-55.18,31.737-3.756,4.222-8.854-15.394,5.538-1.123,55.181-31.737.521-2.231-5.4-9.391L99.3,228.348l15.029-5.679,22.661,39.4Z" transform="translate(-8.828 -32.07)" fill="#d94a4a"/>
    <path d="M89.583,349.888,80.731,334.5l3.516-.607,9.671-9.17.618-2.287-6.96-12.1-2.288-.618L72.5,313.462,70.207,316.2l-8.852-15.393,6.329-.419,73.063-21.926,3.481-3.8,9.633,16.747-5.039,1.1L93.129,344.627Zm11.831-44.167,4.121,7.164,1.733.55,20.8-18.274-26.252,8.787Z" transform="translate(-8.828 -32.07)" fill="#d94a4a"/>
    <path d="M100.943,369.637l-8.741-15.2,5.538-1.124L161.924,316.4l3.853-4.276,8.741,15.2-5.634,1.179L104.7,365.417Z" transform="translate(-8.828 -32.07)" fill="#d94a4a"/>
    <path d="M126.444,413.975l-21.158-36.787,5.538-1.124,64.184-36.916,3.853-4.276,8.741,15.2-5.579,1.275-55.181,31.738-.52,2.232,10.8,18.781,4.251,4.254Z" transform="translate(-8.828 -32.07)" fill="#d94a4a"/>
  </g>
</svg>
