<svg xmlns="http://www.w3.org/2000/svg" width="246.063" height="199.669" viewBox="0 0 246.063 199.669">
  <g>
    <path d="M138.59,138.937c-1.559.129-2.067,2.022-2.253,3.411l-.6,3.236c-.337,1.457.1,2.47.431,3.869-2.592,3.872-8.278,3.063-14.846,7A27.36,27.36,0,0,0,111.025,168c-1.662,3.806-3.054,7.929-3.175,11.737V180.8c.144,4.3,2.087,8.1,7.343,10.455.712.319,1.306.357,1.96.67-.288,1.08-2.1,3.862-2.951,8.173a30.168,30.168,0,0,0,.047,13.337c.274,1.081.652,1.974.881,2.961a4.575,4.575,0,0,0,1.012-.2c0-1.3-.405-1.817-.405-3.236,0-6.455.285-15.052,3.236-20.628,3.222,0,9.5,1.018,12.34,2.423,1.188.587,2.114,1.232,3.232,1.824-.786,1.173-3.908,4.409-.613,6.073,1.491.753,3.6,1.908,4.262-.4.119-.415.155-.643.315-1.1.2-.575.374-.775.507-1.161.493-1.433-.555-.366-.979.076-2.663,2.782-4,.559-2.541-1.128,1.179-1.361,2.288.11,2.159-1.24l-.146-.511c-.059-.511.231-1.193-.267-1.684-.663-.654-1.138-.027-2.244-1.194a5.782,5.782,0,0,0-2.674-1.775,27.884,27.884,0,0,0-7.284-1.817c.265-.4.506-.623.807-1.013a9.53,9.53,0,0,1,3.067-2.615c.874-.367,1.9.173,2.877.517.937.33,2.5,1.165,3.361.684-.077-.924-.549-.914-1.207-1.22l-3.253-1.6c-.633-.365-1.024-.561-1.648-.981a21.428,21.428,0,0,1-2.845-2.008c-2.8-2.714-2.213-4.517-.985-7.768a58.849,58.849,0,0,0,3.018-8.524c.208-.973.51-1.56-.563-1.56-.933,0-1.31,2.74-1.685,3.573l-2.6,5.284c-2.963,5.449-3.345,8.327,2.35,11.486.489.271.692.277,1.13.488-1.306,1.951-1.337.884-3.438,4.853a33.98,33.98,0,0,1-4.6-.857c-10.505-2.441-8.8-9.964-6.141-17.977a27.389,27.389,0,0,1,1.575-3.885,31.848,31.848,0,0,1,2.048-3.615,21.969,21.969,0,0,1,5.42-5.7,17.177,17.177,0,0,1,7.971-3.354c.059,2.687,3,5.678,1.2,14.546a24.94,24.94,0,0,1-1.937,6.556,10.356,10.356,0,0,1-2.652,3.618c-.885.757-1.332.962-.654,1.975a9.511,9.511,0,0,0,3.159-1.493c2.73-1.827,4.342-6.008,4.7-9.455l.032-4.216c-.3-5.771-.914-5.476-2.035-9.906a12.766,12.766,0,0,0-.4-2.03c4.444-1.035,5.28-2.769,6.27-3.034-.021.953-.223.675,0,1.214a5.206,5.206,0,0,0,2.079-1.561c.632-.723.671-1.877,1.763-1.877.793,0,.475.493.671,1.149.418,1.394,1.627,1.057,2.807-.705.474-.708.9-1.147,1.376-1.86a14.763,14.763,0,0,1,2.4,2.249c.4.424,2.046,2.05,2.046.38,0-1.249-3.549-4.285-4.565-5.748-2.058-2.966-2.486-3.022-4.993-5.524a5.388,5.388,0,0,1-.662-.754c-.749-.976-1.675-1.145-1.712.5Z" transform="translate(-26.968 -50.185)" fill="#d94a4a" fill-rule="evenodd"/>
    <path d="M154.769,190.305c.236-.352.843-1.1,1.166-1.463,1.857-2.076,2.367-3.287,3.688-4.806a22.255,22.255,0,0,0,1.011,6.674c-2.428,0-3.392,1.23-5.056,1.618l-.809-2.023Zm2.832-21.842Zm0,0-.564-.65c-.947.65-2.369,4.257-3.509,5.881-2.277,3.244-2.893,5.3-6.44,9.941-1.453,1.9-4.075,4.9-5.262,6.67-1.517-.8-6.645-2.534-6.035-.68.286.869.95.015,3.008,1.078a7.845,7.845,0,0,1,2.375,1.872c2.306,2.479,1,5.9,3.081,4.838,1.268-.645.819-3.311.07-4.551-.457-.756-.673-.565-.881-1.343a18.482,18.482,0,0,1,1.618-1.82,8.482,8.482,0,0,0,.621.794l.094.109.657.758a18.651,18.651,0,0,1,1.459,1.777c-.447,1.921-1.714,3.73-1.824,6.063-.128,2.736.333,2.72-.452,5.661-.192.718-.385.93.658,1.017.213-.916.554-1.7.81-2.629l2.224-8.7c.5.334,2.062,1.907,2.792,1.177,1.085-1.085-.98-1.921-1.532-2.437a52.433,52.433,0,0,1-4.5-4.6c.881-1.316,1.221-1.412,1.685-2.158.5-.805,1.034-1.564,1.552-2.289l1.536-2.308a69.725,69.725,0,0,0,5.311-10.059l1.039-2.8c1.136.761.276.727,3.09,1.157a22.359,22.359,0,0,0,3.989.259l-1.447,3.407a69.4,69.4,0,0,1-10.081,16.615,15.506,15.506,0,0,0-1.129,1.333c-.392.631-.393,1.4.529.949.611-.3.451-.813,1.409-1.069a22.35,22.35,0,0,0,2.361,4.919c1.536,2.661,4.447,5.5,5.324,6.811-5.07,1.181-6.4-.012-7.685.607.082.985.288.812,1.258.966.845.134,1.242.2,2.091.336,5.722.918,4.531-1.07,7.839.655,1.5.782,1.916,1.065,2.766-.542-.492-.734-3.345-2.213-6.019-5.1a9.525,9.525,0,0,1-.625-.79,48.75,48.75,0,0,1-4.277-5.633c.53-.142,1.326-.657,2.079-.956.789-.313,1.694-.54,2.371-.865,1.972,3.728.751,3.634,4.692,7.244,1.546,1.417,2.262.529.612-1.425a24.32,24.32,0,0,1-2.737-4.954c-.784-1.676-.372-.741-.343-2.078-.814-.431-.719-.4-1.077-1.349a20.812,20.812,0,0,1-1.157-6.748c0-2.2.331-1.385,1.481-3.779l1.74-3.519a15.831,15.831,0,0,1,.765-1.864c.831-1.63.97-2.429,1.562-3.7,1.591-3.413-2.491-1.392-4.523-1.482-1.1-.05-3.419-.5-4.453-.008Z" transform="translate(-26.968 -50.185)" fill="#d94a4a" fill-rule="evenodd"/>
    <path d="M153.151,146.824c-.288,1.239-2.531,4.854-1.011,4.854a4.273,4.273,0,0,0,2.188-.644,9.579,9.579,0,0,1,1.857-1.177c-.359.679-.667,1.564-.985,2.252-2.405,5.21-7.152,10.66-12.6,5.675-.563-.514-.3-.573-1.175-.646,0,2.987,3.756,4.854,6.472,4.854,1.117,0,1.353-.4,2.225-.607,0,.87.8,6.14.554,7.829-.409,2.867-.056,3.666-.959,7.541,1.059.224,1.151,0,1.467-1.161.2-.721.544-1.614.71-2.325.448-1.93,1.644-10.693-.6-12.25l-.244-.159a1.132,1.132,0,0,1-.121-.082c1.035-.241,1.648-1.1,2.427-1.618,1.565.829,2.913,1.484,3.7,3.173a14.085,14.085,0,0,1,.722,2.716c.114.662.128.921.241,1.579.128.745.09.861.592,1.229,1.389-.371.617-1.355.6-2.828a10.05,10.05,0,0,0-.488-3.355,5.609,5.609,0,0,0-4.362-3.525c.223-.959,1.053-1.724,1.5-2.741,1.185-2.666,2.944-8.071,2.944-10.4,0-.5-.647-.594-1.213-.607a23.915,23.915,0,0,1-.817,3.632c-.362.867-.309.522-1.32.906a11.177,11.177,0,0,1-1.706.72,14.3,14.3,0,0,0,1.011-4.044c0-.369.013-.022-.2-.405-.825.069-.823.1-1.011.809a4.952,4.952,0,0,1-1.254-1.578l-7.292-7.876c-1.455-1.472-2.266-2.806-3.184-2.883,0,2.569,4.62,6.919,6.425,8.743a17.929,17.929,0,0,0,3.018,3.05,8.186,8.186,0,0,1,1.882,1.353Z" transform="translate(-26.968 -50.185)" fill="#d94a4a" fill-rule="evenodd"/>
    <path d="M186,137.44c-.874.234-.809.37-.809,1.416a5.3,5.3,0,0,1,1.213.4c-.173.746-.421,1.432-.606,2.225-5.571.124-3.431,11.021-3.438,15.977-.006,3.555.806,8.017.806,9.306,0,1.075-.216,1.158.407,1.615.727-.533.312-1.223.435-2.4a84.1,84.1,0,0,0,.41-10.974l-.324-5.757c-.216-1.435-.253-4.264.445-5.591a2.425,2.425,0,0,1,.738-.9c.828-.6,1.323-.306,1.834.444,2.184,3.2.507,8.615.507,12.032,0,4.021.9,7.627.006,11.332-.246,1.022-.594,1.876-.815,2.825-1.808,0-2.112.368-2.641,1.606-.944,2.21-2.122,3.688-.061,4.534a7.26,7.26,0,0,0,2.3.534,1.363,1.363,0,0,0,1.012-.809c0-1.648-1.533-1.518-2.832-1.82a3.535,3.535,0,0,1,.607-1.618c1.613.237,3.079.606,3.8-2.061,1.482-5.453.848-6.9.848-12.7,0-2.918.148-6.234,0-9.1a10.746,10.746,0,0,0-.883-3.769,12.334,12.334,0,0,0-1.748-2.9c1.978-3.738,2.014-2.877,0-3.843,0-1.8.359-3.438-.606-3.438S186,135.641,186,137.44Z" transform="translate(-26.968 -50.185)" fill="#d94a4a" fill-rule="evenodd"/>
    <path d="M146.882,209.72l-2.492-1.351a6.7,6.7,0,0,0-5.44-.508c-1.1.462-.562.8-.562,1.455,2.324.541,3.057-2.091,8.743,2.986a13.824,13.824,0,0,0,5.726,3.375l3.836.653c.666.021.647-.044.7-.745-1.252-.6-.657.507-5.066-2.012l-4.439-2.842c.026-1.153,1.068-3.842,3.034-3.842,3.728,0,5.491,4.623,7.635,6.521,2.355,2.084,5.473,2.166,6.895,3.625.785.806.435,1.417.435,2.8,2.815,1.885,3.2-2.266,1.171-4.406a10.476,10.476,0,0,0-2.218-1.625c-3.166-1.908-4.557-1.554-7.679-5.466-3.435-4.3-8.613-5.789-10.284,1.385Z" transform="translate(-26.968 -50.185)" fill="#d94a4a" fill-rule="evenodd"/>
    <path d="M176.611,201.024c-1.187-.795-1.255-1.416-3.033-1.416-.538,2.307,1.356.515,2.1,3.359,1.077,4.107.161,3.956,4.841,6.889a6.976,6.976,0,0,1,2.765,3.1,28.756,28.756,0,0,0-4.323,1.339c-1.493.5-2.765.95-4.144,1.519a38.394,38.394,0,0,0-3.936,1.727,13.165,13.165,0,0,0-1.676,1.157c-1.2.9-.957,1.539-.482,1.539,1.216,0,1.019-.9,3.839-1.824.766-.252,1.331-.387,2.184-.647a36.686,36.686,0,0,0,4.057-1.6l3.96-1.724c1.571-.652.748.022,1.937.339.357-.745-.325-2.944-.683-3.767-.845-1.946-3.756-2.911-5.13-4.577-.678-.821-.988-2.6-1.266-3.79l17.422-5.229c1.327-.438,1.848-.884,1.993-1.248v-.447a.593.593,0,0,0-.4-.357,8.973,8.973,0,0,0-2.3.731c-1.849.545-5.572.857-7.982,1.725l-4.756,1.716a46.268,46.268,0,0,1-4.981,1.491Z" transform="translate(-26.968 -50.185)" fill="#d94a4a" fill-rule="evenodd"/>
    <path d="M166.378,149.574l-.227.8c3.289,1.552,2.964,1.853,5.687.412l5.532,12.67c.876,1.955,2.044,4.849,1.928,7.124-.245,4.788-3.819,3.792-3.819,5.89,0,1.22,1.618,1.378,3.178.145.333-.264.418-.34.787-.629,1.847-1.442,2.1-4.565,2.1-7,0-2.279-1.668-6-2.768-7.951l-5.7-10.475c-.381-.757-.074-.989-1.034-.989-1.246,0-.8.405-2.629.405-1.313,0-1.875-.854-3.033-.405Z" transform="translate(-26.968 -50.185)" fill="#d94a4a" fill-rule="evenodd"/>
    <path d="M156.547,218.66c-1.1-1.052-1.716-.6-3.229-1.219-.68-.276-1-.471-1.651-.776-2.98-1.387-2.131-.924-4.264-2.612-2.287-1.81-8.39-5.882-11.3-3.184a2.506,2.506,0,0,0-.449.563c-.977,1.561-.635,1.928.717,1.928.2-.858.493-1.564,1.262-1.773a3.7,3.7,0,0,1,2.588.349c4.68,2.393,4.871,3.781,7.1,5.234,3.136,2.04,9.845,5.877,9.227,1.49Z" transform="translate(-26.968 -50.185)" fill="#d94a4a" fill-rule="evenodd"/>
    <path d="M167.389,136.227c-1.369,0-4.728-.294-3.057,3.057.29.583.227.718,1.035.785.226-1.07-.258-.771.4-2.022,2.7.224,2.2,1.415,3.438,1.415.844,0,.692-1.213,2.831-1.213.867,0,.8.992.465,1.455-1.109,1.529-3.753,1.356-2.866,8.025.137,1.031.087,1.551,1.188,1.643.735-1.531-.466-3.757.968-6.11a9.056,9.056,0,0,1,.705-1.115c.716-.875,3.47-2.933,1.423-4.971-1.628-1.621-4.22-.1-4.916.062A15.309,15.309,0,0,1,168,131.575h-.809c-.45,1.929.2,2.792.2,4.652Z" transform="translate(-26.968 -50.185)" fill="#d94a4a" fill-rule="evenodd"/>
    <path d="M111.086,220.641c0,1.667.232,1.409,3.6.568L124.1,219.1c1.014-.278,1.962-.606,2.936-.907l6.106-1.58c1.447-.291,1.289-1,.592-2.035-3.121,0-8.344,2.073-11.41,2.948l-11.24,3.119Z" transform="translate(-26.968 -50.185)" fill="#d94a4a" fill-rule="evenodd"/>
    <path d="M134.748,159.363l.723,6.152c.323,2.175-.175,4.805.288,6.791,1.141.548,3.413-.206,6.471-.2,1.493,0,2.456-.14,3.64-.2.968-.052,3.237.433,3.237-.606s-4.056-1.014-5.056-1.012c-2.09.005-4.18,0-6.27,0-.35-1.5-.283-3.158-.972-5.9-.479-1.91-.812-3.732-1.252-5.624h-.809v.607Z" transform="translate(-26.968 -50.185)" fill="#d94a4a" fill-rule="evenodd"/>
    <path d="M145.264,133.274c0,1.388,1.213.644,4.29,1.373,2.526.6,6.1,2.085,7.594,4.135,1.445,1.984.381,3.392,1.059,4.806.983-.262,1.012-1.064,1.012-2.831a7.648,7.648,0,0,0-4.108-6.207c-1.463-.666-9.847-3.5-9.847-1.276Z" transform="translate(-26.968 -50.185)" fill="#d94a4a" fill-rule="evenodd"/>
    <path d="M139.6,166.037c1.4,0,3.323-2.82,4.572-2.551.526.113,1.591,1.289,1.949,1.692.768.865.7,1.305,1.771,1.87l.854-.764c-.376-1.432-3.9-4.292-4.292-4.292-.552,0-.5.294-.874.542-.568.377-.283.178-1.013.4a13.286,13.286,0,0,0-2.158.876c-.574-1.2-.83-2.5-1.528-3.73-.38-.672-.629-.979-1.014-1.616-.507-.841-.515-1-1.3-1.53-.323.482-.405.345-.162.946.714,1.76,1.281,1.2,2.1,6.017.157.921.157,2.138,1.1,2.138Z" transform="translate(-26.968 -50.185)" fill="#d94a4a" fill-rule="evenodd"/>
    <path d="M171.353,207.7c2.681,0,1.016-4.1.158-5.012-3.064-3.268-4.651-2.01-3.09-.765,3.783,3.016.967,5.777,2.932,5.777Z" transform="translate(-26.968 -50.185)" fill="#d94a4a" fill-rule="evenodd"/>
    <path d="M152.865,103.63a73.093,73.093,0,1,1-51.684,21.408,72.863,72.863,0,0,1,51.684-21.408Zm49.657,23.435a70.226,70.226,0,1,0,20.569,49.657,70,70,0,0,0-20.569-49.657Z" transform="translate(-26.968 -50.185)" fill="#d94a4a" stroke="#d94a4a" stroke-miterlimit="22.926" stroke-width="0.077"/>
    <path d="M152.444,108.925a67.8,67.8,0,1,1-47.94,19.857,67.582,67.582,0,0,1,47.94-19.857Zm47.129,20.668a66.653,66.653,0,1,0,19.521,47.129,66.443,66.443,0,0,0-19.521-47.129Z" transform="translate(-26.968 -50.185)" fill="#ec1c24"/>
    <path d="M47.906,158.683l-20.938-4.832.987-4.276,17.37,4.009L47.768,143l3.568.824-3.43,14.862ZM36.072,134.446l-3.576-1.41,1.521-3.857,3.576,1.41-1.521,3.857Zm16.584,6.539-14.613-5.762,1.521-3.857,14.613,5.762-1.521,3.857Zm-5.2-15.539-2.3,3.037a5.941,5.941,0,0,1-2.033-3.5,7.941,7.941,0,0,1,1.119-4.607,9.964,9.964,0,0,1,2.471-3.387,4.131,4.131,0,0,1,2.358-.941,8.6,8.6,0,0,1,3.562,1.2l4.282,2.261a17.034,17.034,0,0,0,2.806,1.216,8.755,8.755,0,0,0,2.21.3l-1.876,3.664c-.291-.03-.712-.093-1.259-.2-.25-.054-.417-.082-.5-.09a7.417,7.417,0,0,1,.357,2.733,6.432,6.432,0,0,1-.708,2.533,5.322,5.322,0,0,1-2.908,2.79,4.37,4.37,0,0,1-3.593-.276,4.477,4.477,0,0,1-1.821-1.647,4.148,4.148,0,0,1-.607-2.311,14.038,14.038,0,0,1,.642-3.378,22.7,22.7,0,0,0,.931-4.051l-.373-.191a2.209,2.209,0,0,0-1.809-.264,3.557,3.557,0,0,0-1.479,1.759,2.919,2.919,0,0,0-.394,1.742,3.051,3.051,0,0,0,.923,1.606Zm5.529-3.425q-.126.828-.586,2.539a7.76,7.76,0,0,0-.388,2.341,1.74,1.74,0,0,0,.931,1.389,2.031,2.031,0,0,0,1.639.109,2.268,2.268,0,0,0,1.32-1.183,3.63,3.63,0,0,0,.322-2.244,2.617,2.617,0,0,0-.775-1.508,8.321,8.321,0,0,0-1.727-1.066l-.736-.377ZM51.079,108.77l2.356-3,1.686,1.324a6.17,6.17,0,0,1,1.072-5.373,5.247,5.247,0,0,1,2.1-1.671,4.72,4.72,0,0,1,2.6-.269,7.3,7.3,0,0,1-.095-2.916,5.483,5.483,0,0,1,1.093-2.394,5.678,5.678,0,0,1,2.359-1.867,4.3,4.3,0,0,1,2.725-.13,8.9,8.9,0,0,1,2.819,1.67l7.885,6.2L75.117,103.6l-7.048-5.539a6.6,6.6,0,0,0-2.632-1.523,1.975,1.975,0,0,0-1.8.847,2.86,2.86,0,0,0-.6,1.62,2.994,2.994,0,0,0,.54,1.836,11.243,11.243,0,0,0,2.341,2.27l5.921,4.653-2.562,3.26-6.758-5.311a12.025,12.025,0,0,0-2.457-1.649,1.871,1.871,0,0,0-1.2-.074,2.156,2.156,0,0,0-1.033.792,3.019,3.019,0,0,0-.662,1.674,2.834,2.834,0,0,0,.495,1.787A11.076,11.076,0,0,0,60,110.506l5.993,4.709-2.562,3.26-12.35-9.7ZM70.237,84.348,68.9,79.66l3.5-3.032-.2,6.015-1.967,1.7Zm15.085,4.136L88.5,85.7a3,3,0,0,0,1.894.954,3.635,3.635,0,0,0,2.253-.7,4.136,4.136,0,0,0,1.724-1.806,1.336,1.336,0,0,0-.143-1.233,1.1,1.1,0,0,0-.673-.5,3.287,3.287,0,0,0-1.464.286q-4.837,1.779-6.462,1.734a4.06,4.06,0,0,1-3.483-1.974,4.37,4.37,0,0,1-.5-3.767A7.505,7.505,0,0,1,85.1,74.823a8.71,8.71,0,0,1,4.6-1.7,5.4,5.4,0,0,1,3.5,1.463l-2.895,2.719a2.442,2.442,0,0,0-1.572-.676,3.489,3.489,0,0,0-1.958.674,4.559,4.559,0,0,0-1.744,1.663.981.981,0,0,0,.056.965.912.912,0,0,0,.756.414,15.7,15.7,0,0,0,3.91-1.117,11.565,11.565,0,0,1,4.91-.948,3.829,3.829,0,0,1,2.769,1.9,4.738,4.738,0,0,1,.483,4.1,7.992,7.992,0,0,1-3.658,4.191,8.828,8.828,0,0,1-4.98,1.652,5.953,5.953,0,0,1-3.957-1.639Zm41.11-17.97a14.121,14.121,0,0,0,3.9.619l-.525,3.468a9.886,9.886,0,0,1-2.092-.154c-.151-.024-1.274-.32-3.371-.9a11.641,11.641,0,0,1-4.169,2.395,10.354,10.354,0,0,1-8.359-.281q-3.627-1.888-5.335-6.938t.038-8.747a10.169,10.169,0,0,1,6.344-5.267,10.06,10.06,0,0,1,8.186.351q3.619,1.89,5.326,6.926a14.249,14.249,0,0,1,.839,4.934,10.235,10.235,0,0,1-.782,3.593Zm-4.114-1.206a6.657,6.657,0,0,0,.425-2.679,11.407,11.407,0,0,0-.638-3.192q-1.206-3.562-3.368-4.793a5.975,5.975,0,0,0-8.206,2.787q-.978,2.3.224,5.857,1.221,3.6,3.4,4.861a5.368,5.368,0,0,0,4.592.443,5.134,5.134,0,0,0,1.6-.87,12.54,12.54,0,0,0-2.99-.416l.346-2.8a14.824,14.824,0,0,1,4.617.8Zm21.332,1.416-.3-2.332a6.28,6.28,0,0,1-1.989,2.272,6.215,6.215,0,0,1-2.834,1.107,5.762,5.762,0,0,1-2.91-.332,4.1,4.1,0,0,1-2.053-1.712,8.686,8.686,0,0,1-1-3.386l-1.256-9.883,4.114-.522.911,7.175a19.754,19.754,0,0,0,.743,4,2.174,2.174,0,0,0,.98,1.07,2.559,2.559,0,0,0,1.587.241,3.291,3.291,0,0,0,1.822-.821,2.944,2.944,0,0,0,.963-1.587,16.889,16.889,0,0,0-.225-4.253l-.837-6.585,4.113-.522,1.98,15.582-3.813.484Zm11.463-11.15-3.734-.76a5.94,5.94,0,0,1,2.274-3.349,7.939,7.939,0,0,1,4.637-.987,9.937,9.937,0,0,1,4.123.76,4.123,4.123,0,0,1,1.869,1.717,8.574,8.574,0,0,1,.461,3.731l-.183,4.839a17.018,17.018,0,0,0,.12,3.056,8.741,8.741,0,0,0,.688,2.121l-4.115-.1c-.1-.275-.225-.682-.368-1.22a4.722,4.722,0,0,0-.134-.488,7.422,7.422,0,0,1-2.309,1.506,6.443,6.443,0,0,1-2.59.459,5.319,5.319,0,0,1-3.773-1.412,4.367,4.367,0,0,1-1.308-3.359,4.475,4.475,0,0,1,.7-2.354,4.146,4.146,0,0,1,1.821-1.548,13.97,13.97,0,0,1,3.322-.885,22.828,22.828,0,0,0,4.055-.916l.01-.419a2.2,2.2,0,0,0-.546-1.744,3.549,3.549,0,0,0-2.226-.571,2.917,2.917,0,0,0-1.741.4,3.036,3.036,0,0,0-1.048,1.527Zm5.482,3.5a26.022,26.022,0,0,1-2.542.572,7.8,7.8,0,0,0-2.277.664,1.741,1.741,0,0,0-.849,1.442,2.031,2.031,0,0,0,.612,1.524,2.271,2.271,0,0,0,1.638.677,3.623,3.623,0,0,0,2.162-.682,2.617,2.617,0,0,0,1.023-1.352,8.347,8.347,0,0,0,.213-2.018l.02-.827Zm7.938,8.444,3.81-21.332,4.081.729-3.809,21.332-4.082-.729Zm12.261-15.766.864-3.745,4.04.933-.864,3.745-4.04-.933Zm-4.009,17.37,3.532-15.3,4.04.932-3.532,15.305-4.04-.932ZM196.73,62.727l-1.057,3.125-2.695-.912-2.039,6.025a15.711,15.711,0,0,0-.646,2.162.928.928,0,0,0,.184.621,1.174,1.174,0,0,0,.6.421,5.346,5.346,0,0,0,1.714.159l-.7,3.17a8.222,8.222,0,0,1-3.3-.462,5.16,5.16,0,0,1-1.79-1,2.929,2.929,0,0,1-.934-1.349,3.921,3.921,0,0,1-.032-1.731,20.849,20.849,0,0,1,.819-2.827l2.2-6.513L187.244,63l1.057-3.125,1.807.611,1-2.952,4.713-.994-1.785,5.275,2.695.912Zm3.115.947,3.933,2.015-1.726,11.635,8.353-8.241,3.825,1.959-11.821,10.93-2.133,1.974a11.322,11.322,0,0,1-1.888,1.385,4.518,4.518,0,0,1-1.548.522,4.909,4.909,0,0,1-1.734-.1,8.3,8.3,0,0,1-2.01-.746,11.141,11.141,0,0,1-1.981-1.3l1.153-3.048a9.418,9.418,0,0,0,1.484.976,2.607,2.607,0,0,0,2.3.22A5.958,5.958,0,0,0,198,80.409l1.849-16.735Zm16.513,27.4L230.546,74.7l4.967,4.3-6.74,13.714,12.578-8.658,4.979,4.313-14.188,16.38-3.065-2.656,11.158-12.9-14.4,10.1-3.188-2.761L230.6,80.847,219.423,93.731l-3.065-2.655Zm27.681,21.845,1.836,3.783a6.814,6.814,0,0,1-4.287-.04,7.422,7.422,0,0,1-3.466-2.821q-2.373-3.336-1.328-6.489a9.025,9.025,0,0,1,3.518-4.409,8.7,8.7,0,0,1,6.168-1.885,6.7,6.7,0,0,1,4.792,2.918,6.968,6.968,0,0,1,1.314,5.843q-.716,2.988-4.664,5.687l-6.016-8.46a4.209,4.209,0,0,0-1.762,2.485,3.12,3.12,0,0,0,.541,2.536,2.524,2.524,0,0,0,1.379,1.025,3.268,3.268,0,0,0,1.975-.173Zm3.569-2.24a4.026,4.026,0,0,0,1.7-2.35,2.839,2.839,0,0,0-.48-2.3,2.873,2.873,0,0,0-2.108-1.249,3.855,3.855,0,0,0-2.7.857l3.587,5.044Zm7.87,9.31-1.118-3.643a5.934,5.934,0,0,1,4.028.4,7.942,7.942,0,0,1,3.085,3.6,9.977,9.977,0,0,1,1.305,3.985,4.126,4.126,0,0,1-.615,2.462,8.58,8.58,0,0,1-3.056,2.189l-4.337,2.153a17.067,17.067,0,0,0-2.627,1.567,8.763,8.763,0,0,0-1.534,1.619l-1.876-3.664c.194-.218.491-.524.895-.906.191-.172.311-.29.365-.351a7.432,7.432,0,0,1-2.427-1.308,6.455,6.455,0,0,1-1.642-2.055,5.324,5.324,0,0,1-.564-3.99,4.366,4.366,0,0,1,2.324-2.754,4.466,4.466,0,0,1,2.4-.515,4.138,4.138,0,0,1,2.23.858,13.982,13.982,0,0,1,2.366,2.5,22.766,22.766,0,0,0,2.744,3.122l.373-.191a2.208,2.208,0,0,0,1.271-1.313,3.555,3.555,0,0,0-.563-2.228,2.923,2.923,0,0,0-1.184-1.338,3.045,3.045,0,0,0-1.843-.19Zm-.451,6.488q-.6-.587-1.718-1.959a7.82,7.82,0,0,0-1.672-1.683,1.743,1.743,0,0,0-1.672-.056,2.033,2.033,0,0,0-1.046,1.267,2.268,2.268,0,0,0,.189,1.762,3.625,3.625,0,0,0,1.632,1.573,2.621,2.621,0,0,0,1.677.252,8.351,8.351,0,0,0,1.873-.779l.737-.377ZM268.9,138.287l-3.069,1.21-1.044-2.646-5.917,2.333a15.9,15.9,0,0,0-2.068.9.923.923,0,0,0-.356.542,1.178,1.178,0,0,0,.065.728,5.327,5.327,0,0,0,.985,1.411l-2.876,1.508a8.221,8.221,0,0,1-1.778-2.817,5.163,5.163,0,0,1-.388-2.016,2.93,2.93,0,0,1,.428-1.584,3.892,3.892,0,0,1,1.3-1.142,20.988,20.988,0,0,1,2.687-1.2l6.4-2.521-.7-1.774,3.069-1.21.7,1.773,2.9-1.143,3.8,2.958-5.181,2.043,1.044,2.646Zm-9.829,6.132,1.559,3.927a3,3,0,0,0-1.537,1.462,3.645,3.645,0,0,0-.1,2.357,4.134,4.134,0,0,0,1.121,2.232,1.337,1.337,0,0,0,1.209.28,1.1,1.1,0,0,0,.695-.466,3.3,3.3,0,0,0,.223-1.475q-.046-5.153.542-6.669a4.061,4.061,0,0,1,3.031-2.615,4.369,4.369,0,0,1,3.715.8,7.512,7.512,0,0,1,2.48,4.552,8.715,8.715,0,0,1,.05,4.907,5.4,5.4,0,0,1-2.557,2.8l-1.586-3.641a2.439,2.439,0,0,0,1.166-1.252,3.491,3.491,0,0,0,.024-2.071,4.557,4.557,0,0,0-.979-2.2.983.983,0,0,0-.928-.273.916.916,0,0,0-.644.574,15.7,15.7,0,0,0-.264,4.057,11.581,11.581,0,0,1-.759,4.943,3.829,3.829,0,0,1-2.72,1.968,4.737,4.737,0,0,1-4.023-.924,7.992,7.992,0,0,1-2.715-4.856,8.818,8.818,0,0,1,.12-5.246,5.951,5.951,0,0,1,2.875-3.174Z" transform="translate(-26.968 -50.185)" fill="#d94a4a"/>
  </g>
</svg>
