<svg xmlns="http://www.w3.org/2000/svg" width="500" height="500" viewBox="0 0 500 500">
  <path d="M158.293,462.185s15.315,1.179,14.53,10.6,6.676-4.319,8.247-10.21,9.425,0,9.425,0,3.141-5.891,3.534-7.069,32.2,15.316,33.773,15.709,12.959-23.563,12.959-23.563,44.376,13.352,46.34,12.96,1.178-7.069,1.178-7.069l22.384,1.178-2.356-9.425,19.635,14.137,22.777-1.57,11.389,7.461L384.1,455.9l2.357,3.142,6.283-7.069,11-1.178,3.142-16.494-18.065,2.749-2.356-9.425s-12.567-.393-11.781-1.571,16.493-1.178,16.493-1.178l4.713-9.032s-6.676-1.964-7.069-2.356,11.388,0,11.388,0l5.5-3.535-4.319-5.89,7.854,1.963s23.169-21.991,17.279-36.914-27.49-22.777-37.307-21.992-7.985,9.034-7.985,9.034-6.545-.785-8.639-6.283,1.57-4.974,8.639-7.592-.787-19.112-4.189-25.4.264-4.189,3.666-5.76-3.929-12.306-7.593-18.85,1.767-7.2,4.712-9.95-5.5-8.246-9.621-11.584-5.694-18.261-19.636-18.85-7.854-45.162-5.89-52.034-7.265-.785-11.978-19.373S317.6,168.7,313.15,168.18s-17.279,4.974-19.373-.263,7.854-4.189,11.519-3.664,2.356-1.571,4.189-4.451,13.09,9.425,12.567-.523-6.546-9.425-6.546-9.425l2.879-3.4s29.584-26.7,29.846-37.962,9.163-6.546,9.163-14.4-29.323-12.829-34.035-12.043-10.734-6.546-14.138-4.19S299.8,84.139,297.7,82.83s-13.089,2.094-12.829-1.571,5.236-8.115,7.592-6.021a4.623,4.623,0,0,0,4.975.786s4.712-4.19,5.236-5.5-3.665-1.571-5.761-1.571-2.618-1.308-1.833-2.094S325.713,45.917,326.5,44.607s5.758-7.854,6.021-11.781-36.915-5.5-37.438-3.4-3.927,5.5-3.927,5.5a40.489,40.489,0,0,0-1.571-7.331c-1.047-2.881-10.21-12.829-11.781-6.546s-2.619,10.211-4.189,10.211-11,3.664,2.618,9.425-1.833,5.76-6.806,1.57-5.76-5.235-4.713.523l.263,6.021-5.761-3.927s-3.73,3.8.59,7.331,4.712,2.946,2.159,4.713-3.534.393-6.676-2.945-4.123,2.945-2.356,6.676-1.767,2.16-3.142,0-3.534-6.676-5.1-3.731,1.964,12.959,5.1,16.886,1.375,16.494.982,17.083-9.817-1.767-8.836,1.375,10.407,5.3,7.265,8.05-7.068,3.338-10.014.2S228,102.857,232.9,108.551s1.767,5.891-2.16,4.123-9.621-3.534-9.228.393a33.587,33.587,0,0,0,.589,4.516s-6.676-.785-5.3,2.356,7.069,1.179,8.247,3.731-2.16,7.658-5.694,7.854-10.8-.981-6.676,3.535,17.868,1.767,21.206-3.142,4.516-6.48,5.5-7.265,4.909-3.731,4.909-3.731l5.942-3.35.785,3.141-8.639,5.891-2.749,5.891-5.694,5.5c.392,3.927-.786,12.567-.786,12.567l-8.443,5.105s5.3.589,7.069-.589-5.694,6.284-5.694,6.284l3.534,3.534s-6.676,3.534-7.462,9.818a20.782,20.782,0,0,1-6.676,12.173c-1.178.786-1.963,4.713,1.571,4.909s7.854-2.356,7.854-2.356l2.357-6.872,1.374-4.124,2.16-7.265,5.105-3.338.589-6.283-1.571-5.1L252,146.238s-.589,9.033,1.178,13.156,8.64,5.3,8.64,5.3l-10.6-1.375s-3.731,10.8-3.731,11.781,5.5,11.389,5.5,11.389l-8.64,8.836L236.1,207.108l-.786,6.872s-4.909.786-5.5.982,9.032,7.658,9.032,7.658l2.553-3.338,8.836,12.959,3.142-4.123s-.589-8.247-.589-8.64,8.639,10.8,8.639,10.8l5.891-1.179s7.069-6.676,9.817-3.534,6.087-3.33,6.087-3.33L288.328,224l5.694.2-1.178,2.748s-9.425-1.57-10.407,1.964-10.407,14.923-10.407,14.923a29.457,29.457,0,0,1,4.713,9.032,10.666,10.666,0,0,1-.982,9.229l2.16,1.963,3.927-1.963-.393,7.265v.982l4.516,1.374,6.087-7.069,1.375,3.927-4.516,5.891,1.767,2.749-.982,2.749-7.658-1.178-1.571,5.694,5.5,4.124-.2,2.748-7.854,5.695,1.178,6.676,10.21,7.265-3.534,3.927-7.265-9.582-3.142,2.945,2.946,4.516-3.338,3.731-2.553-7.069s-6.087-2.945-7.854-.392-4.909,3.338-6.676,1.178-3.927-5.106-3.927-5.106a37.3,37.3,0,0,0-3.535,3.928c-.2.589-6.872.392-6.872.392l2.356-5.1-9.425-10.014-5.89,5.5,5.694,11.388-7.462,9.033s-7.657,4.909-7.657,4.123,3.141,7.265,3.141,7.265l10.8-7.854,6.283,8.051.2,14.922-18.064,15.709-8.64-.982L209,368.754,193.1,366.2l-1.374,14.334,3.927,2.16,3.73,6.48,8.64.589,4.712-5.3,8.836.2,1.375,13.155,6.48-.589,3.338-3.141,4.516,1.374,3.338,10.6,7.854,6.676,6.479-.989,7.266-7.658,5.1,1.178,3.73,1.963-8.246,6.677-2.946,6.676s.393.981-.2.981-10.21,2.16-10.21,2.16L236.1,415.282s-13.352.785-13.745.2-6.087,10.014-6.087,10.014h-4.713l-2.749-5.105-5.1,4.909,2.356,7.854-12.173,9.032A21.191,21.191,0,0,0,190.151,441c-.786,0-3.535,6.087-3.535,6.087s-6.479,3.338-6.283,2.946-2.16,5.694-2.16,5.694l-14.334.173-5.89.785.393,5.5Z" fill="none" stroke="#d94a4a" stroke-miterlimit="10" stroke-width="3"/>
  <path d="M135.516,218.126l16.494,21.01,9.228-.2,1.767-9.621,8.444-1.767,1.178,10.406,6.479,4.909-2.749,5.5,7.462,2.16,2.16-3.731,7.068,5.106,4.713-.59,4.32-8.05,12.566-.982,1.178-17.475-8.443,1.374-4.123-1.571,9.228-8.1-.589-4.32-5.3-2.552-1.178-6.284,1.178-8.05-10.014-6.087h-6.676l-2.749,2.552-7.069-2.356-3.731,7.069-5.3-.982s-3.338-2.16-3.927-2.16-7.854,13.745-7.854,13.745l-9.818-.786,3.338,6.677-17.279,5.12Z" fill="none" stroke="#d94a4a" stroke-miterlimit="10" stroke-width="3"/>
  <rect x="72" y="277" width="250" height="43" rx="5" fill="#d94a4a" stroke="#303030" stroke-miterlimit="10" stroke-width="3"/>
  <g>
    <path d="M90.307,304.067h-5.9l.248-.746v-10.3l-.248-.76h2.438l-.233.76v8.855l.233.218h3.014l.808-.218Z" fill="#f7f1e8"/>
    <path d="M93.924,304.067H91.486l.248-.746v-10.3l-.248-.76h2.438l-.248.76v10.3Z" fill="#f7f1e8"/>
    <path d="M102.529,304.067h-2.47l.171-.465-.435-1.8-.233-.233H97.621l-.233.233-.435,1.8.171.465H94.653l.389-.792,2.423-10.33-.217-.683h2.687l-.218.683,2.424,10.33Zm-4.5-4.489h1.15l.186-.171-.761-3.774-.761,3.774Z" fill="#f7f1e8"/>
    <path d="M108.414,300.681h-1.243l-1.724-4.148v6.788l.248.746h-2.438l.248-.746v-10.3l-.248-.76h2.19l2.345,5.343,2.346-5.343h2.19l-.248.76v10.3l.248.746H109.89l.248-.746v-6.788Z" fill="#f7f1e8"/>
    <path d="M115.556,291.578l.683.684v2.516l-.823.839-1.227.684v-.746l.808-.808v-.279l-.156-.156h-.652l-.684-.683v-1.367l.684-.684Z" fill="#f7f1e8"/>
    <path d="M123.756,295.99h-2.469l.233-.746v-.776l-.233-.218H119.78l-.233.218v2.485l.233.233h2.734l.978.978v4.925l-.978.978h-3.931l-1.024-.978V301.1l-.218-.747H119.8l-.248.747v.776l.233.218h1.507l.233-.218v-2.485l-.233-.234h-2.7l-1.024-.994v-4.939l1.024-.963h3.931l.978.963v2.019Z" fill="#f7f1e8"/>
    <path d="M134.673,293.225v9.864l-.994.978h-.746l-.233.233v1.01l.249.746h-2.455l.249-.746V304.3l-.233-.233h-.746l-1.01-.978v-9.864l1.01-.963h3.915Zm-2.191,1.025H130.96l-.217.218v7.409l.217.218h1.522l.218-.218v-7.409Z" fill="#f7f1e8"/>
    <path d="M142.158,293.022v10.067l-.994.978h-3.946l-.963-.978V293.022l-.248-.76h2.438l-.248.76v8.855l.233.218h1.522l.233-.218v-8.855l-.248-.76h2.469Z" fill="#f7f1e8"/>
    <path d="M150.979,304.067h-2.47l.171-.465-.435-1.8-.233-.233H146.07l-.233.233-.435,1.8.171.465H143.1l.388-.792,2.423-10.33-.218-.683h2.688l-.218.683,2.423,10.33Zm-4.505-4.489h1.15l.186-.171-.761-3.774-.761,3.774Z" fill="#f7f1e8"/>
    <path d="M157.609,304.067h-5.9l.248-.746v-10.3l-.248-.76h2.438l-.233.76v8.855l.233.218h3.014l.807-.218Z" fill="#f7f1e8"/>
    <path d="M161.226,304.067h-2.438l.248-.746v-10.3l-.248-.76h2.438l-.248.76v10.3Z" fill="#f7f1e8"/>
    <path d="M169.069,294.468l-.839-.218h-1.475l-.218.218v8.853l.249.746h-2.47l.248-.746v-8.853l-.232-.218h-1.507l-.808.218.357-2.206H168.7Z" fill="#f7f1e8"/>
    <path d="M174.3,303.321l.217.746h-2.408l.249-.746v-3.37l-2.407-6.819-.575-.87h2.9l-.279.466,1.32,4.334,1.321-4.334-.28-.466h2.905l-.575.87-2.392,6.819Z" fill="#f7f1e8"/>
    <path d="M186.88,300.681h-1.243l-1.724-4.148v6.788l.249.746h-2.439l.249-.746v-10.3l-.249-.76h2.19l2.346,5.343,2.345-5.343h2.19l-.248.76v10.3l.248.746h-2.438l.248-.746v-6.788Z" fill="#f7f1e8"/>
    <path d="M192,304.067l.249-.761v-10.3l-.249-.746h5.9l.357,2.175-.807-.234h-3.03l-.233.234v2.438l.233.233h.994l.762-.249v2.47l-.762-.248h-.994l-.233.218v2.547l.233.233h3.03l.807-.233-.357,2.221Z" fill="#f7f1e8"/>
    <path d="M206.478,304.067h-2.47l.171-.465-.435-1.8-.233-.233H201.57l-.233.233-.435,1.8.171.465H198.6l.388-.792,2.424-10.33-.218-.683h2.687l-.217.683,2.423,10.33Zm-4.5-4.489h1.149l.187-.171-.762-3.774-.761,3.774Z" fill="#f7f1e8"/>
    <path d="M212.581,294.468l-.839-.218h-1.475l-.218.218v8.853l.248.746h-2.469l.248-.746v-8.853l-.233-.218h-1.507l-.807.218.357-2.206h6.322Z" fill="#f7f1e8"/>
    <path d="M219.724,295.99h-2.47l.233-.746v-.776l-.233-.218h-1.506l-.233.218v2.485l.233.233h2.733l.979.978v4.925l-.979.978h-3.93l-1.025-.978V301.1l-.217-.747h2.454l-.248.747v.776l.233.218h1.506l.233-.218v-2.485l-.233-.234h-2.7l-1.025-.994v-4.939l1.025-.963h3.93l.979.963v2.019Z" fill="#f7f1e8"/>
    <path d="M222.891,301.333l.683.684v2.532l-.823.823-1.227.684v-.731l.808-.823v-.264l-.156-.171h-.652l-.684-.683v-1.367l.684-.684Z" fill="#f7f1e8"/>
    <path d="M228.465,304.067l.249-.746v-10.3l-.249-.76h5.157l.994.963V298.6l-.994.994.855,3.681.31.792h-2.438l.171-.73-.839-3.557-.156-.186h-.637l-.233.232v3.5l.249.746Zm3.946-6.43.233-.218v-2.951l-.233-.218h-1.523l-.233.218v2.951l.233.218Z" fill="#f7f1e8"/>
    <path d="M241.977,293.225v9.864l-.978.978h-3.931l-.994-.978v-9.864l.994-.963H241Zm-2.221,1.025h-1.491l-.233.218v7.409l.233.218h1.491l.233-.218v-7.409Z" fill="#f7f1e8"/>
    <path d="M243.435,303.089v-9.864l.994-.963h3.93l.979.963v1.988l.248.746h-2.469l.264-.746v-.776l-.218-.234h-1.538l-.232.234v7.409l.232.233h1.538l.218-.233v-.761l-.264-.746h2.469l-.248.746v2l-.979.978h-3.93Z" fill="#f7f1e8"/>
    <path d="M250.734,292.262h2.438l-.248.76v3.869l.232.233h1.508l.232-.233v-3.869l-.232-.76h2.469l-.248.76v10.3l.248.746h-2.469l.232-.746v-3.992l-.232-.232h-1.508l-.232.232v3.992l.248.746h-2.438l.248-.746v-10.3Z" fill="#f7f1e8"/>
    <path d="M258.343,292.262H263.5l.994.963v9.864l-.994.978h-5.157l.218-.761v-10.3Zm2.19,9.584.233.233h1.506l.234-.233v-7.409l-.234-.234h-1.506l-.233.234Z" fill="#f7f1e8"/>
    <path d="M273.221,304.067h-2.469l.17-.465-.435-1.8-.233-.233h-1.942l-.232.233-.435,1.8.171.465h-2.47l.388-.792,2.424-10.33-.219-.683h2.688l-.217.683,2.423,10.33Zm-4.5-4.489h1.149l.187-.171-.762-3.774-.761,3.774Z" fill="#f7f1e8"/>
    <path d="M279.852,304.067h-5.9l.248-.746v-10.3l-.248-.76h2.439l-.234.76v8.855l.234.218H279.4l.808-.218Z" fill="#f7f1e8"/>
    <path d="M281.03,304.067l.249-.761v-10.3l-.249-.746h5.9l.357,2.175-.808-.234h-3.029l-.232.234v2.438l.232.233h.994l.762-.249v2.47l-.762-.248h-.994l-.232.218v2.547l.232.233h3.029l.808-.233-.357,2.221Z" fill="#f7f1e8"/>
  </g>
  <path d="M344.618,274.855,334.243,264.48a.959.959,0,0,0-1.357,0l-.044.044a3.364,3.364,0,0,0-.566,4.01l-10.857,9.318a4.53,4.53,0,0,0-6.218.178l-.065.065a.959.959,0,0,0,0,1.357l6.216,6.216-6.054,6.053c-.121.125-2.987,3.078-4.871,5.428-1.794,2.237-2.149,2.647-2.167,2.668a.96.96,0,0,0,1.355,1.354c.016-.013.416-.362,2.668-2.167,2.349-1.884,5.3-4.749,5.436-4.88l6.044-6.044,5.883,5.883a.96.96,0,0,0,1.357,0l.065-.065a4.53,4.53,0,0,0,.179-6.219l9.317-10.856a3.364,3.364,0,0,0,4.01-.566l.044-.044A.96.96,0,0,0,344.618,274.855Z" fill="#303030"/>
</svg>
