<svg xmlns="http://www.w3.org/2000/svg" width="300" height="300" viewBox="0 0 300 300">
  <g>
    <circle cx="150.88" cy="144.982" r="83.207" fill="#f7f1e8"/>
    <g>
      <path d="M150,44.1A105.9,105.9,0,1,0,255.9,150,105.9,105.9,0,0,0,150,44.1Zm1.261,170.2a64.3,64.3,0,1,1,64.3-64.3A64.3,64.3,0,0,1,151.261,214.3Z" fill="#d94a4a" stroke="#f7f1e8" stroke-miterlimit="10" stroke-width="2.521"/>
      <g>
        <polygon points="74.879 134.962 74.098 140.404 73.645 140.769 57.657 138.472 56.343 137.853 55.711 142.257 57.149 142.005 75.746 144.677 77.027 145.319 78.558 134.661 74.696 133.447 74.879 134.962" fill="#f7f1e8"/>
        <polygon points="60.483 124.777 59.257 123.982 58.115 128.281 59.573 128.199 77.726 133.021 78.924 133.808 80.066 129.51 78.636 129.599 60.483 124.777" fill="#f7f1e8"/>
        <path d="M76.887,92.2l-.9-1.147-2.215,3.326,5.743,8.965-10.486-1.841-2.214,3.325,1.407.392,15.638,10.413.439.563-.715.049-19.122-3.03-1-.839L61.6,116.918l1.3.1,15.779,11.216,1.07,1.2,1.7-4.172-.9-.033-2.743-1.977-.233-.555,1.338-3.28.555-.232,3.344.507.669.61,1.7-4.172-.031,0,2.048-3.076-1.383-.377-10.307-6.863,8.04,1.575,1.257-1.887L80.254,98.7l10.308,6.863.88,1.131,2.467-3.7-1.384-.376ZM74.5,120.652l-.417.2-5.851-3.889,6.9,1.317.16.433Z" fill="#f7f1e8"/>
        <polygon points="80.527 89.993 82.289 89.912 83.091 89.033 83.491 89.015 83.868 89.359 83.963 91.441 84.968 92.358 85.556 89.863 85.439 87.722 82.047 84.627 80.286 84.707 78.604 86.55 78.685 88.311 80.527 89.993" fill="#f7f1e8"/>
        <polygon points="100.047 97.033 105.493 92.368 105.687 89.851 99.843 83.028 97.325 82.834 93.537 86.078 92.938 86.032 89.988 82.589 90.052 82.011 92.14 80.222 92.721 80.247 93.643 81.323 94.205 82.633 97.627 79.701 96.376 78.982 93.979 76.184 91.48 76.011 86.035 80.675 85.758 83.227 91.62 90.071 94.221 90.232 97.966 87.024 98.565 87.07 101.515 90.513 101.451 91.091 99.363 92.88 98.782 92.855 97.86 91.779 97.32 90.451 93.919 93.364 95.105 94.139 97.465 96.894 100.047 97.033" fill="#f7f1e8"/>
        <path d="M114.337,86.465l1.214-.613.572.188.83,1.644.209,1.419,4-2.019-1.017-1.01-.831-1.644.188-.571,1.214-.614.814-2.411-8.113-16.063L111,64.02l-6.375,3.22-.852,2.4L111.888,85.7Zm-6.126-16.971,2.478-1.252.534.175,6.094,12.067-.175.533-2.479,1.252-.534-.176-6.094-12.066Z" fill="#f7f1e8"/>
        <polygon points="122.889 80.285 125.099 81.462 131.964 79.304 133.159 77.058 127.657 59.545 127.673 58.085 123.376 59.435 124.224 60.623 129.065 76.029 128.778 76.534 126.129 77.366 125.605 77.115 120.765 61.71 120.781 60.25 116.538 61.583 117.387 62.772 122.889 80.285" fill="#f7f1e8"/>
        <path d="M158.192,77.19l.764-3.975-1.483.355-5.5-.157L151.565,73l.46-16.144.463-1.376-4.446-.126.413,1.4-.534,18.779-.321.878-.7-1.041L140,57.287,140.225,56l-4.859.657.56,1.182-1.859,19.271-.509,1.527,4.466-.6-.423-.8.347-3.365.364-.478,3.511-.474.479.365,1.226,3.151-.195.885,4.143-.56-.047.129Zm-17.557-7.776-2.078.28-.379-.264.455-7.011,2.3,6.64Z" fill="#f7f1e8"/>
        <polygon points="165.938 58.081 166.587 56.772 162.183 56.133 162.433 57.573 159.735 76.169 159.091 77.45 163.495 78.089 163.241 76.678 165.938 58.081" fill="#f7f1e8"/>
        <polygon points="167.762 78.971 172.113 80.149 172.032 78.717 176.255 63.122 176.742 62.843 179.34 63.546 180.714 64.329 181.11 60.266 169.974 57.25 168.293 60.965 169.82 60.968 172.473 61.686 172.78 62.181 168.556 77.776 167.762 78.971" fill="#f7f1e8"/>
        <polygon points="180.514 81.809 179.532 82.853 183.516 84.699 183.728 83.298 186.312 77.719 195.502 68.267 197.119 67.268 192.311 65.04 192.417 66.026 186.908 72.187 188.047 64.001 188.867 63.444 184.059 61.217 184.343 63.097 183.099 76.23 180.514 81.809" fill="#f7f1e8"/>
        <polygon points="192.506 89.501 195.87 92.412 196.417 91.086 204.517 81.724 201.946 89.502 203.661 90.985 210.987 87.322 202.887 96.684 201.656 97.416 205.018 100.326 205.565 99.002 217.854 84.797 219.106 84.044 216.084 81.43 206.474 86.001 209.615 75.832 206.593 73.219 206.028 74.565 193.739 88.77 192.506 89.501" fill="#f7f1e8"/>
        <path d="M233.794,106.9l1.283-.259L232.7,102.35l-.9.953-18.629,5.283-.562.029,2.663-1.495-1.25-.889-3.434-4.327.069-.6,3.64-2.889.575.087L216,99.925l.507,1.369,3.528-2.8-1.217-.806-1.128-1.42.07-.6,3.483-2.765.6.069,3.435,4.327.582,1.418,2.7-2.976-6.692-8.433-.784,1.2-14.713,11.677L205,100.7l6.693,8.433.1-.054,1.962,3.534.591-.686,3.261-.9.578.166,1.72,3.1-.166.578-2.49,2.29-.894.141,2.188,3.94.919-1.321Zm-11.976,2.724,6.7-2.129-5.348,4.558-.437-.145-1.019-1.835Z" fill="#f7f1e8"/>
        <polygon points="236.942 119.998 237.904 122.513 238.08 124.085 241.596 122.012 237.476 111.236 233.485 112.064 234.382 113.3 235.363 115.868 235.144 116.407 220.053 122.176 218.619 122.239 220.229 126.448 221.338 125.538 236.43 119.769 236.942 119.998" fill="#f7f1e8"/>
        <polygon points="243.112 127.864 241.015 126.386 232.189 128.199 230.789 130.395 231.78 135.225 231.449 135.727 227.009 136.639 226.534 136.303 225.982 133.611 226.285 133.114 227.673 132.83 229.096 132.999 228.196 128.614 226.943 129.277 223.391 130.007 222.018 132.197 223.46 139.219 225.568 140.608 234.367 138.801 235.755 136.694 234.753 131.809 235.084 131.307 239.524 130.395 239.997 130.731 240.551 133.423 240.248 133.92 238.86 134.205 237.442 134.062 238.349 138.475 239.583 137.729 243.192 136.988 244.554 134.886 243.112 127.864" fill="#f7f1e8"/>
        <path d="M111.491,223.34l3.743-5.947-.6-2.452-7.961-5.012-.341,1.392-10.009,15.9-1.123.933,7.961,5.012,2.486-.545,3.925-6.234-.593-2.516Zm-7.68,5.445-.586.133-2.326-1.464-.133-.586,2.491-3.957.585-.133,2.327,1.464.133.587Zm4.275-7.588-2.327-1.464-.147-.563,2.355-3.741.585-.133,2.327,1.464.132.586-2.354,3.741Z" fill="#f7f1e8"/>
        <path d="M127.44,222.553l-1.02-2.31-8.718-3.537-.091,1.431-7.064,17.411-.942,1.116,8.718,3.537,2.352-.972,2.77-6.829-1.025-2.372,2.378-.963Zm-9.247,13.221-.554.234-2.547-1.033-.234-.553,1.758-4.334.553-.234,2.548,1.034.234.554Zm3.419-8.429-.542.208-2.548-1.034-.245-.527,1.662-4.1.554-.234,2.547,1.034.234.554Z" fill="#f7f1e8"/>
        <path d="M131.755,221.866l-2.167,1.335-3.744,17.6,1.43,2.129,1.33.284.327.5-.383,1.8-.726,1.236,4.379.932-.161-1.425.383-1.8.5-.327,1.329.283,2.147-1.369,3.743-17.6-1.407-2.095Zm1.588,18.271-.471.3-2.716-.577-.305-.471,2.813-13.22.47-.305,2.716.578.306.471Z" fill="#f7f1e8"/>
        <path d="M158.042,223.957l-9.4.436.517,1.366.873,18.766-.39,1.38,4.444-.207-.515-1.337-.3-6.34.405-.445,4.982-.232,1.727-1.9-.457-9.821Zm-1.78,9.9-2.746.129-.443-.377-.25-5.377.406-.417,2.745-.128.444.377.249,5.378Z" fill="#f7f1e8"/>
        <path d="M168.884,223.257l.119-1.3-4.788,1.058.656,1.132-.253,19.358-.379,1.564,4.4-.973-.488-.762.067-3.382.323-.507,3.459-.763.507.323,1.483,3.039-.12.9,4.4-.972-1-1.258Zm1.642,12.032-2.048.452-.4-.231-.13-7.025,2.842,6.426Z" fill="#f7f1e8"/>
        <polygon points="189.985 229.937 185.829 231.674 186.798 232.744 187.334 234.024 187.131 234.57 184.543 235.652 183.987 235.423 178.774 222.954 179.002 222.398 181.591 221.316 182.121 221.555 182.667 222.862 182.747 224.303 186.903 222.565 185.961 221.485 184.562 218.139 182.238 217.207 175.623 219.972 174.628 222.291 181.567 238.891 183.93 239.84 190.543 237.075 191.501 234.739 190.092 231.366 189.985 229.937" fill="#f7f1e8"/>
        <polygon points="197.129 218.658 196.663 210.519 196.85 208.327 192.635 211.098 193.213 211.463 193.889 221.16 189.655 214.718 189.271 213.308 185.552 215.752 186.695 216.664 197 232.344 197.384 233.753 201.102 231.31 199.961 230.398 197.61 226.821 197.397 223.196 204.45 227.99 204.702 228.942 209.013 226.109 206.989 225.405 197.129 218.658" fill="#f7f1e8"/>
      </g>
      <circle cx="73.096" cy="181.104" r="4.75" fill="#f7f1e8"/>
      <circle cx="229.425" cy="181.104" r="4.75" fill="#f7f1e8"/>
    </g>
    <g>
      <path d="M120.241,147.529h-3.819a3.746,3.746,0,0,1-3.745-3.746v-8.9a3.746,3.746,0,0,1,3.745-3.746h3.819a1.261,1.261,0,0,1,0,2.522h-3.794a1.249,1.249,0,0,0-1.249,1.248v8.85a1.249,1.249,0,0,0,1.249,1.248h3.794a1.261,1.261,0,0,1,0,2.522Z" fill="#95a5a5"/>
      <ellipse cx="161.105" cy="145.63" rx="24.97" ry="8.739" fill="#464f5d"/>
      <path d="M163.1,168.024V181.8a2.567,2.567,0,0,1-1.683,2.475,2.53,2.53,0,0,1-3.359-2.386V168.024A25.283,25.283,0,0,0,163.1,168.024Z" fill="#7f8c8d"/>
      <path d="M171.33,168.415a25.018,25.018,0,0,1-20.45,0l-5.332-3.271a24.844,24.844,0,0,1-9.413-19.514c0,4.832,11.174,8.74,24.97,8.74s24.97-3.908,24.97-8.74a24.845,24.845,0,0,1-9.414,19.514Z" fill="#d94a4a"/>
      <path d="M151.928,166.443l-1.048,1.972-8.865,16.755a3.122,3.122,0,0,1-2.759,1.661,3.054,3.054,0,0,1-1.461-.363,3.131,3.131,0,0,1-1.3-4.219l9.051-17.1.862-1.623a3.122,3.122,0,1,1,5.518,2.922Z" fill="#95a5a5"/>
      <path d="M184.414,186.468a3.051,3.051,0,0,1-1.461.363,3.122,3.122,0,0,1-2.759-1.661l-8.864-16.755-1.049-1.972a3.122,3.122,0,0,1,5.519-2.922l.861,1.623,9.052,17.1A3.13,3.13,0,0,1,184.414,186.468Z" fill="#95a5a5"/>
      <path d="M137.079,148.848a5.953,5.953,0,0,0,2.643,2.719c5.784,3.052,14.782,4.051,21.383,4.051,8.2,0,26.218-2.052,26.218-9.988,0-7.885-17.806-9.988-26.218-9.988-7.575,0-18.924,1.325-24.049,5.868l1.748,1.811a17.429,17.429,0,0,1,6.827-3.247c1.26-.365,2.629-.676,4.066-.942l-3.334,12.261a26.587,26.587,0,0,1-5.494-2.046c-.575-.291-.921-.549-2.227-2.475Zm38.767,2.555-3.353-12.291c1.249.228,2.421.5,3.511.786l4.29,9.977a29.228,29.228,0,0,1-4.448,1.528Zm-6.054-12.709,3.62,13.275a56.526,56.526,0,0,1-6.2.874L165.829,138.3C167.211,138.389,168.528,138.528,169.792,138.694Zm-17.388.01c1.3-.173,2.631-.306,4-.4L155,152.853a56.6,56.6,0,0,1-6.2-.89Zm5.08,14.321,1.432-14.851q1.092-.035,2.189-.035c.749,0,1.48.017,2.206.039l1.414,14.842c-1.173.06-2.372.1-3.62.1-1.223,0-2.429-.035-3.621-.1Zm25.014-4.236-3.34-7.78c3.587,1.378,5.668,3.088,5.668,4.719,0,1.022-.834,2.076-2.323,3.061Z" fill="#bdc3c7"/>
      <path d="M140.413,116.67V162.1a2.514,2.514,0,0,1-2.541,2.5,17.65,17.65,0,0,1-17.631-17.65V131.823a17.649,17.649,0,0,1,17.631-17.649A2.513,2.513,0,0,1,140.413,116.67Z" fill="#d94a4a"/>
      <path d="M124.9,133.145a1.248,1.248,0,0,1-1.248-1.248,13.773,13.773,0,0,1,10.987-13.456,1.248,1.248,0,0,1,.5,2.445,11.273,11.273,0,0,0-8.989,11.011A1.249,1.249,0,0,1,124.9,133.145Z" fill="#fff"/>
      <g>
        <path d="M153.614,131.9a1.249,1.249,0,0,1-1.249-1.249c0-.374-.158-.549-.788-1.061a3.484,3.484,0,0,1,0-6c.625-.512.788-.692.788-1.064s-.158-.547-.788-1.059a3.48,3.48,0,0,1,0-5.993c.624-.51.786-.688.786-1.057a1.249,1.249,0,1,1,2.5,0,3.712,3.712,0,0,1-1.709,3c-.624.512-.788.689-.788,1.059s.159.547.787,1.057a3.48,3.48,0,0,1,0,5.992c-.624.512-.788.689-.788,1.061s.159.551.788,1.064a3.724,3.724,0,0,1,1.709,3A1.249,1.249,0,0,1,153.614,131.9Z" fill="#a56a43"/>
        <path d="M161.1,131.9a1.249,1.249,0,0,1-1.249-1.249c0-.374-.158-.549-.788-1.061a3.484,3.484,0,0,1,0-6c.625-.512.788-.692.788-1.064s-.158-.547-.788-1.059a3.48,3.48,0,0,1,0-5.993c.624-.51.786-.688.786-1.057a1.249,1.249,0,1,1,2.5,0,3.712,3.712,0,0,1-1.709,3c-.624.512-.788.689-.788,1.059s.159.547.787,1.057a3.48,3.48,0,0,1,0,5.992c-.624.512-.788.689-.788,1.061s.159.551.788,1.064a3.724,3.724,0,0,1,1.709,3A1.249,1.249,0,0,1,161.1,131.9Z" fill="#a56a43"/>
        <path d="M168.6,131.9a1.249,1.249,0,0,1-1.249-1.249c0-.374-.158-.549-.788-1.061a3.484,3.484,0,0,1,0-6c.625-.512.788-.692.788-1.064s-.158-.547-.788-1.059a3.48,3.48,0,0,1,0-5.993c.624-.51.786-.688.786-1.057a1.249,1.249,0,1,1,2.5,0,3.712,3.712,0,0,1-1.709,3c-.624.512-.788.689-.788,1.059s.159.547.787,1.057a3.48,3.48,0,0,1,0,5.992c-.624.512-.788.689-.788,1.061s.159.551.788,1.064a3.724,3.724,0,0,1,1.709,3A1.249,1.249,0,0,1,168.6,131.9Z" fill="#a56a43"/>
      </g>
    </g>
  </g>
</svg>
