<svg xmlns="http://www.w3.org/2000/svg" width="500" height="423" viewBox="0 0 500 423">
  <path d="M51.605,26.217l9.526,3.4L49.01,33.02l-18.436-1.1-11.219,4.3-4.905,9.7L16.76,59.23l11.333-.2L17.776,69.635l14.039-2.9-4.906,7.006,8.627,8.806-11.22,10.6,1.409,8.8,13.141-8.306,10.43-2-2.2,8.8,6.315,7.592,10.825-3.205,22.555,2.2,9.017-5.013,13.531,4,4.28,8.269,8.8,4.661,4.287,7.369-12.853,10.061-17.371,9.16,1.58,10.971,2.482,17.27L94,179.346l8.119,9.4-14.434.389,9.022,15.705-8.118,12.1-18.946,1.29,9.923,11.2-1.806,15.7L92.2,252.729l-13.533,12.1-1.805,14.8,3.61,10.294,9.923,6.7-15.337,8.5-9.921,12.094.9,11.2.9,14.8,18.043,1.3,9.922,2.19,10.825,14.8.9,10.3,10.825,5.792-5.416,4.9,2.708,7.6,6.319,5.792,5.412,10.3L140.15,408l9.165-3.6,4.648-16.208,9.165-2.7,10.962-1.8,8.264-.9,11.863-13.506,6.46,3.6H213.44l6.46-.9,10.969.9,10.962-4.5,18.186,6.307,4.648-10.806h10.067l1.039,6.3,10.067.9,4.648-9.9,7.361-21.611,5.549-.9,3.753,1.8,6.452-8.1,10.775-2.7,8.255,1.8,4.655-7.2-1.667-6.3,7.361-2.7.9-13,6.315-5.792,2.708-12.1,16.235-10.294,6.314-7.592-18.944-13.9-.9-15.7v-11.2l8.118-21.106,18.042-19.306.9-9.4,14.433-6.693v-4.9l-9.02-.4,16.237-16.593,9.021-.4,11.727-4.9,20.748-5.791,5.416-13,16.238-4,9.923-12.094,4.513-8.5-3.61-13.9L486.416,78l-15.335-4-15.336,7.706-9.93-4.895-11.727.506-19.846-2.194-3.611-9.4-6.309,2.309-6.315-6.7-10.067-1.8-5.549,9-24.5.9-1.039-9.905-15.48,5.406-6.459-6.307-14.57-5.406-11.872-2.7,1.667-9.9-3.753-10.809-27.2,9.007-23.6-9.007L242.82,37.023l-7.361-3.6-9.158-3.6-8.263,7.208-4.648-4.505-15.48,1.8-18.179-3.6-29.913-7.2-3.746-5.406-10.066,6.306-16.382-1.8-19.081,2.7-11.871-4.5-4.648-4.505-9.163-2.7L68.405,10l-8.259,4.505-3.89,5.406-4.651,6.3Z" fill="none" stroke="#d94a4a" stroke-linecap="round" stroke-linejoin="round" stroke-width="3"/>
  <rect x="172" y="354" width="250" height="43" rx="5" fill="#d94a4a" stroke="#303030" stroke-miterlimit="10" stroke-width="3"/>
  <g>
    <path d="M207.307,381.067h-5.9l.248-.746v-10.3l-.248-.76h2.438l-.233.76v8.855l.233.218h3.014l.808-.218Z" fill="#f7f1e8"/>
    <path d="M210.924,381.067h-2.438l.248-.746v-10.3l-.248-.76h2.438l-.248.76v10.3Z" fill="#f7f1e8"/>
    <path d="M219.529,381.067h-2.47l.171-.465-.435-1.8-.233-.233h-1.941l-.233.233-.435,1.8.171.465h-2.471l.389-.792,2.423-10.33-.217-.683h2.687l-.218.683,2.424,10.33Zm-4.5-4.489h1.15l.186-.171-.761-3.774-.761,3.774Z" fill="#f7f1e8"/>
    <path d="M225.414,377.681h-1.243l-1.724-4.148v6.788l.248.746h-2.438l.248-.746v-10.3l-.248-.76h2.19l2.345,5.343,2.346-5.343h2.19l-.248.76v10.3l.248.746H226.89l.248-.746v-6.788Z" fill="#f7f1e8"/>
    <path d="M232.556,368.578l.683.684v2.516l-.823.839-1.227.684v-.746l.808-.808v-.279l-.156-.156h-.652l-.684-.683v-1.367l.684-.684Z" fill="#f7f1e8"/>
    <path d="M240.756,372.99h-2.469l.233-.746v-.776l-.233-.218H236.78l-.233.218v2.485l.233.233h2.734l.978.978v4.925l-.978.978h-3.931l-1.024-.978V378.1l-.218-.747H236.8l-.248.747v.776l.233.218h1.507l.233-.218v-2.485l-.233-.234h-2.7l-1.024-.994v-4.939l1.024-.963h3.931l.978.963v2.019Z" fill="#f7f1e8"/>
    <path d="M251.673,370.225v9.864l-.994.978h-.746l-.233.233v1.01l.249.746h-2.455l.249-.746V381.3l-.233-.233h-.746l-1.01-.978v-9.864l1.01-.963h3.915Zm-2.191,1.025H247.96l-.217.218v7.409l.217.218h1.522l.218-.218v-7.409Z" fill="#f7f1e8"/>
    <path d="M259.158,370.022v10.067l-.994.978h-3.945l-.963-.978V370.022l-.249-.76h2.438l-.248.76v8.855l.233.218h1.522l.234-.218v-8.855l-.249-.76h2.469Z" fill="#f7f1e8"/>
    <path d="M267.979,381.067h-2.47l.171-.465-.436-1.8-.232-.233H263.07l-.233.233-.435,1.8.171.465H260.1l.388-.792,2.423-10.33-.218-.683h2.688l-.218.683,2.423,10.33Zm-4.5-4.489h1.148l.188-.171-.762-3.774-.762,3.774Z" fill="#f7f1e8"/>
    <path d="M274.609,381.067h-5.9l.248-.746v-10.3l-.248-.76h2.438l-.233.76v8.855l.233.218h3.013l.809-.218Z" fill="#f7f1e8"/>
    <path d="M278.227,381.067h-2.44l.249-.746v-10.3l-.249-.76h2.44l-.249.76v10.3Z" fill="#f7f1e8"/>
    <path d="M286.069,371.468l-.839-.218h-1.475l-.218.218v8.853l.248.746h-2.469l.248-.746v-8.853l-.232-.218h-1.508l-.806.218.356-2.206H285.7Z" fill="#f7f1e8"/>
    <path d="M291.3,380.321l.218.746h-2.409l.249-.746v-3.37l-2.407-6.819-.575-.87h2.9l-.279.466,1.32,4.334,1.321-4.334-.281-.466h2.906l-.576.87-2.391,6.819Z" fill="#f7f1e8"/>
    <path d="M303.88,377.681h-1.243l-1.724-4.148v6.788l.249.746h-2.439l.249-.746v-10.3l-.249-.76h2.19l2.346,5.343,2.345-5.343H307.8l-.249.76v10.3l.249.746h-2.44l.249-.746v-6.788Z" fill="#f7f1e8"/>
    <path d="M309,381.067l.248-.761v-10.3l-.248-.746h5.9l.358,2.175-.809-.234h-3.029l-.233.234v2.438l.233.233h.994l.762-.249v2.47l-.762-.248h-.994l-.233.218v2.547l.233.233h3.029l.809-.233-.358,2.221Z" fill="#f7f1e8"/>
    <path d="M323.479,381.067h-2.471l.172-.465-.436-1.8-.232-.233H318.57l-.233.233-.435,1.8.17.465H315.6l.388-.792,2.423-10.33-.217-.683h2.688l-.219.683,2.424,10.33Zm-4.5-4.489h1.149l.187-.171-.761-3.774-.762,3.774Z" fill="#f7f1e8"/>
    <path d="M329.581,371.468l-.839-.218h-1.475l-.218.218v8.853l.248.746h-2.469l.248-.746v-8.853l-.232-.218h-1.508l-.807.218.357-2.206h6.322Z" fill="#f7f1e8"/>
    <path d="M336.725,372.99h-2.471l.233-.746v-.776l-.233-.218h-1.506l-.233.218v2.485l.233.233h2.733l.979.978v4.925l-.979.978h-3.93l-1.025-.978V378.1l-.217-.747h2.455l-.249.747v.776l.233.218h1.506l.233-.218v-2.485l-.233-.234h-2.7l-1.025-.994v-4.939l1.025-.963h3.93l.979.963v2.019Z" fill="#f7f1e8"/>
    <path d="M339.891,378.333l.683.684v2.532l-.823.823-1.228.684v-.731l.809-.823v-.264l-.156-.171h-.653l-.683-.683v-1.367l.683-.684Z" fill="#f7f1e8"/>
    <path d="M345.465,369.262h5.157l.994.963v3.852l-1.009.979,1.009.994v4.039l-.994.978h-5.157l.249-.761v-10.3Zm2.206,4.6.233.218h1.506l.234-.218v-2.422l-.234-.234H347.9l-.233.234Zm1.739,2.191H347.9l-.233.233v2.563l.233.233h1.506l.234-.233v-2.563Z" fill="#f7f1e8"/>
    <path d="M352.95,381.067l.249-.761v-10.3l-.249-.746h5.9l.357,2.175-.808-.234h-3.029l-.232.234v2.438l.232.233h.994l.762-.249v2.47l-.762-.248h-.994l-.232.218v2.547l.232.233H358.4l.808-.233-.357,2.221Z" fill="#f7f1e8"/>
    <path d="M362.47,381.067h-2.439l.248-.746v-10.3l-.248-.76h2.19l2.859,7.192v-6.432l-.249-.76h2.47l-.248.76v10.3l.248.746H365.08l-2.859-7.176v6.43Z" fill="#f7f1e8"/>
    <path d="M375.9,381.067h-2.469l.17-.465-.434-1.8-.233-.233H371l-.233.233-.435,1.8.171.465h-2.47l.388-.792,2.424-10.33-.218-.683h2.688l-.218.683,2.424,10.33Zm-4.5-4.489h1.151l.185-.171-.76-3.774-.761,3.774Z" fill="#f7f1e8"/>
    <path d="M379.676,380.353l.187.714h-2.7l.187-.714-2.113-9.942-.451-1.149h2.44l-.141.45,1.414,7.394,1.414-7.394-.172-.45h2.471l-.467,1.134Z" fill="#f7f1e8"/>
    <path d="M385.375,381.067h-2.439l.249-.746v-10.3l-.249-.76h2.439l-.249.76v10.3Z" fill="#f7f1e8"/>
    <path d="M392.938,372.99h-2.469l.232-.746v-.776l-.232-.218h-1.507l-.233.218v2.485l.233.233H391.7l.979.978v4.925l-.979.978h-3.929l-1.026-.978V378.1l-.217-.747h2.455l-.249.747v.776l.233.218h1.507l.232-.218v-2.485l-.232-.234h-2.7l-1.026-.994v-4.939l1.026-.963H391.7l.979.963v2.019Z" fill="#f7f1e8"/>
    <path d="M400.719,371.468l-.84-.218H398.4l-.218.218v8.853l.249.746h-2.47l.248-.746v-8.853l-.233-.218h-1.506l-.808.218.357-2.206h6.323Z" fill="#f7f1e8"/>
    <path d="M407.645,381.067h-2.47l.171-.465-.436-1.8-.232-.233h-1.942l-.233.233-.435,1.8.171.465H399.77l.388-.792,2.423-10.33-.218-.683h2.688l-.218.683,2.423,10.33Zm-4.5-4.489h1.148l.188-.171-.762-3.774-.762,3.774Z" fill="#f7f1e8"/>
  </g>
  <path d="M147.3,347.213l.044.044a3.366,3.366,0,0,0,4.011.566l9.317,10.856a4.531,4.531,0,0,0,.178,6.219l.065.065a.96.96,0,0,0,1.357,0l5.883-5.883,6.044,6.044c.135.131,3.087,3,5.437,4.88,2.251,1.805,2.652,2.154,2.668,2.167a.959.959,0,0,0,1.354-1.354c-.018-.021-.373-.431-2.167-2.668-1.884-2.35-4.749-5.3-4.87-5.428l-6.054-6.053,6.216-6.216a.959.959,0,0,0,0-1.357l-.065-.065a4.531,4.531,0,0,0-6.219-.178l-10.856-9.318a3.364,3.364,0,0,0-.566-4.01l-.044-.044a.959.959,0,0,0-1.357,0L147.3,345.855A.96.96,0,0,0,147.3,347.213Z" fill="#303030"/>
</svg>
